<?xml version="1.0" encoding="utf-8" standalone="no"?>
<!DOCTYPE svg PUBLIC "-//W3C//DTD SVG 1.1//EN"
  "http://www.w3.org/Graphics/SVG/1.1/DTD/svg11.dtd">
<!-- Created with matplotlib (https://matplotlib.org/) -->
<svg height="288pt" version="1.1" viewBox="0 0 432 288" width="432pt" xmlns="http://www.w3.org/2000/svg" xmlns:xlink="http://www.w3.org/1999/xlink">
 <metadata>
  <rdf:RDF xmlns:cc="http://creativecommons.org/ns#" xmlns:dc="http://purl.org/dc/elements/1.1/" xmlns:rdf="http://www.w3.org/1999/02/22-rdf-syntax-ns#">
   <cc:Work>
    <dc:type rdf:resource="http://purl.org/dc/dcmitype/StillImage"/>
    <dc:date>2024-07-11T17:16:31.823314</dc:date>
    <dc:format>image/svg+xml</dc:format>
    <dc:creator>
     <cc:Agent>
      <dc:title>Matplotlib v3.3.4, https://matplotlib.org/</dc:title>
     </cc:Agent>
    </dc:creator>
   </cc:Work>
  </rdf:RDF>
 </metadata>
 <defs>
  <style type="text/css">*{stroke-linecap:butt;stroke-linejoin:round;}</style>
 </defs>
 <g id="figure_1">
  <g id="patch_1">
   <path d="M 0 288 
L 432 288 
L 432 0 
L 0 0 
z
" style="fill:none;"/>
  </g>
  <g id="axes_1">
   <g id="line2d_1">
    <path clip-path="url(#p55a530779b)" d="M 283.172727 242.116364 
L 282.727941 240.587645 
L 282.286357 239.058926 
L 281.847952 237.530207 
L 281.412704 236.001488 
L 280.98059 234.472769 
L 280.551588 232.94405 
L 280.125674 231.415331 
L 279.702828 229.886612 
L 279.283026 228.357893 
L 278.866246 226.829174 
L 278.452468 225.300455 
L 278.041669 223.771736 
L 277.633828 222.243017 
L 277.228923 220.714298 
L 276.826934 219.185579 
L 276.427839 217.65686 
L 276.031619 216.12814 
L 275.63825 214.599421 
L 275.247715 213.070702 
L 274.859991 211.541983 
L 274.475059 210.013264 
L 274.092899 208.484545 
L 273.713491 206.955826 
L 273.336814 205.427107 
L 272.96285 203.898388 
L 272.591578 202.369669 
L 272.222979 200.84095 
L 271.857035 199.312231 
L 271.493725 197.783512 
L 271.133032 196.254793 
L 270.774936 194.726074 
L 270.419418 193.197355 
L 270.06646 191.668636 
L 269.716043 190.139917 
L 269.368149 188.611198 
L 269.022761 187.082479 
L 268.679859 185.55376 
L 268.339427 184.025041 
L 268.001445 182.496322 
L 267.665897 180.967603 
L 267.332766 179.438884 
L 267.002033 177.910165 
L 266.673681 176.381446 
L 266.347694 174.852727 
L 266.024053 173.324008 
L 265.702744 171.795289 
L 265.383747 170.26657 
L 265.067048 168.737851 
L 264.752629 167.209132 
L 264.440474 165.680413 
L 264.130566 164.151694 
L 263.82289 162.622975 
L 263.51743 161.094256 
L 263.214169 159.565537 
L 262.913091 158.036818 
L 262.614181 156.508099 
L 262.317424 154.97938 
L 262.022803 153.450661 
L 261.730304 151.921942 
L 261.43991 150.393223 
L 261.151608 148.864504 
L 260.865382 147.335785 
L 260.581216 145.807066 
L 260.299097 144.278347 
L 260.019009 142.749628 
L 259.740938 141.220909 
L 259.464869 139.69219 
L 259.190787 138.163471 
L 258.91868 136.634752 
L 258.648531 135.106033 
L 258.380328 133.577314 
L 258.114056 132.048595 
L 257.849701 130.519876 
L 257.587249 128.991157 
L 257.326688 127.462438 
L 257.068002 125.933719 
L 256.811179 124.405 
L 256.556205 122.876281 
L 256.303068 121.347562 
L 256.051753 119.818843 
L 255.802247 118.290124 
L 255.554538 116.761405 
L 255.308613 115.232686 
L 255.064458 113.703967 
L 254.822061 112.175248 
L 254.58141 110.646529 
L 254.342491 109.11781 
L 254.105293 107.589091 
L 253.869803 106.060372 
L 253.636008 104.531653 
L 253.403897 103.002934 
L 253.173457 101.474215 
L 252.944676 99.945496 
L 252.717543 98.416777 
L 252.492045 96.888058 
L 252.268171 95.359339 
L 252.045908 93.83062 
L 251.825246 92.301901 
L 251.606173 90.773182 
" style="fill:none;stroke:#ff0000;stroke-linecap:square;stroke-width:0.028;"/>
   </g>
   <g id="line2d_2">
    <path clip-path="url(#p55a530779b)" d="M 159.627273 242.116364 
L 160.072059 240.587645 
L 160.513643 239.058926 
L 160.952048 237.530207 
L 161.387296 236.001488 
L 161.81941 234.472769 
L 162.248412 232.94405 
L 162.674326 231.415331 
L 163.097172 229.886612 
L 163.516974 228.357893 
L 163.933754 226.829174 
L 164.347532 225.300455 
L 164.758331 223.771736 
L 165.166172 222.243017 
L 165.571077 220.714298 
L 165.973066 219.185579 
L 166.372161 217.65686 
L 166.768381 216.12814 
L 167.16175 214.599421 
L 167.552285 213.070702 
L 167.940009 211.541983 
L 168.324941 210.013264 
L 168.707101 208.484545 
L 169.086509 206.955826 
L 169.463186 205.427107 
L 169.83715 203.898388 
L 170.208422 202.369669 
L 170.577021 200.84095 
L 170.942965 199.312231 
L 171.306275 197.783512 
L 171.666968 196.254793 
L 172.025064 194.726074 
L 172.380582 193.197355 
L 172.73354 191.668636 
L 173.083957 190.139917 
L 173.431851 188.611198 
L 173.777239 187.082479 
L 174.120141 185.55376 
L 174.460573 184.025041 
L 174.798555 182.496322 
L 175.134103 180.967603 
L 175.467234 179.438884 
L 175.797967 177.910165 
L 176.126319 176.381446 
L 176.452306 174.852727 
L 176.775947 173.324008 
L 177.097256 171.795289 
L 177.416253 170.26657 
L 177.732952 168.737851 
L 178.047371 167.209132 
L 178.359526 165.680413 
L 178.669434 164.151694 
L 178.97711 162.622975 
L 179.28257 161.094256 
L 179.585831 159.565537 
L 179.886909 158.036818 
L 180.185819 156.508099 
L 180.482576 154.97938 
L 180.777197 153.450661 
L 181.069696 151.921942 
L 181.36009 150.393223 
L 181.648392 148.864504 
L 181.934618 147.335785 
L 182.218784 145.807066 
L 182.500903 144.278347 
L 182.780991 142.749628 
L 183.059062 141.220909 
L 183.335131 139.69219 
L 183.609213 138.163471 
L 183.88132 136.634752 
L 184.151469 135.106033 
L 184.419672 133.577314 
L 184.685944 132.048595 
L 184.950299 130.519876 
L 185.212751 128.991157 
L 185.473312 127.462438 
L 185.731998 125.933719 
L 185.988821 124.405 
L 186.243795 122.876281 
L 186.496932 121.347562 
L 186.748247 119.818843 
L 186.997753 118.290124 
L 187.245462 116.761405 
L 187.491387 115.232686 
L 187.735542 113.703967 
L 187.977939 112.175248 
L 188.21859 110.646529 
L 188.457509 109.11781 
L 188.694707 107.589091 
L 188.930197 106.060372 
L 189.163992 104.531653 
L 189.396103 103.002934 
L 189.626543 101.474215 
L 189.855324 99.945496 
L 190.082457 98.416777 
L 190.307955 96.888058 
L 190.531829 95.359339 
L 190.754092 93.83062 
L 190.974754 92.301901 
L 191.193827 90.773182 
" style="fill:none;stroke:#ff0000;stroke-linecap:square;stroke-width:0.028;"/>
   </g>
   <g id="line2d_3">
    <path clip-path="url(#p55a530779b)" d="M 191.193827 90.773182 
L 251.606173 90.773182 
" style="fill:none;stroke:#ff0000;stroke-linecap:square;stroke-width:0.028;"/>
   </g>
   <g id="line2d_4">
    <path clip-path="url(#p55a530779b)" d="M 159.627273 242.116364 
L 113.297727 242.116364 
" style="fill:none;stroke:#ff0000;stroke-linecap:square;stroke-width:0.028;"/>
   </g>
   <g id="line2d_5">
    <path clip-path="url(#p55a530779b)" d="M 283.172727 242.116364 
L 329.502273 242.116364 
" style="fill:none;stroke:#ff0000;stroke-linecap:square;stroke-width:0.028;"/>
   </g>
   <g id="line2d_6">
    <path clip-path="url(#p55a530779b)" d="M 113.297727 242.116364 
L 113.297727 44.443636 
" style="fill:none;stroke:#ff0000;stroke-linecap:square;stroke-width:0.028;"/>
   </g>
   <g id="line2d_7">
    <path clip-path="url(#p55a530779b)" d="M 329.502273 242.116364 
L 329.502273 44.443636 
" style="fill:none;stroke:#ff0000;stroke-linecap:square;stroke-width:0.028;"/>
   </g>
   <g id="line2d_8">
    <path clip-path="url(#p55a530779b)" d="M 113.297727 44.443636 
L 329.502273 44.443636 
" style="fill:none;stroke:#ff0000;stroke-linecap:square;stroke-width:0.028;"/>
   </g>
  </g>
 </g>
 <defs>
  <clipPath id="p55a530779b">
   <rect height="217.44" width="334.8" x="54" y="34.56"/>
  </clipPath>
 </defs>
</svg>
