<?xml version="1.0" encoding="utf-8" standalone="no"?>
<!DOCTYPE svg PUBLIC "-//W3C//DTD SVG 1.1//EN"
  "http://www.w3.org/Graphics/SVG/1.1/DTD/svg11.dtd">
<!-- Created with matplotlib (https://matplotlib.org/) -->
<svg height="288pt" version="1.1" viewBox="0 0 432 288" width="432pt" xmlns="http://www.w3.org/2000/svg" xmlns:xlink="http://www.w3.org/1999/xlink">
 <metadata>
  <rdf:RDF xmlns:cc="http://creativecommons.org/ns#" xmlns:dc="http://purl.org/dc/elements/1.1/" xmlns:rdf="http://www.w3.org/1999/02/22-rdf-syntax-ns#">
   <cc:Work>
    <dc:type rdf:resource="http://purl.org/dc/dcmitype/StillImage"/>
    <dc:date>2024-07-11T17:16:31.865505</dc:date>
    <dc:format>image/svg+xml</dc:format>
    <dc:creator>
     <cc:Agent>
      <dc:title>Matplotlib v3.3.4, https://matplotlib.org/</dc:title>
     </cc:Agent>
    </dc:creator>
   </cc:Work>
  </rdf:RDF>
 </metadata>
 <defs>
  <style type="text/css">*{stroke-linecap:butt;stroke-linejoin:round;}</style>
 </defs>
 <g id="figure_1">
  <g id="patch_1">
   <path d="M 0 288 
L 432 288 
L 432 0 
L 0 0 
z
" style="fill:none;"/>
  </g>
  <g id="axes_1">
   <g id="line2d_1">
    <path clip-path="url(#p6865d91649)" d="M 290.758852 242.116364 
L 290.495622 240.645115 
L 290.233391 239.173867 
L 289.972156 237.702619 
L 289.711912 236.23137 
L 289.452656 234.760122 
L 289.194383 233.288873 
L 288.937091 231.817625 
L 288.680776 230.346377 
L 288.425433 228.875128 
L 288.171059 227.40388 
L 287.91765 225.932632 
L 287.665204 224.461383 
L 287.413715 222.990135 
L 287.163181 221.518886 
L 286.913597 220.047638 
L 286.664961 218.57639 
L 286.417269 217.105141 
L 286.170516 215.633893 
L 285.9247 214.162645 
L 285.679817 212.691396 
L 285.435863 211.220148 
L 285.192836 209.7489 
L 284.95073 208.277651 
L 284.709543 206.806403 
L 284.469272 205.335154 
L 284.229912 203.863906 
L 283.991461 202.392658 
L 283.753915 200.921409 
L 283.517271 199.450161 
L 283.281524 197.978913 
L 283.046672 196.507664 
L 282.812712 195.036416 
L 282.579639 193.565167 
L 282.347451 192.093919 
L 282.116145 190.622671 
L 281.885716 189.151422 
L 281.656161 187.680174 
L 281.427478 186.208926 
L 281.199663 184.737677 
L 280.972712 183.266429 
L 280.746623 181.795181 
L 280.521391 180.323932 
L 280.297015 178.852684 
L 280.07349 177.381435 
L 279.850813 175.910187 
L 279.628981 174.438939 
L 279.407992 172.96769 
L 279.187841 171.496442 
L 278.968525 170.025194 
L 278.750042 168.553945 
L 278.532388 167.082697 
L 278.31556 165.611448 
L 278.099555 164.1402 
L 277.88437 162.668952 
L 277.670001 161.197703 
L 277.456446 159.726455 
L 277.243702 158.255207 
L 277.031765 156.783958 
L 276.820632 155.31271 
L 276.6103 153.841462 
L 276.400767 152.370213 
L 276.192029 150.898965 
L 275.984083 149.427716 
L 275.776927 147.956468 
L 275.570556 146.48522 
L 275.364969 145.013971 
L 275.160162 143.542723 
L 274.956132 142.071475 
L 274.752877 140.600226 
L 274.550393 139.128978 
L 274.348677 137.657729 
L 274.147727 136.186481 
L 273.94754 134.715233 
L 273.748112 133.243984 
L 273.549442 131.772736 
L 273.351525 130.301488 
L 273.154359 128.830239 
L 272.957942 127.358991 
L 272.76227 125.887742 
L 272.567341 124.416494 
L 272.373151 122.945246 
L 272.179699 121.473997 
L 271.986981 120.002749 
L 271.794994 118.531501 
L 271.603735 117.060252 
L 271.413203 115.589004 
L 271.223394 114.117756 
L 271.034305 112.646507 
L 270.845933 111.175259 
L 270.658277 109.70401 
L 270.471333 108.232762 
L 270.285098 106.761514 
L 270.09957 105.290265 
L 269.914746 103.819017 
L 269.730624 102.347769 
L 269.5472 100.87652 
L 269.364473 99.405272 
L 269.182439 97.934023 
L 269.001096 96.462775 
" style="fill:none;stroke:#ff0000;stroke-linecap:square;stroke-width:0.028;"/>
   </g>
   <g id="line2d_2">
    <path clip-path="url(#p6865d91649)" d="M 152.041148 242.116364 
L 152.304378 240.645115 
L 152.566609 239.173867 
L 152.827844 237.702619 
L 153.088088 236.23137 
L 153.347344 234.760122 
L 153.605617 233.288873 
L 153.862909 231.817625 
L 154.119224 230.346377 
L 154.374567 228.875128 
L 154.628941 227.40388 
L 154.88235 225.932632 
L 155.134796 224.461383 
L 155.386285 222.990135 
L 155.636819 221.518886 
L 155.886403 220.047638 
L 156.135039 218.57639 
L 156.382731 217.105141 
L 156.629484 215.633893 
L 156.8753 214.162645 
L 157.120183 212.691396 
L 157.364137 211.220148 
L 157.607164 209.7489 
L 157.84927 208.277651 
L 158.090457 206.806403 
L 158.330728 205.335154 
L 158.570088 203.863906 
L 158.808539 202.392658 
L 159.046085 200.921409 
L 159.282729 199.450161 
L 159.518476 197.978913 
L 159.753328 196.507664 
L 159.987288 195.036416 
L 160.220361 193.565167 
L 160.452549 192.093919 
L 160.683855 190.622671 
L 160.914284 189.151422 
L 161.143839 187.680174 
L 161.372522 186.208926 
L 161.600337 184.737677 
L 161.827288 183.266429 
L 162.053377 181.795181 
L 162.278609 180.323932 
L 162.502985 178.852684 
L 162.72651 177.381435 
L 162.949187 175.910187 
L 163.171019 174.438939 
L 163.392008 172.96769 
L 163.612159 171.496442 
L 163.831475 170.025194 
L 164.049958 168.553945 
L 164.267612 167.082697 
L 164.48444 165.611448 
L 164.700445 164.1402 
L 164.91563 162.668952 
L 165.129999 161.197703 
L 165.343554 159.726455 
L 165.556298 158.255207 
L 165.768235 156.783958 
L 165.979368 155.31271 
L 166.1897 153.841462 
L 166.399233 152.370213 
L 166.607971 150.898965 
L 166.815917 149.427716 
L 167.023073 147.956468 
L 167.229444 146.48522 
L 167.435031 145.013971 
L 167.639838 143.542723 
L 167.843868 142.071475 
L 168.047123 140.600226 
L 168.249607 139.128978 
L 168.451323 137.657729 
L 168.652273 136.186481 
L 168.85246 134.715233 
L 169.051888 133.243984 
L 169.250558 131.772736 
L 169.448475 130.301488 
L 169.645641 128.830239 
L 169.842058 127.358991 
L 170.03773 125.887742 
L 170.232659 124.416494 
L 170.426849 122.945246 
L 170.620301 121.473997 
L 170.813019 120.002749 
L 171.005006 118.531501 
L 171.196265 117.060252 
L 171.386797 115.589004 
L 171.576606 114.117756 
L 171.765695 112.646507 
L 171.954067 111.175259 
L 172.141723 109.70401 
L 172.328667 108.232762 
L 172.514902 106.761514 
L 172.70043 105.290265 
L 172.885254 103.819017 
L 173.069376 102.347769 
L 173.2528 100.87652 
L 173.435527 99.405272 
L 173.617561 97.934023 
L 173.798904 96.462775 
" style="fill:none;stroke:#ff0000;stroke-linecap:square;stroke-width:0.028;"/>
   </g>
   <g id="line2d_3">
    <path clip-path="url(#p6865d91649)" d="M 173.798904 96.462775 
L 269.001096 96.462775 
" style="fill:none;stroke:#ff0000;stroke-linecap:square;stroke-width:0.028;"/>
   </g>
   <g id="line2d_4">
    <path clip-path="url(#p6865d91649)" d="M 152.041148 242.116364 
L 82.682297 242.116364 
" style="fill:none;stroke:#ff0000;stroke-linecap:square;stroke-width:0.028;"/>
   </g>
   <g id="line2d_5">
    <path clip-path="url(#p6865d91649)" d="M 290.758852 242.116364 
L 360.117703 242.116364 
" style="fill:none;stroke:#ff0000;stroke-linecap:square;stroke-width:0.028;"/>
   </g>
   <g id="line2d_6">
    <path clip-path="url(#p6865d91649)" d="M 82.682297 242.116364 
L 82.682297 44.443636 
" style="fill:none;stroke:#ff0000;stroke-linecap:square;stroke-width:0.028;"/>
   </g>
   <g id="line2d_7">
    <path clip-path="url(#p6865d91649)" d="M 360.117703 242.116364 
L 360.117703 44.443636 
" style="fill:none;stroke:#ff0000;stroke-linecap:square;stroke-width:0.028;"/>
   </g>
   <g id="line2d_8">
    <path clip-path="url(#p6865d91649)" d="M 82.682297 44.443636 
L 360.117703 44.443636 
" style="fill:none;stroke:#ff0000;stroke-linecap:square;stroke-width:0.028;"/>
   </g>
  </g>
 </g>
 <defs>
  <clipPath id="p6865d91649">
   <rect height="217.44" width="334.8" x="54" y="34.56"/>
  </clipPath>
 </defs>
</svg>
