<?xml version="1.0" encoding="utf-8" standalone="no"?>
<!DOCTYPE svg PUBLIC "-//W3C//DTD SVG 1.1//EN"
  "http://www.w3.org/Graphics/SVG/1.1/DTD/svg11.dtd">
<!-- Created with matplotlib (https://matplotlib.org/) -->
<svg height="288pt" version="1.1" viewBox="0 0 432 288" width="432pt" xmlns="http://www.w3.org/2000/svg" xmlns:xlink="http://www.w3.org/1999/xlink">
 <metadata>
  <rdf:RDF xmlns:cc="http://creativecommons.org/ns#" xmlns:dc="http://purl.org/dc/elements/1.1/" xmlns:rdf="http://www.w3.org/1999/02/22-rdf-syntax-ns#">
   <cc:Work>
    <dc:type rdf:resource="http://purl.org/dc/dcmitype/StillImage"/>
    <dc:date>2024-07-11T17:16:31.547963</dc:date>
    <dc:format>image/svg+xml</dc:format>
    <dc:creator>
     <cc:Agent>
      <dc:title>Matplotlib v3.3.4, https://matplotlib.org/</dc:title>
     </cc:Agent>
    </dc:creator>
   </cc:Work>
  </rdf:RDF>
 </metadata>
 <defs>
  <style type="text/css">*{stroke-linecap:butt;stroke-linejoin:round;}</style>
 </defs>
 <g id="figure_1">
  <g id="patch_1">
   <path d="M 0 288 
L 432 288 
L 432 0 
L 0 0 
z
" style="fill:none;"/>
  </g>
  <g id="axes_1">
   <g id="line2d_1">
    <path clip-path="url(#pc5a2cfc105)" d="M 267.91123 242.116364 
L 267.168522 240.472027 
L 266.437675 238.827691 
L 265.718498 237.183354 
L 265.010804 235.539018 
L 264.314412 233.894682 
L 263.62914 232.250345 
L 262.95481 230.606009 
L 262.291249 228.961672 
L 261.638283 227.317336 
L 260.995744 225.673 
L 260.363466 224.028663 
L 259.741283 222.384327 
L 259.129036 220.73999 
L 258.526566 219.095654 
L 257.933716 217.451317 
L 257.350333 215.806981 
L 256.776266 214.162645 
L 256.211365 212.518308 
L 255.655485 210.873972 
L 255.108482 209.229635 
L 254.570213 207.585299 
L 254.04054 205.940963 
L 253.519324 204.296626 
L 253.006432 202.65229 
L 252.501729 201.007953 
L 252.005086 199.363617 
L 251.516373 197.719281 
L 251.035465 196.074944 
L 250.562235 194.430608 
L 250.096563 192.786271 
L 249.638326 191.141935 
L 249.187407 189.497598 
L 248.743688 187.853262 
L 248.307054 186.208926 
L 247.877393 184.564589 
L 247.454593 182.920253 
L 247.038544 181.275916 
L 246.629139 179.63158 
L 246.226271 177.987244 
L 245.829837 176.342907 
L 245.439733 174.698571 
L 245.055858 173.054234 
L 244.678113 171.409898 
L 244.3064 169.765561 
L 243.940622 168.121225 
L 243.580686 166.476889 
L 243.226497 164.832552 
L 242.877964 163.188216 
L 242.534996 161.543879 
L 242.197505 159.899543 
L 241.865404 158.255207 
L 241.538605 156.61087 
L 241.217025 154.966534 
L 240.90058 153.322197 
L 240.589188 151.677861 
L 240.282768 150.033525 
L 239.981241 148.389188 
L 239.68453 146.744852 
L 239.392556 145.100515 
L 239.105245 143.456179 
L 238.822521 141.811842 
L 238.544312 140.167506 
L 238.270546 138.52317 
L 238.001151 136.878833 
L 237.736058 135.234497 
L 237.475198 133.59016 
L 237.218504 131.945824 
L 236.965909 130.301488 
L 236.717347 128.657151 
L 236.472754 127.012815 
L 236.232067 125.368478 
L 235.995224 123.724142 
L 235.762162 122.079806 
L 235.532822 120.435469 
L 235.307144 118.791133 
L 235.08507 117.146796 
L 234.866542 115.50246 
L 234.651504 113.858123 
L 234.439899 112.213787 
L 234.231674 110.569451 
L 234.026773 108.925114 
L 233.825144 107.280778 
L 233.626735 105.636441 
L 233.431494 103.992105 
L 233.239371 102.347769 
L 233.050316 100.703432 
L 232.86428 99.059096 
L 232.681214 97.414759 
L 232.501072 95.770423 
L 232.323806 94.126087 
L 232.149371 92.48175 
L 231.977721 90.837414 
L 231.808813 89.193077 
L 231.642601 87.548741 
L 231.479044 85.904404 
L 231.318098 84.260068 
L 231.159722 82.615732 
L 231.003876 80.971395 
L 230.850518 79.327059 
" style="fill:none;stroke:#ff0000;stroke-linecap:square;stroke-width:0.028;"/>
   </g>
   <g id="line2d_2">
    <path clip-path="url(#pc5a2cfc105)" d="M 174.88877 242.116364 
L 175.631478 240.472027 
L 176.362325 238.827691 
L 177.081502 237.183354 
L 177.789196 235.539018 
L 178.485588 233.894682 
L 179.17086 232.250345 
L 179.84519 230.606009 
L 180.508751 228.961672 
L 181.161717 227.317336 
L 181.804256 225.673 
L 182.436534 224.028663 
L 183.058717 222.384327 
L 183.670964 220.73999 
L 184.273434 219.095654 
L 184.866284 217.451317 
L 185.449667 215.806981 
L 186.023734 214.162645 
L 186.588635 212.518308 
L 187.144515 210.873972 
L 187.691518 209.229635 
L 188.229787 207.585299 
L 188.75946 205.940963 
L 189.280676 204.296626 
L 189.793568 202.65229 
L 190.298271 201.007953 
L 190.794914 199.363617 
L 191.283627 197.719281 
L 191.764535 196.074944 
L 192.237765 194.430608 
L 192.703437 192.786271 
L 193.161674 191.141935 
L 193.612593 189.497598 
L 194.056312 187.853262 
L 194.492946 186.208926 
L 194.922607 184.564589 
L 195.345407 182.920253 
L 195.761456 181.275916 
L 196.170861 179.63158 
L 196.573729 177.987244 
L 196.970163 176.342907 
L 197.360267 174.698571 
L 197.744142 173.054234 
L 198.121887 171.409898 
L 198.4936 169.765561 
L 198.859378 168.121225 
L 199.219314 166.476889 
L 199.573503 164.832552 
L 199.922036 163.188216 
L 200.265004 161.543879 
L 200.602495 159.899543 
L 200.934596 158.255207 
L 201.261395 156.61087 
L 201.582975 154.966534 
L 201.89942 153.322197 
L 202.210812 151.677861 
L 202.517232 150.033525 
L 202.818759 148.389188 
L 203.11547 146.744852 
L 203.407444 145.100515 
L 203.694755 143.456179 
L 203.977479 141.811842 
L 204.255688 140.167506 
L 204.529454 138.52317 
L 204.798849 136.878833 
L 205.063942 135.234497 
L 205.324802 133.59016 
L 205.581496 131.945824 
L 205.834091 130.301488 
L 206.082653 128.657151 
L 206.327246 127.012815 
L 206.567933 125.368478 
L 206.804776 123.724142 
L 207.037838 122.079806 
L 207.267178 120.435469 
L 207.492856 118.791133 
L 207.71493 117.146796 
L 207.933458 115.50246 
L 208.148496 113.858123 
L 208.360101 112.213787 
L 208.568326 110.569451 
L 208.773227 108.925114 
L 208.974856 107.280778 
L 209.173265 105.636441 
L 209.368506 103.992105 
L 209.560629 102.347769 
L 209.749684 100.703432 
L 209.93572 99.059096 
L 210.118786 97.414759 
L 210.298928 95.770423 
L 210.476194 94.126087 
L 210.650629 92.48175 
L 210.822279 90.837414 
L 210.991187 89.193077 
L 211.157399 87.548741 
L 211.320956 85.904404 
L 211.481902 84.260068 
L 211.640278 82.615732 
L 211.796124 80.971395 
L 211.949482 79.327059 
" style="fill:none;stroke:#ff0000;stroke-linecap:square;stroke-width:0.028;"/>
   </g>
   <g id="line2d_3">
    <path clip-path="url(#pc5a2cfc105)" d="M 211.949482 79.327059 
L 230.850518 79.327059 
" style="fill:none;stroke:#ff0000;stroke-linecap:square;stroke-width:0.028;"/>
   </g>
   <g id="line2d_4">
    <path clip-path="url(#pc5a2cfc105)" d="M 174.88877 242.116364 
L 151.633155 242.116364 
" style="fill:none;stroke:#ff0000;stroke-linecap:square;stroke-width:0.028;"/>
   </g>
   <g id="line2d_5">
    <path clip-path="url(#pc5a2cfc105)" d="M 267.91123 242.116364 
L 291.166845 242.116364 
" style="fill:none;stroke:#ff0000;stroke-linecap:square;stroke-width:0.028;"/>
   </g>
   <g id="line2d_6">
    <path clip-path="url(#pc5a2cfc105)" d="M 151.633155 242.116364 
L 151.633155 44.443636 
" style="fill:none;stroke:#ff0000;stroke-linecap:square;stroke-width:0.028;"/>
   </g>
   <g id="line2d_7">
    <path clip-path="url(#pc5a2cfc105)" d="M 291.166845 242.116364 
L 291.166845 44.443636 
" style="fill:none;stroke:#ff0000;stroke-linecap:square;stroke-width:0.028;"/>
   </g>
   <g id="line2d_8">
    <path clip-path="url(#pc5a2cfc105)" d="M 151.633155 44.443636 
L 291.166845 44.443636 
" style="fill:none;stroke:#ff0000;stroke-linecap:square;stroke-width:0.028;"/>
   </g>
  </g>
 </g>
 <defs>
  <clipPath id="pc5a2cfc105">
   <rect height="217.44" width="334.8" x="54" y="34.56"/>
  </clipPath>
 </defs>
</svg>
