<?xml version="1.0" encoding="utf-8" standalone="no"?>
<!DOCTYPE svg PUBLIC "-//W3C//DTD SVG 1.1//EN"
  "http://www.w3.org/Graphics/SVG/1.1/DTD/svg11.dtd">
<!-- Created with matplotlib (https://matplotlib.org/) -->
<svg height="288pt" version="1.1" viewBox="0 0 432 288" width="432pt" xmlns="http://www.w3.org/2000/svg" xmlns:xlink="http://www.w3.org/1999/xlink">
 <metadata>
  <rdf:RDF xmlns:cc="http://creativecommons.org/ns#" xmlns:dc="http://purl.org/dc/elements/1.1/" xmlns:rdf="http://www.w3.org/1999/02/22-rdf-syntax-ns#">
   <cc:Work>
    <dc:type rdf:resource="http://purl.org/dc/dcmitype/StillImage"/>
    <dc:date>2024-07-11T17:16:31.781486</dc:date>
    <dc:format>image/svg+xml</dc:format>
    <dc:creator>
     <cc:Agent>
      <dc:title>Matplotlib v3.3.4, https://matplotlib.org/</dc:title>
     </cc:Agent>
    </dc:creator>
   </cc:Work>
  </rdf:RDF>
 </metadata>
 <defs>
  <style type="text/css">*{stroke-linecap:butt;stroke-linejoin:round;}</style>
 </defs>
 <g id="figure_1">
  <g id="patch_1">
   <path d="M 0 288 
L 432 288 
L 432 0 
L 0 0 
z
" style="fill:none;"/>
  </g>
  <g id="axes_1">
   <g id="line2d_1">
    <path clip-path="url(#pb25e15e865)" d="M 277.082458 242.116364 
L 276.507714 240.541506 
L 275.938903 238.966649 
L 275.375962 237.391791 
L 274.818832 235.816934 
L 274.267453 234.242077 
L 273.721765 232.667219 
L 273.181709 231.092362 
L 272.647228 229.517504 
L 272.118263 227.942647 
L 271.594759 226.36779 
L 271.076658 224.792932 
L 270.563904 223.218075 
L 270.056443 221.643217 
L 269.554221 220.06836 
L 269.057182 218.493503 
L 268.565273 216.918645 
L 268.078442 215.343788 
L 267.596635 213.76893 
L 267.119802 212.194073 
L 266.647891 210.619215 
L 266.18085 209.044358 
L 265.718631 207.469501 
L 265.261182 205.894643 
L 264.808455 204.319786 
L 264.360401 202.744928 
L 263.916971 201.170071 
L 263.478119 199.595214 
L 263.043796 198.020356 
L 262.613957 196.445499 
L 262.188554 194.870641 
L 261.767542 193.295784 
L 261.350875 191.720927 
L 260.93851 190.146069 
L 260.530401 188.571212 
L 260.126504 186.996354 
L 259.726776 185.421497 
L 259.331174 183.84664 
L 258.939655 182.271782 
L 258.552178 180.696925 
L 258.1687 179.122067 
L 257.78918 177.54721 
L 257.413578 175.972352 
L 257.041852 174.397495 
L 256.673964 172.822638 
L 256.309872 171.24778 
L 255.949539 169.672923 
L 255.592925 168.098065 
L 255.239992 166.523208 
L 254.890702 164.948351 
L 254.545017 163.373493 
L 254.2029 161.798636 
L 253.864315 160.223778 
L 253.529224 158.648921 
L 253.197592 157.074064 
L 252.869383 155.499206 
L 252.544562 153.924349 
L 252.223093 152.349491 
L 251.904943 150.774634 
L 251.590077 149.199777 
L 251.27846 147.624919 
L 250.97006 146.050062 
L 250.664844 144.475204 
L 250.362777 142.900347 
L 250.063829 141.325489 
L 249.767966 139.750632 
L 249.475157 138.175775 
L 249.18537 136.600917 
L 248.898575 135.02606 
L 248.61474 133.451202 
L 248.333834 131.876345 
L 248.055828 130.301488 
L 247.780692 128.72663 
L 247.508395 127.151773 
L 247.238909 125.576915 
L 246.972204 124.002058 
L 246.708253 122.427201 
L 246.447026 120.852343 
L 246.188495 119.277486 
L 245.932633 117.702628 
L 245.679411 116.127771 
L 245.428804 114.552914 
L 245.180783 112.978056 
L 244.935322 111.403199 
L 244.692395 109.828341 
L 244.451975 108.253484 
L 244.214037 106.678626 
L 243.978554 105.103769 
L 243.745503 103.528912 
L 243.514856 101.954054 
L 243.286591 100.379197 
L 243.060681 98.804339 
L 242.837104 97.229482 
L 242.615834 95.654625 
L 242.396848 94.079767 
L 242.180123 92.50491 
L 241.965634 90.930052 
L 241.753359 89.355195 
L 241.543276 87.780338 
L 241.33536 86.20548 
" style="fill:none;stroke:#ff0000;stroke-linecap:square;stroke-width:0.028;"/>
   </g>
   <g id="line2d_2">
    <path clip-path="url(#pb25e15e865)" d="M 165.717542 242.116364 
L 166.292286 240.541506 
L 166.861097 238.966649 
L 167.424038 237.391791 
L 167.981168 235.816934 
L 168.532547 234.242077 
L 169.078235 232.667219 
L 169.618291 231.092362 
L 170.152772 229.517504 
L 170.681737 227.942647 
L 171.205241 226.36779 
L 171.723342 224.792932 
L 172.236096 223.218075 
L 172.743557 221.643217 
L 173.245779 220.06836 
L 173.742818 218.493503 
L 174.234727 216.918645 
L 174.721558 215.343788 
L 175.203365 213.76893 
L 175.680198 212.194073 
L 176.152109 210.619215 
L 176.61915 209.044358 
L 177.081369 207.469501 
L 177.538818 205.894643 
L 177.991545 204.319786 
L 178.439599 202.744928 
L 178.883029 201.170071 
L 179.321881 199.595214 
L 179.756204 198.020356 
L 180.186043 196.445499 
L 180.611446 194.870641 
L 181.032458 193.295784 
L 181.449125 191.720927 
L 181.86149 190.146069 
L 182.269599 188.571212 
L 182.673496 186.996354 
L 183.073224 185.421497 
L 183.468826 183.84664 
L 183.860345 182.271782 
L 184.247822 180.696925 
L 184.6313 179.122067 
L 185.01082 177.54721 
L 185.386422 175.972352 
L 185.758148 174.397495 
L 186.126036 172.822638 
L 186.490128 171.24778 
L 186.850461 169.672923 
L 187.207075 168.098065 
L 187.560008 166.523208 
L 187.909298 164.948351 
L 188.254983 163.373493 
L 188.5971 161.798636 
L 188.935685 160.223778 
L 189.270776 158.648921 
L 189.602408 157.074064 
L 189.930617 155.499206 
L 190.255438 153.924349 
L 190.576907 152.349491 
L 190.895057 150.774634 
L 191.209923 149.199777 
L 191.52154 147.624919 
L 191.82994 146.050062 
L 192.135156 144.475204 
L 192.437223 142.900347 
L 192.736171 141.325489 
L 193.032034 139.750632 
L 193.324843 138.175775 
L 193.61463 136.600917 
L 193.901425 135.02606 
L 194.18526 133.451202 
L 194.466166 131.876345 
L 194.744172 130.301488 
L 195.019308 128.72663 
L 195.291605 127.151773 
L 195.561091 125.576915 
L 195.827796 124.002058 
L 196.091747 122.427201 
L 196.352974 120.852343 
L 196.611505 119.277486 
L 196.867367 117.702628 
L 197.120589 116.127771 
L 197.371196 114.552914 
L 197.619217 112.978056 
L 197.864678 111.403199 
L 198.107605 109.828341 
L 198.348025 108.253484 
L 198.585963 106.678626 
L 198.821446 105.103769 
L 199.054497 103.528912 
L 199.285144 101.954054 
L 199.513409 100.379197 
L 199.739319 98.804339 
L 199.962896 97.229482 
L 200.184166 95.654625 
L 200.403152 94.079767 
L 200.619877 92.50491 
L 200.834366 90.930052 
L 201.046641 89.355195 
L 201.256724 87.780338 
L 201.46464 86.20548 
" style="fill:none;stroke:#ff0000;stroke-linecap:square;stroke-width:0.028;"/>
   </g>
   <g id="line2d_3">
    <path clip-path="url(#pb25e15e865)" d="M 201.46464 86.20548 
L 241.33536 86.20548 
" style="fill:none;stroke:#ff0000;stroke-linecap:square;stroke-width:0.028;"/>
   </g>
   <g id="line2d_4">
    <path clip-path="url(#pb25e15e865)" d="M 165.717542 242.116364 
L 137.876312 242.116364 
" style="fill:none;stroke:#ff0000;stroke-linecap:square;stroke-width:0.028;"/>
   </g>
   <g id="line2d_5">
    <path clip-path="url(#pb25e15e865)" d="M 277.082458 242.116364 
L 304.923688 242.116364 
" style="fill:none;stroke:#ff0000;stroke-linecap:square;stroke-width:0.028;"/>
   </g>
   <g id="line2d_6">
    <path clip-path="url(#pb25e15e865)" d="M 137.876312 242.116364 
L 137.876312 44.443636 
" style="fill:none;stroke:#ff0000;stroke-linecap:square;stroke-width:0.028;"/>
   </g>
   <g id="line2d_7">
    <path clip-path="url(#pb25e15e865)" d="M 304.923688 242.116364 
L 304.923688 44.443636 
" style="fill:none;stroke:#ff0000;stroke-linecap:square;stroke-width:0.028;"/>
   </g>
   <g id="line2d_8">
    <path clip-path="url(#pb25e15e865)" d="M 137.876312 44.443636 
L 304.923688 44.443636 
" style="fill:none;stroke:#ff0000;stroke-linecap:square;stroke-width:0.028;"/>
   </g>
  </g>
 </g>
 <defs>
  <clipPath id="pb25e15e865">
   <rect height="217.44" width="334.8" x="54" y="34.56"/>
  </clipPath>
 </defs>
</svg>
