<?xml version="1.0" encoding="utf-8" standalone="no"?>
<!DOCTYPE svg PUBLIC "-//W3C//DTD SVG 1.1//EN"
  "http://www.w3.org/Graphics/SVG/1.1/DTD/svg11.dtd">
<!-- Created with matplotlib (https://matplotlib.org/) -->
<svg height="288pt" version="1.1" viewBox="0 0 432 288" width="432pt" xmlns="http://www.w3.org/2000/svg" xmlns:xlink="http://www.w3.org/1999/xlink">
 <metadata>
  <rdf:RDF xmlns:cc="http://creativecommons.org/ns#" xmlns:dc="http://purl.org/dc/elements/1.1/" xmlns:rdf="http://www.w3.org/1999/02/22-rdf-syntax-ns#">
   <cc:Work>
    <dc:type rdf:resource="http://purl.org/dc/dcmitype/StillImage"/>
    <dc:date>2024-07-11T17:16:31.737095</dc:date>
    <dc:format>image/svg+xml</dc:format>
    <dc:creator>
     <cc:Agent>
      <dc:title>Matplotlib v3.3.4, https://matplotlib.org/</dc:title>
     </cc:Agent>
    </dc:creator>
   </cc:Work>
  </rdf:RDF>
 </metadata>
 <defs>
  <style type="text/css">*{stroke-linecap:butt;stroke-linejoin:round;}</style>
 </defs>
 <g id="figure_1">
  <g id="patch_1">
   <path d="M 0 288 
L 432 288 
L 432 0 
L 0 0 
z
" style="fill:none;"/>
  </g>
  <g id="axes_1">
   <g id="line2d_1">
    <path clip-path="url(#p2f9b4e0e7d)" d="M 272.085315 242.116364 
L 271.414817 240.503649 
L 270.75319 238.890935 
L 270.100315 237.27822 
L 269.456076 235.665505 
L 268.82036 234.052791 
L 268.193054 232.440076 
L 267.574046 230.827362 
L 266.963226 229.214647 
L 266.360487 227.601933 
L 265.765721 225.989218 
L 265.178824 224.376503 
L 264.59969 222.763789 
L 264.028217 221.151074 
L 263.464304 219.53836 
L 262.907851 217.925645 
L 262.358759 216.312931 
L 261.816931 214.700216 
L 261.28227 213.087502 
L 260.754682 211.474787 
L 260.234074 209.862072 
L 259.720352 208.249358 
L 259.213426 206.636643 
L 258.713206 205.023929 
L 258.219604 203.411214 
L 257.732531 201.7985 
L 257.251901 200.185785 
L 256.77763 198.573071 
L 256.309632 196.960356 
L 255.847825 195.347641 
L 255.392128 193.734927 
L 254.942459 192.122212 
L 254.498738 190.509498 
L 254.060887 188.896783 
L 253.628828 187.284069 
L 253.202485 185.671354 
L 252.781781 184.05864 
L 252.366643 182.445925 
L 251.956997 180.83321 
L 251.55277 179.220496 
L 251.15389 177.607781 
L 250.760287 175.995067 
L 250.37189 174.382352 
L 249.988632 172.769638 
L 249.610443 171.156923 
L 249.237258 169.544209 
L 248.869009 167.931494 
L 248.505632 166.318779 
L 248.147061 164.706065 
L 247.793234 163.09335 
L 247.444088 161.480636 
L 247.09956 159.867921 
L 246.75959 158.255207 
L 246.424118 156.642492 
L 246.093083 155.029777 
L 245.766427 153.417063 
L 245.444093 151.804348 
L 245.126022 150.191634 
L 244.81216 148.578919 
L 244.502449 146.966205 
L 244.196835 145.35349 
L 243.895264 143.740776 
L 243.597682 142.128061 
L 243.304038 140.515346 
L 243.014277 138.902632 
L 242.72835 137.289917 
L 242.446205 135.677203 
L 242.167792 134.064488 
L 241.893063 132.451774 
L 241.621968 130.839059 
L 241.354459 129.226345 
L 241.090489 127.61363 
L 240.830011 126.000915 
L 240.572978 124.388201 
L 240.319346 122.775486 
L 240.069069 121.162772 
L 239.822103 119.550057 
L 239.578403 117.937343 
L 239.337928 116.324628 
L 239.100634 114.711914 
L 238.866479 113.099199 
L 238.635421 111.486484 
L 238.40742 109.87377 
L 238.182435 108.261055 
L 237.960427 106.648341 
L 237.741355 105.035626 
L 237.525181 103.422912 
L 237.311867 101.810197 
L 237.101375 100.197483 
L 236.893667 98.584768 
L 236.688707 96.972053 
L 236.486458 95.359339 
L 236.286885 93.746624 
L 236.089952 92.13391 
L 235.895624 90.521195 
L 235.703867 88.908481 
L 235.514646 87.295766 
L 235.327929 85.683051 
L 235.143681 84.070337 
L 234.961871 82.457622 
" style="fill:none;stroke:#ff0000;stroke-linecap:square;stroke-width:0.028;"/>
   </g>
   <g id="line2d_2">
    <path clip-path="url(#p2f9b4e0e7d)" d="M 170.714685 242.116364 
L 171.385183 240.503649 
L 172.04681 238.890935 
L 172.699685 237.27822 
L 173.343924 235.665505 
L 173.97964 234.052791 
L 174.606946 232.440076 
L 175.225954 230.827362 
L 175.836774 229.214647 
L 176.439513 227.601933 
L 177.034279 225.989218 
L 177.621176 224.376503 
L 178.20031 222.763789 
L 178.771783 221.151074 
L 179.335696 219.53836 
L 179.892149 217.925645 
L 180.441241 216.312931 
L 180.983069 214.700216 
L 181.51773 213.087502 
L 182.045318 211.474787 
L 182.565926 209.862072 
L 183.079648 208.249358 
L 183.586574 206.636643 
L 184.086794 205.023929 
L 184.580396 203.411214 
L 185.067469 201.7985 
L 185.548099 200.185785 
L 186.02237 198.573071 
L 186.490368 196.960356 
L 186.952175 195.347641 
L 187.407872 193.734927 
L 187.857541 192.122212 
L 188.301262 190.509498 
L 188.739113 188.896783 
L 189.171172 187.284069 
L 189.597515 185.671354 
L 190.018219 184.05864 
L 190.433357 182.445925 
L 190.843003 180.83321 
L 191.24723 179.220496 
L 191.64611 177.607781 
L 192.039713 175.995067 
L 192.42811 174.382352 
L 192.811368 172.769638 
L 193.189557 171.156923 
L 193.562742 169.544209 
L 193.930991 167.931494 
L 194.294368 166.318779 
L 194.652939 164.706065 
L 195.006766 163.09335 
L 195.355912 161.480636 
L 195.70044 159.867921 
L 196.04041 158.255207 
L 196.375882 156.642492 
L 196.706917 155.029777 
L 197.033573 153.417063 
L 197.355907 151.804348 
L 197.673978 150.191634 
L 197.98784 148.578919 
L 198.297551 146.966205 
L 198.603165 145.35349 
L 198.904736 143.740776 
L 199.202318 142.128061 
L 199.495962 140.515346 
L 199.785723 138.902632 
L 200.07165 137.289917 
L 200.353795 135.677203 
L 200.632208 134.064488 
L 200.906937 132.451774 
L 201.178032 130.839059 
L 201.445541 129.226345 
L 201.709511 127.61363 
L 201.969989 126.000915 
L 202.227022 124.388201 
L 202.480654 122.775486 
L 202.730931 121.162772 
L 202.977897 119.550057 
L 203.221597 117.937343 
L 203.462072 116.324628 
L 203.699366 114.711914 
L 203.933521 113.099199 
L 204.164579 111.486484 
L 204.39258 109.87377 
L 204.617565 108.261055 
L 204.839573 106.648341 
L 205.058645 105.035626 
L 205.274819 103.422912 
L 205.488133 101.810197 
L 205.698625 100.197483 
L 205.906333 98.584768 
L 206.111293 96.972053 
L 206.313542 95.359339 
L 206.513115 93.746624 
L 206.710048 92.13391 
L 206.904376 90.521195 
L 207.096133 88.908481 
L 207.285354 87.295766 
L 207.472071 85.683051 
L 207.656319 84.070337 
L 207.838129 82.457622 
" style="fill:none;stroke:#ff0000;stroke-linecap:square;stroke-width:0.028;"/>
   </g>
   <g id="line2d_3">
    <path clip-path="url(#p2f9b4e0e7d)" d="M 207.838129 82.457622 
L 234.961871 82.457622 
" style="fill:none;stroke:#ff0000;stroke-linecap:square;stroke-width:0.028;"/>
   </g>
   <g id="line2d_4">
    <path clip-path="url(#p2f9b4e0e7d)" d="M 170.714685 242.116364 
L 145.372028 242.116364 
" style="fill:none;stroke:#ff0000;stroke-linecap:square;stroke-width:0.028;"/>
   </g>
   <g id="line2d_5">
    <path clip-path="url(#p2f9b4e0e7d)" d="M 272.085315 242.116364 
L 297.427972 242.116364 
" style="fill:none;stroke:#ff0000;stroke-linecap:square;stroke-width:0.028;"/>
   </g>
   <g id="line2d_6">
    <path clip-path="url(#p2f9b4e0e7d)" d="M 145.372028 242.116364 
L 145.372028 44.443636 
" style="fill:none;stroke:#ff0000;stroke-linecap:square;stroke-width:0.028;"/>
   </g>
   <g id="line2d_7">
    <path clip-path="url(#p2f9b4e0e7d)" d="M 297.427972 242.116364 
L 297.427972 44.443636 
" style="fill:none;stroke:#ff0000;stroke-linecap:square;stroke-width:0.028;"/>
   </g>
   <g id="line2d_8">
    <path clip-path="url(#p2f9b4e0e7d)" d="M 145.372028 44.443636 
L 297.427972 44.443636 
" style="fill:none;stroke:#ff0000;stroke-linecap:square;stroke-width:0.028;"/>
   </g>
  </g>
 </g>
 <defs>
  <clipPath id="p2f9b4e0e7d">
   <rect height="217.44" width="334.8" x="54" y="34.56"/>
  </clipPath>
 </defs>
</svg>
