<?xml version="1.0" encoding="utf-8" standalone="no"?>
<!DOCTYPE svg PUBLIC "-//W3C//DTD SVG 1.1//EN"
  "http://www.w3.org/Graphics/SVG/1.1/DTD/svg11.dtd">
<!-- Created with matplotlib (https://matplotlib.org/) -->
<svg height="288pt" version="1.1" viewBox="0 0 432 288" width="432pt" xmlns="http://www.w3.org/2000/svg" xmlns:xlink="http://www.w3.org/1999/xlink">
 <metadata>
  <rdf:RDF xmlns:cc="http://creativecommons.org/ns#" xmlns:dc="http://purl.org/dc/elements/1.1/" xmlns:rdf="http://www.w3.org/1999/02/22-rdf-syntax-ns#">
   <cc:Work>
    <dc:type rdf:resource="http://purl.org/dc/dcmitype/StillImage"/>
    <dc:date>2024-07-11T17:17:54.197916</dc:date>
    <dc:format>image/svg+xml</dc:format>
    <dc:creator>
     <cc:Agent>
      <dc:title>Matplotlib v3.3.4, https://matplotlib.org/</dc:title>
     </cc:Agent>
    </dc:creator>
   </cc:Work>
  </rdf:RDF>
 </metadata>
 <defs>
  <style type="text/css">*{stroke-linecap:butt;stroke-linejoin:round;}</style>
 </defs>
 <g id="figure_1">
  <g id="patch_1">
   <path d="M 0 288 
L 432 288 
L 432 0 
L 0 0 
z
" style="fill:none;"/>
  </g>
  <g id="axes_1">
   <g id="line2d_1">
    <path clip-path="url(#pbcebe6beb8)" d="M 264.880519 183.934286 
L 265.248725 183.442385 
L 265.620048 182.950484 
L 265.994515 182.458583 
L 266.372154 181.966682 
L 266.75299 181.474782 
L 267.137052 180.982881 
L 267.524366 180.49098 
L 267.91496 179.999079 
L 268.308861 179.507178 
L 268.706098 179.015277 
L 269.1067 178.523377 
L 269.510693 178.031476 
L 269.918108 177.539575 
L 270.328972 177.047674 
L 270.743316 176.555773 
L 271.161169 176.063872 
L 271.582561 175.571972 
L 272.00752 175.080071 
L 272.436079 174.58817 
L 272.868266 174.096269 
L 273.304114 173.604368 
L 273.743652 173.112468 
L 274.186913 172.620567 
L 274.633927 172.128666 
L 275.084726 171.636765 
L 275.539343 171.144864 
L 275.99781 170.652963 
L 276.46016 170.161063 
L 276.926424 169.669162 
L 277.396637 169.177261 
L 277.870832 168.68536 
L 278.349043 168.193459 
L 278.831303 167.701558 
L 279.317647 167.209658 
L 279.80811 166.717757 
L 280.302726 166.225856 
L 280.80153 165.733955 
L 281.304559 165.242054 
L 281.811847 164.750153 
L 282.323431 164.258253 
L 282.839348 163.766352 
L 283.359633 163.274451 
L 283.884324 162.78255 
L 284.413459 162.290649 
L 284.947074 161.798749 
L 285.485208 161.306848 
L 286.027899 160.814947 
L 286.575186 160.323046 
L 287.127108 159.831145 
L 287.683703 159.339244 
L 288.245012 158.847344 
L 288.811074 158.355443 
L 289.381929 157.863542 
L 289.957619 157.371641 
L 290.538184 156.87974 
L 291.123665 156.387839 
L 291.714104 155.895939 
L 292.309543 155.404038 
L 292.910025 154.912137 
L 293.515591 154.420236 
L 294.126286 153.928335 
L 294.742152 153.436434 
L 295.363234 152.944534 
L 295.989575 152.452633 
L 296.62122 151.960732 
L 297.258214 151.468831 
L 297.900602 150.97693 
L 298.548431 150.48503 
L 299.201745 149.993129 
L 299.860591 149.501228 
L 300.525017 149.009327 
L 301.19507 148.517426 
L 301.870796 148.025525 
L 302.552245 147.533625 
L 303.239465 147.041724 
L 303.932504 146.549823 
L 304.631412 146.057922 
L 305.336239 145.566021 
L 306.047034 145.07412 
L 306.763848 144.58222 
L 307.486733 144.090319 
L 308.215739 143.598418 
L 308.950919 143.106517 
L 309.692324 142.614616 
L 310.440008 142.122715 
L 311.194023 141.630815 
L 311.954424 141.138914 
L 312.721263 140.647013 
L 313.494597 140.155112 
L 314.274479 139.663211 
L 315.060966 139.171311 
L 315.854113 138.67941 
L 316.653976 138.187509 
L 317.460613 137.695608 
L 318.274081 137.203707 
L 319.094438 136.711806 
L 319.921741 136.219906 
L 320.75605 135.728005 
L 321.597425 135.236104 
" style="fill:none;stroke:#ff0000;stroke-linecap:square;stroke-width:0.028;"/>
   </g>
   <g id="line2d_2">
    <path clip-path="url(#pbcebe6beb8)" d="M 177.919481 183.934286 
L 177.551275 183.442385 
L 177.179952 182.950484 
L 176.805485 182.458583 
L 176.427846 181.966682 
L 176.04701 181.474782 
L 175.662948 180.982881 
L 175.275634 180.49098 
L 174.88504 179.999079 
L 174.491139 179.507178 
L 174.093902 179.015277 
L 173.6933 178.523377 
L 173.289307 178.031476 
L 172.881892 177.539575 
L 172.471028 177.047674 
L 172.056684 176.555773 
L 171.638831 176.063872 
L 171.217439 175.571972 
L 170.79248 175.080071 
L 170.363921 174.58817 
L 169.931734 174.096269 
L 169.495886 173.604368 
L 169.056348 173.112468 
L 168.613087 172.620567 
L 168.166073 172.128666 
L 167.715274 171.636765 
L 167.260657 171.144864 
L 166.80219 170.652963 
L 166.33984 170.161063 
L 165.873576 169.669162 
L 165.403363 169.177261 
L 164.929168 168.68536 
L 164.450957 168.193459 
L 163.968697 167.701558 
L 163.482353 167.209658 
L 162.99189 166.717757 
L 162.497274 166.225856 
L 161.99847 165.733955 
L 161.495441 165.242054 
L 160.988153 164.750153 
L 160.476569 164.258253 
L 159.960652 163.766352 
L 159.440367 163.274451 
L 158.915676 162.78255 
L 158.386541 162.290649 
L 157.852926 161.798749 
L 157.314792 161.306848 
L 156.772101 160.814947 
L 156.224814 160.323046 
L 155.672892 159.831145 
L 155.116297 159.339244 
L 154.554988 158.847344 
L 153.988926 158.355443 
L 153.418071 157.863542 
L 152.842381 157.371641 
L 152.261816 156.87974 
L 151.676335 156.387839 
L 151.085896 155.895939 
L 150.490457 155.404038 
L 149.889975 154.912137 
L 149.284409 154.420236 
L 148.673714 153.928335 
L 148.057848 153.436434 
L 147.436766 152.944534 
L 146.810425 152.452633 
L 146.17878 151.960732 
L 145.541786 151.468831 
L 144.899398 150.97693 
L 144.251569 150.48503 
L 143.598255 149.993129 
L 142.939409 149.501228 
L 142.274983 149.009327 
L 141.60493 148.517426 
L 140.929204 148.025525 
L 140.247755 147.533625 
L 139.560535 147.041724 
L 138.867496 146.549823 
L 138.168588 146.057922 
L 137.463761 145.566021 
L 136.752966 145.07412 
L 136.036152 144.58222 
L 135.313267 144.090319 
L 134.584261 143.598418 
L 133.849081 143.106517 
L 133.107676 142.614616 
L 132.359992 142.122715 
L 131.605977 141.630815 
L 130.845576 141.138914 
L 130.078737 140.647013 
L 129.305403 140.155112 
L 128.525521 139.663211 
L 127.739034 139.171311 
L 126.945887 138.67941 
L 126.146024 138.187509 
L 125.339387 137.695608 
L 124.525919 137.203707 
L 123.705562 136.711806 
L 122.878259 136.219906 
L 122.04395 135.728005 
L 121.202575 135.236104 
" style="fill:none;stroke:#ff0000;stroke-linecap:square;stroke-width:0.028;"/>
   </g>
   <g id="line2d_3">
    <path clip-path="url(#pbcebe6beb8)" d="M 121.202575 135.236104 
L 321.597425 135.236104 
" style="fill:none;stroke:#ff0000;stroke-linecap:square;stroke-width:0.028;"/>
   </g>
   <g id="line2d_4">
    <path clip-path="url(#pbcebe6beb8)" d="M 177.919481 183.934286 
L 69.218182 183.934286 
" style="fill:none;stroke:#ff0000;stroke-linecap:square;stroke-width:0.028;"/>
   </g>
   <g id="line2d_5">
    <path clip-path="url(#pbcebe6beb8)" d="M 264.880519 183.934286 
L 373.581818 183.934286 
" style="fill:none;stroke:#ff0000;stroke-linecap:square;stroke-width:0.028;"/>
   </g>
   <g id="line2d_6">
    <path clip-path="url(#pbcebe6beb8)" d="M 69.218182 183.934286 
L 69.218182 102.625714 
" style="fill:none;stroke:#ff0000;stroke-linecap:square;stroke-width:0.028;"/>
   </g>
   <g id="line2d_7">
    <path clip-path="url(#pbcebe6beb8)" d="M 373.581818 183.934286 
L 373.581818 102.625714 
" style="fill:none;stroke:#ff0000;stroke-linecap:square;stroke-width:0.028;"/>
   </g>
   <g id="line2d_8">
    <path clip-path="url(#pbcebe6beb8)" d="M 69.218182 102.625714 
L 373.581818 102.625714 
" style="fill:none;stroke:#ff0000;stroke-linecap:square;stroke-width:0.028;"/>
   </g>
  </g>
 </g>
 <defs>
  <clipPath id="pbcebe6beb8">
   <rect height="217.44" width="334.8" x="54" y="34.56"/>
  </clipPath>
 </defs>
</svg>
