<?xml version="1.0" encoding="utf-8" standalone="no"?>
<!DOCTYPE svg PUBLIC "-//W3C//DTD SVG 1.1//EN"
  "http://www.w3.org/Graphics/SVG/1.1/DTD/svg11.dtd">
<!-- Created with matplotlib (https://matplotlib.org/) -->
<svg height="288pt" version="1.1" viewBox="0 0 432 288" width="432pt" xmlns="http://www.w3.org/2000/svg" xmlns:xlink="http://www.w3.org/1999/xlink">
 <metadata>
  <rdf:RDF xmlns:cc="http://creativecommons.org/ns#" xmlns:dc="http://purl.org/dc/elements/1.1/" xmlns:rdf="http://www.w3.org/1999/02/22-rdf-syntax-ns#">
   <cc:Work>
    <dc:type rdf:resource="http://purl.org/dc/dcmitype/StillImage"/>
    <dc:date>2024-07-11T17:17:54.105494</dc:date>
    <dc:format>image/svg+xml</dc:format>
    <dc:creator>
     <cc:Agent>
      <dc:title>Matplotlib v3.3.4, https://matplotlib.org/</dc:title>
     </cc:Agent>
    </dc:creator>
   </cc:Work>
  </rdf:RDF>
 </metadata>
 <defs>
  <style type="text/css">*{stroke-linecap:butt;stroke-linejoin:round;}</style>
 </defs>
 <g id="figure_1">
  <g id="patch_1">
   <path d="M 0 288 
L 432 288 
L 432 0 
L 0 0 
z
" style="fill:none;"/>
  </g>
  <g id="axes_1">
   <g id="line2d_1">
    <path clip-path="url(#p75ba95c3f2)" d="M 245.749091 160.933091 
L 246.150505 160.760926 
L 246.558538 160.58876 
L 246.973296 160.416595 
L 247.394893 160.24443 
L 247.82344 160.072264 
L 248.259052 159.900099 
L 248.701845 159.727934 
L 249.151938 159.555769 
L 249.609451 159.383603 
L 250.074507 159.211438 
L 250.547229 159.039273 
L 251.027745 158.867107 
L 251.516183 158.694942 
L 252.012672 158.522777 
L 252.517347 158.350612 
L 253.030342 158.178446 
L 253.551793 158.006281 
L 254.081842 157.834116 
L 254.620629 157.66195 
L 255.168298 157.489785 
L 255.724995 157.31762 
L 256.290871 157.145455 
L 256.866075 156.973289 
L 257.450762 156.801124 
L 258.045088 156.628959 
L 258.649212 156.456793 
L 259.263295 156.284628 
L 259.887503 156.112463 
L 260.522 155.940298 
L 261.166958 155.768132 
L 261.822549 155.595967 
L 262.488947 155.423802 
L 263.166332 155.251636 
L 263.854884 155.079471 
L 264.554787 154.907306 
L 265.266229 154.73514 
L 265.989399 154.562975 
L 266.724491 154.39081 
L 267.471702 154.218645 
L 268.231232 154.046479 
L 269.003282 153.874314 
L 269.788061 153.702149 
L 270.585778 153.529983 
L 271.396645 153.357818 
L 272.22088 153.185653 
L 273.058704 153.013488 
L 273.910339 152.841322 
L 274.776015 152.669157 
L 275.655962 152.496992 
L 276.550415 152.324826 
L 277.459615 152.152661 
L 278.383803 151.980496 
L 279.323227 151.808331 
L 280.278138 151.636165 
L 281.248792 151.464 
L 282.235448 151.291835 
L 283.23837 151.119669 
L 284.257825 150.947504 
L 285.294088 150.775339 
L 286.347433 150.603174 
L 287.418145 150.431008 
L 288.506507 150.258843 
L 289.612812 150.086678 
L 290.737356 149.914512 
L 291.880438 149.742347 
L 293.042366 149.570182 
L 294.223448 149.398017 
L 295.424002 149.225851 
L 296.644347 149.053686 
L 297.884812 148.881521 
L 299.145726 148.709355 
L 300.427427 148.53719 
L 301.730258 148.365025 
L 303.054568 148.19286 
L 304.400709 148.020694 
L 305.769043 147.848529 
L 307.159936 147.676364 
L 308.573758 147.504198 
L 310.010888 147.332033 
L 311.47171 147.159868 
L 312.956615 146.987702 
L 314.466 146.815537 
L 316.000269 146.643372 
L 317.559831 146.471207 
L 319.145104 146.299041 
L 320.756511 146.126876 
L 322.394484 145.954711 
L 324.05946 145.782545 
L 325.751884 145.61038 
L 327.472209 145.438215 
L 329.220896 145.26605 
L 330.998411 145.093884 
L 332.805229 144.921719 
L 334.641835 144.749554 
L 336.508718 144.577388 
L 338.406379 144.405223 
L 340.335324 144.233058 
L 342.296069 144.060893 
L 344.289139 143.888727 
" style="fill:none;stroke:#ff0000;stroke-linecap:square;stroke-width:0.028;"/>
   </g>
   <g id="line2d_2">
    <path clip-path="url(#p75ba95c3f2)" d="M 197.050909 160.933091 
L 196.649495 160.760926 
L 196.241462 160.58876 
L 195.826704 160.416595 
L 195.405107 160.24443 
L 194.97656 160.072264 
L 194.540948 159.900099 
L 194.098155 159.727934 
L 193.648062 159.555769 
L 193.190549 159.383603 
L 192.725493 159.211438 
L 192.252771 159.039273 
L 191.772255 158.867107 
L 191.283817 158.694942 
L 190.787328 158.522777 
L 190.282653 158.350612 
L 189.769658 158.178446 
L 189.248207 158.006281 
L 188.718158 157.834116 
L 188.179371 157.66195 
L 187.631702 157.489785 
L 187.075005 157.31762 
L 186.509129 157.145455 
L 185.933925 156.973289 
L 185.349238 156.801124 
L 184.754912 156.628959 
L 184.150788 156.456793 
L 183.536705 156.284628 
L 182.912497 156.112463 
L 182.278 155.940298 
L 181.633042 155.768132 
L 180.977451 155.595967 
L 180.311053 155.423802 
L 179.633668 155.251636 
L 178.945116 155.079471 
L 178.245213 154.907306 
L 177.533771 154.73514 
L 176.810601 154.562975 
L 176.075509 154.39081 
L 175.328298 154.218645 
L 174.568768 154.046479 
L 173.796718 153.874314 
L 173.011939 153.702149 
L 172.214222 153.529983 
L 171.403355 153.357818 
L 170.57912 153.185653 
L 169.741296 153.013488 
L 168.889661 152.841322 
L 168.023985 152.669157 
L 167.144038 152.496992 
L 166.249585 152.324826 
L 165.340385 152.152661 
L 164.416197 151.980496 
L 163.476773 151.808331 
L 162.521862 151.636165 
L 161.551208 151.464 
L 160.564552 151.291835 
L 159.56163 151.119669 
L 158.542175 150.947504 
L 157.505912 150.775339 
L 156.452567 150.603174 
L 155.381855 150.431008 
L 154.293493 150.258843 
L 153.187188 150.086678 
L 152.062644 149.914512 
L 150.919562 149.742347 
L 149.757634 149.570182 
L 148.576552 149.398017 
L 147.375998 149.225851 
L 146.155653 149.053686 
L 144.915188 148.881521 
L 143.654274 148.709355 
L 142.372573 148.53719 
L 141.069742 148.365025 
L 139.745432 148.19286 
L 138.399291 148.020694 
L 137.030957 147.848529 
L 135.640064 147.676364 
L 134.226242 147.504198 
L 132.789112 147.332033 
L 131.32829 147.159868 
L 129.843385 146.987702 
L 128.334 146.815537 
L 126.799731 146.643372 
L 125.240169 146.471207 
L 123.654896 146.299041 
L 122.043489 146.126876 
L 120.405516 145.954711 
L 118.74054 145.782545 
L 117.048116 145.61038 
L 115.327791 145.438215 
L 113.579104 145.26605 
L 111.801589 145.093884 
L 109.994771 144.921719 
L 108.158165 144.749554 
L 106.291282 144.577388 
L 104.393621 144.405223 
L 102.464676 144.233058 
L 100.503931 144.060893 
L 98.510861 143.888727 
" style="fill:none;stroke:#ff0000;stroke-linecap:square;stroke-width:0.028;"/>
   </g>
   <g id="line2d_3">
    <path clip-path="url(#p75ba95c3f2)" d="M 98.510861 143.888727 
L 344.289139 143.888727 
" style="fill:none;stroke:#ff0000;stroke-linecap:square;stroke-width:0.028;"/>
   </g>
   <g id="line2d_4">
    <path clip-path="url(#p75ba95c3f2)" d="M 197.050909 160.933091 
L 69.218182 160.933091 
" style="fill:none;stroke:#ff0000;stroke-linecap:square;stroke-width:0.028;"/>
   </g>
   <g id="line2d_5">
    <path clip-path="url(#p75ba95c3f2)" d="M 245.749091 160.933091 
L 373.581818 160.933091 
" style="fill:none;stroke:#ff0000;stroke-linecap:square;stroke-width:0.028;"/>
   </g>
   <g id="line2d_6">
    <path clip-path="url(#p75ba95c3f2)" d="M 69.218182 160.933091 
L 69.218182 125.626909 
" style="fill:none;stroke:#ff0000;stroke-linecap:square;stroke-width:0.028;"/>
   </g>
   <g id="line2d_7">
    <path clip-path="url(#p75ba95c3f2)" d="M 373.581818 160.933091 
L 373.581818 125.626909 
" style="fill:none;stroke:#ff0000;stroke-linecap:square;stroke-width:0.028;"/>
   </g>
   <g id="line2d_8">
    <path clip-path="url(#p75ba95c3f2)" d="M 69.218182 125.626909 
L 373.581818 125.626909 
" style="fill:none;stroke:#ff0000;stroke-linecap:square;stroke-width:0.028;"/>
   </g>
  </g>
 </g>
 <defs>
  <clipPath id="p75ba95c3f2">
   <rect height="217.44" width="334.8" x="54" y="34.56"/>
  </clipPath>
 </defs>
</svg>
