<?xml version="1.0" encoding="utf-8" standalone="no"?>
<!DOCTYPE svg PUBLIC "-//W3C//DTD SVG 1.1//EN"
  "http://www.w3.org/Graphics/SVG/1.1/DTD/svg11.dtd">
<!-- Created with matplotlib (https://matplotlib.org/) -->
<svg height="288pt" version="1.1" viewBox="0 0 432 288" width="432pt" xmlns="http://www.w3.org/2000/svg" xmlns:xlink="http://www.w3.org/1999/xlink">
 <metadata>
  <rdf:RDF xmlns:cc="http://creativecommons.org/ns#" xmlns:dc="http://purl.org/dc/elements/1.1/" xmlns:rdf="http://www.w3.org/1999/02/22-rdf-syntax-ns#">
   <cc:Work>
    <dc:type rdf:resource="http://purl.org/dc/dcmitype/StillImage"/>
    <dc:date>2024-07-11T17:17:54.240343</dc:date>
    <dc:format>image/svg+xml</dc:format>
    <dc:creator>
     <cc:Agent>
      <dc:title>Matplotlib v3.3.4, https://matplotlib.org/</dc:title>
     </cc:Agent>
    </dc:creator>
   </cc:Work>
  </rdf:RDF>
 </metadata>
 <defs>
  <style type="text/css">*{stroke-linecap:butt;stroke-linejoin:round;}</style>
 </defs>
 <g id="figure_1">
  <g id="patch_1">
   <path d="M 0 288 
L 432 288 
L 432 0 
L 0 0 
z
" style="fill:none;"/>
  </g>
  <g id="axes_1">
   <g id="line2d_1">
    <path clip-path="url(#pa9600c3615)" d="M 272.127273 196.036364 
L 272.397449 195.354876 
L 272.669065 194.673388 
L 272.942127 193.991901 
L 273.216643 193.310413 
L 273.492622 192.628926 
L 273.77007 191.947438 
L 274.048996 191.26595 
L 274.329408 190.584463 
L 274.611313 189.902975 
L 274.89472 189.221488 
L 275.179636 188.54 
L 275.466069 187.858512 
L 275.754028 187.177025 
L 276.043521 186.495537 
L 276.334556 185.81405 
L 276.627141 185.132562 
L 276.921284 184.451074 
L 277.216993 183.769587 
L 277.514278 183.088099 
L 277.813146 182.406612 
L 278.113606 181.725124 
L 278.415666 181.043636 
L 278.719334 180.362149 
L 279.024621 179.680661 
L 279.331533 178.999174 
L 279.64008 178.317686 
L 279.95027 177.636198 
L 280.262112 176.954711 
L 280.575615 176.273223 
L 280.890788 175.591736 
L 281.207639 174.910248 
L 281.526178 174.22876 
L 281.846414 173.547273 
L 282.168355 172.865785 
L 282.492011 172.184298 
L 282.817391 171.50281 
L 283.144504 170.821322 
L 283.473358 170.139835 
L 283.803965 169.458347 
L 284.136332 168.77686 
L 284.470469 168.095372 
L 284.806387 167.413884 
L 285.144093 166.732397 
L 285.483598 166.050909 
L 285.824911 165.369421 
L 286.168042 164.687934 
L 286.513 164.006446 
L 286.859796 163.324959 
L 287.208438 162.643471 
L 287.558938 161.961983 
L 287.911305 161.280496 
L 288.265548 160.599008 
L 288.621678 159.917521 
L 288.979704 159.236033 
L 289.339638 158.554545 
L 289.701488 157.873058 
L 290.065266 157.19157 
L 290.430981 156.510083 
L 290.798645 155.828595 
L 291.168266 155.147107 
L 291.539856 154.46562 
L 291.913425 153.784132 
L 292.288984 153.102645 
L 292.666542 152.421157 
L 293.046112 151.739669 
L 293.427704 151.058182 
L 293.811328 150.376694 
L 294.196995 149.695207 
L 294.584716 149.013719 
L 294.974502 148.332231 
L 295.366364 147.650744 
L 295.760313 146.969256 
L 296.156361 146.287769 
L 296.554518 145.606281 
L 296.954795 144.924793 
L 297.357204 144.243306 
L 297.761757 143.561818 
L 298.168464 142.880331 
L 298.577338 142.198843 
L 298.988389 141.517355 
L 299.401629 140.835868 
L 299.81707 140.15438 
L 300.234724 139.472893 
L 300.654603 138.791405 
L 301.076718 138.109917 
L 301.501081 137.42843 
L 301.927704 136.746942 
L 302.356599 136.065455 
L 302.787779 135.383967 
L 303.221255 134.702479 
L 303.65704 134.020992 
L 304.095146 133.339504 
L 304.535585 132.658017 
L 304.97837 131.976529 
L 305.423513 131.295041 
L 305.871028 130.613554 
L 306.320925 129.932066 
L 306.773219 129.250579 
L 307.227922 128.569091 
" style="fill:none;stroke:#ff0000;stroke-linecap:square;stroke-width:0.028;"/>
   </g>
   <g id="line2d_2">
    <path clip-path="url(#pa9600c3615)" d="M 170.672727 196.036364 
L 170.402551 195.354876 
L 170.130935 194.673388 
L 169.857873 193.991901 
L 169.583357 193.310413 
L 169.307378 192.628926 
L 169.02993 191.947438 
L 168.751004 191.26595 
L 168.470592 190.584463 
L 168.188687 189.902975 
L 167.90528 189.221488 
L 167.620364 188.54 
L 167.333931 187.858512 
L 167.045972 187.177025 
L 166.756479 186.495537 
L 166.465444 185.81405 
L 166.172859 185.132562 
L 165.878716 184.451074 
L 165.583007 183.769587 
L 165.285722 183.088099 
L 164.986854 182.406612 
L 164.686394 181.725124 
L 164.384334 181.043636 
L 164.080666 180.362149 
L 163.775379 179.680661 
L 163.468467 178.999174 
L 163.15992 178.317686 
L 162.84973 177.636198 
L 162.537888 176.954711 
L 162.224385 176.273223 
L 161.909212 175.591736 
L 161.592361 174.910248 
L 161.273822 174.22876 
L 160.953586 173.547273 
L 160.631645 172.865785 
L 160.307989 172.184298 
L 159.982609 171.50281 
L 159.655496 170.821322 
L 159.326642 170.139835 
L 158.996035 169.458347 
L 158.663668 168.77686 
L 158.329531 168.095372 
L 157.993613 167.413884 
L 157.655907 166.732397 
L 157.316402 166.050909 
L 156.975089 165.369421 
L 156.631958 164.687934 
L 156.287 164.006446 
L 155.940204 163.324959 
L 155.591562 162.643471 
L 155.241062 161.961983 
L 154.888695 161.280496 
L 154.534452 160.599008 
L 154.178322 159.917521 
L 153.820296 159.236033 
L 153.460362 158.554545 
L 153.098512 157.873058 
L 152.734734 157.19157 
L 152.369019 156.510083 
L 152.001355 155.828595 
L 151.631734 155.147107 
L 151.260144 154.46562 
L 150.886575 153.784132 
L 150.511016 153.102645 
L 150.133458 152.421157 
L 149.753888 151.739669 
L 149.372296 151.058182 
L 148.988672 150.376694 
L 148.603005 149.695207 
L 148.215284 149.013719 
L 147.825498 148.332231 
L 147.433636 147.650744 
L 147.039687 146.969256 
L 146.643639 146.287769 
L 146.245482 145.606281 
L 145.845205 144.924793 
L 145.442796 144.243306 
L 145.038243 143.561818 
L 144.631536 142.880331 
L 144.222662 142.198843 
L 143.811611 141.517355 
L 143.398371 140.835868 
L 142.98293 140.15438 
L 142.565276 139.472893 
L 142.145397 138.791405 
L 141.723282 138.109917 
L 141.298919 137.42843 
L 140.872296 136.746942 
L 140.443401 136.065455 
L 140.012221 135.383967 
L 139.578745 134.702479 
L 139.14296 134.020992 
L 138.704854 133.339504 
L 138.264415 132.658017 
L 137.82163 131.976529 
L 137.376487 131.295041 
L 136.928972 130.613554 
L 136.479075 129.932066 
L 136.026781 129.250579 
L 135.572078 128.569091 
" style="fill:none;stroke:#ff0000;stroke-linecap:square;stroke-width:0.028;"/>
   </g>
   <g id="line2d_3">
    <path clip-path="url(#pa9600c3615)" d="M 135.572078 128.569091 
L 307.227922 128.569091 
" style="fill:none;stroke:#ff0000;stroke-linecap:square;stroke-width:0.028;"/>
   </g>
   <g id="line2d_4">
    <path clip-path="url(#pa9600c3615)" d="M 170.672727 196.036364 
L 69.218182 196.036364 
" style="fill:none;stroke:#ff0000;stroke-linecap:square;stroke-width:0.028;"/>
   </g>
   <g id="line2d_5">
    <path clip-path="url(#pa9600c3615)" d="M 272.127273 196.036364 
L 373.581818 196.036364 
" style="fill:none;stroke:#ff0000;stroke-linecap:square;stroke-width:0.028;"/>
   </g>
   <g id="line2d_6">
    <path clip-path="url(#pa9600c3615)" d="M 69.218182 196.036364 
L 69.218182 90.523636 
" style="fill:none;stroke:#ff0000;stroke-linecap:square;stroke-width:0.028;"/>
   </g>
   <g id="line2d_7">
    <path clip-path="url(#pa9600c3615)" d="M 373.581818 196.036364 
L 373.581818 90.523636 
" style="fill:none;stroke:#ff0000;stroke-linecap:square;stroke-width:0.028;"/>
   </g>
   <g id="line2d_8">
    <path clip-path="url(#pa9600c3615)" d="M 69.218182 90.523636 
L 373.581818 90.523636 
" style="fill:none;stroke:#ff0000;stroke-linecap:square;stroke-width:0.028;"/>
   </g>
  </g>
 </g>
 <defs>
  <clipPath id="pa9600c3615">
   <rect height="217.44" width="334.8" x="54" y="34.56"/>
  </clipPath>
 </defs>
</svg>
