<?xml version="1.0" encoding="utf-8" standalone="no"?>
<!DOCTYPE svg PUBLIC "-//W3C//DTD SVG 1.1//EN"
  "http://www.w3.org/Graphics/SVG/1.1/DTD/svg11.dtd">
<!-- Created with matplotlib (https://matplotlib.org/) -->
<svg height="288pt" version="1.1" viewBox="0 0 432 288" width="432pt" xmlns="http://www.w3.org/2000/svg" xmlns:xlink="http://www.w3.org/1999/xlink">
 <metadata>
  <rdf:RDF xmlns:cc="http://creativecommons.org/ns#" xmlns:dc="http://purl.org/dc/elements/1.1/" xmlns:rdf="http://www.w3.org/1999/02/22-rdf-syntax-ns#">
   <cc:Work>
    <dc:type rdf:resource="http://purl.org/dc/dcmitype/StillImage"/>
    <dc:date>2024-07-11T17:17:54.282619</dc:date>
    <dc:format>image/svg+xml</dc:format>
    <dc:creator>
     <cc:Agent>
      <dc:title>Matplotlib v3.3.4, https://matplotlib.org/</dc:title>
     </cc:Agent>
    </dc:creator>
   </cc:Work>
  </rdf:RDF>
 </metadata>
 <defs>
  <style type="text/css">*{stroke-linecap:butt;stroke-linejoin:round;}</style>
 </defs>
 <g id="figure_1">
  <g id="patch_1">
   <path d="M 0 288 
L 432 288 
L 432 0 
L 0 0 
z
" style="fill:none;"/>
  </g>
  <g id="axes_1">
   <g id="line2d_1">
    <path clip-path="url(#pf3aa2ef535)" d="M 282.272727 212.979273 
L 282.426913 212.032364 
L 282.58149 211.085455 
L 282.736458 210.138545 
L 282.891819 209.191636 
L 283.047573 208.244727 
L 283.203722 207.297818 
L 283.360266 206.350909 
L 283.517207 205.404 
L 283.674545 204.457091 
L 283.832282 203.510182 
L 283.990419 202.563273 
L 284.148956 201.616364 
L 284.307894 200.669455 
L 284.467235 199.722545 
L 284.62698 198.775636 
L 284.787129 197.828727 
L 284.947684 196.881818 
L 285.108646 195.934909 
L 285.270015 194.988 
L 285.431793 194.041091 
L 285.593981 193.094182 
L 285.75658 192.147273 
L 285.91959 191.200364 
L 286.083013 190.253455 
L 286.246851 189.306545 
L 286.411103 188.359636 
L 286.575771 187.412727 
L 286.740857 186.465818 
L 286.90636 185.518909 
L 287.072283 184.572 
L 287.238626 183.625091 
L 287.405391 182.678182 
L 287.572577 181.731273 
L 287.740188 180.784364 
L 287.908223 179.837455 
L 288.076683 178.890545 
L 288.24557 177.943636 
L 288.414885 176.996727 
L 288.584629 176.049818 
L 288.754803 175.102909 
L 288.925407 174.156 
L 289.096444 173.209091 
L 289.267914 172.262182 
L 289.439819 171.315273 
L 289.612159 170.368364 
L 289.784935 169.421455 
L 289.958149 168.474545 
L 290.131802 167.527636 
L 290.305894 166.580727 
L 290.480428 165.633818 
L 290.655404 164.686909 
L 290.830822 163.74 
L 291.006686 162.793091 
L 291.182994 161.846182 
L 291.359749 160.899273 
L 291.536952 159.952364 
L 291.714604 159.005455 
L 291.892706 158.058545 
L 292.071259 157.111636 
L 292.250264 156.164727 
L 292.429722 155.217818 
L 292.609635 154.270909 
L 292.790004 153.324 
L 292.97083 152.377091 
L 293.152113 151.430182 
L 293.333856 150.483273 
L 293.516059 149.536364 
L 293.698724 148.589455 
L 293.881851 147.642545 
L 294.065442 146.695636 
L 294.249499 145.748727 
L 294.434021 144.801818 
L 294.619011 143.854909 
L 294.804469 142.908 
L 294.990397 141.961091 
L 295.176797 141.014182 
L 295.363668 140.067273 
L 295.551012 139.120364 
L 295.738831 138.173455 
L 295.927126 137.226545 
L 296.115898 136.279636 
L 296.305148 135.332727 
L 296.494877 134.385818 
L 296.685087 133.438909 
L 296.875778 132.492 
L 297.066953 131.545091 
L 297.258612 130.598182 
L 297.450756 129.651273 
L 297.643387 128.704364 
L 297.836506 127.757455 
L 298.030114 126.810545 
L 298.224212 125.863636 
L 298.418802 124.916727 
L 298.613885 123.969818 
L 298.809463 123.022909 
L 299.005535 122.076 
L 299.202104 121.129091 
L 299.399171 120.182182 
L 299.596737 119.235273 
" style="fill:none;stroke:#ff0000;stroke-linecap:square;stroke-width:0.028;"/>
   </g>
   <g id="line2d_2">
    <path clip-path="url(#pf3aa2ef535)" d="M 160.527273 212.979273 
L 160.373087 212.032364 
L 160.21851 211.085455 
L 160.063542 210.138545 
L 159.908181 209.191636 
L 159.752427 208.244727 
L 159.596278 207.297818 
L 159.439734 206.350909 
L 159.282793 205.404 
L 159.125455 204.457091 
L 158.967718 203.510182 
L 158.809581 202.563273 
L 158.651044 201.616364 
L 158.492106 200.669455 
L 158.332765 199.722545 
L 158.17302 198.775636 
L 158.012871 197.828727 
L 157.852316 196.881818 
L 157.691354 195.934909 
L 157.529985 194.988 
L 157.368207 194.041091 
L 157.206019 193.094182 
L 157.04342 192.147273 
L 156.88041 191.200364 
L 156.716987 190.253455 
L 156.553149 189.306545 
L 156.388897 188.359636 
L 156.224229 187.412727 
L 156.059143 186.465818 
L 155.89364 185.518909 
L 155.727717 184.572 
L 155.561374 183.625091 
L 155.394609 182.678182 
L 155.227423 181.731273 
L 155.059812 180.784364 
L 154.891777 179.837455 
L 154.723317 178.890545 
L 154.55443 177.943636 
L 154.385115 176.996727 
L 154.215371 176.049818 
L 154.045197 175.102909 
L 153.874593 174.156 
L 153.703556 173.209091 
L 153.532086 172.262182 
L 153.360181 171.315273 
L 153.187841 170.368364 
L 153.015065 169.421455 
L 152.841851 168.474545 
L 152.668198 167.527636 
L 152.494106 166.580727 
L 152.319572 165.633818 
L 152.144596 164.686909 
L 151.969178 163.74 
L 151.793314 162.793091 
L 151.617006 161.846182 
L 151.440251 160.899273 
L 151.263048 159.952364 
L 151.085396 159.005455 
L 150.907294 158.058545 
L 150.728741 157.111636 
L 150.549736 156.164727 
L 150.370278 155.217818 
L 150.190365 154.270909 
L 150.009996 153.324 
L 149.82917 152.377091 
L 149.647887 151.430182 
L 149.466144 150.483273 
L 149.283941 149.536364 
L 149.101276 148.589455 
L 148.918149 147.642545 
L 148.734558 146.695636 
L 148.550501 145.748727 
L 148.365979 144.801818 
L 148.180989 143.854909 
L 147.995531 142.908 
L 147.809603 141.961091 
L 147.623203 141.014182 
L 147.436332 140.067273 
L 147.248988 139.120364 
L 147.061169 138.173455 
L 146.872874 137.226545 
L 146.684102 136.279636 
L 146.494852 135.332727 
L 146.305123 134.385818 
L 146.114913 133.438909 
L 145.924222 132.492 
L 145.733047 131.545091 
L 145.541388 130.598182 
L 145.349244 129.651273 
L 145.156613 128.704364 
L 144.963494 127.757455 
L 144.769886 126.810545 
L 144.575788 125.863636 
L 144.381198 124.916727 
L 144.186115 123.969818 
L 143.990537 123.022909 
L 143.794465 122.076 
L 143.597896 121.129091 
L 143.400829 120.182182 
L 143.203263 119.235273 
" style="fill:none;stroke:#ff0000;stroke-linecap:square;stroke-width:0.028;"/>
   </g>
   <g id="line2d_3">
    <path clip-path="url(#pf3aa2ef535)" d="M 143.203263 119.235273 
L 299.596737 119.235273 
" style="fill:none;stroke:#ff0000;stroke-linecap:square;stroke-width:0.028;"/>
   </g>
   <g id="line2d_4">
    <path clip-path="url(#pf3aa2ef535)" d="M 160.527273 212.979273 
L 69.218182 212.979273 
" style="fill:none;stroke:#ff0000;stroke-linecap:square;stroke-width:0.028;"/>
   </g>
   <g id="line2d_5">
    <path clip-path="url(#pf3aa2ef535)" d="M 282.272727 212.979273 
L 373.581818 212.979273 
" style="fill:none;stroke:#ff0000;stroke-linecap:square;stroke-width:0.028;"/>
   </g>
   <g id="line2d_6">
    <path clip-path="url(#pf3aa2ef535)" d="M 69.218182 212.979273 
L 69.218182 73.580727 
" style="fill:none;stroke:#ff0000;stroke-linecap:square;stroke-width:0.028;"/>
   </g>
   <g id="line2d_7">
    <path clip-path="url(#pf3aa2ef535)" d="M 373.581818 212.979273 
L 373.581818 73.580727 
" style="fill:none;stroke:#ff0000;stroke-linecap:square;stroke-width:0.028;"/>
   </g>
   <g id="line2d_8">
    <path clip-path="url(#pf3aa2ef535)" d="M 69.218182 73.580727 
L 373.581818 73.580727 
" style="fill:none;stroke:#ff0000;stroke-linecap:square;stroke-width:0.028;"/>
   </g>
  </g>
 </g>
 <defs>
  <clipPath id="pf3aa2ef535">
   <rect height="217.44" width="334.8" x="54" y="34.56"/>
  </clipPath>
 </defs>
</svg>
