<?xml version="1.0" encoding="utf-8" standalone="no"?>
<!DOCTYPE svg PUBLIC "-//W3C//DTD SVG 1.1//EN"
  "http://www.w3.org/Graphics/SVG/1.1/DTD/svg11.dtd">
<!-- Created with matplotlib (https://matplotlib.org/) -->
<svg height="288pt" version="1.1" viewBox="0 0 432 288" width="432pt" xmlns="http://www.w3.org/2000/svg" xmlns:xlink="http://www.w3.org/1999/xlink">
 <metadata>
  <rdf:RDF xmlns:cc="http://creativecommons.org/ns#" xmlns:dc="http://purl.org/dc/elements/1.1/" xmlns:rdf="http://www.w3.org/1999/02/22-rdf-syntax-ns#">
   <cc:Work>
    <dc:type rdf:resource="http://purl.org/dc/dcmitype/StillImage"/>
    <dc:date>2024-07-11T17:17:54.338389</dc:date>
    <dc:format>image/svg+xml</dc:format>
    <dc:creator>
     <cc:Agent>
      <dc:title>Matplotlib v3.3.4, https://matplotlib.org/</dc:title>
     </cc:Agent>
    </dc:creator>
   </cc:Work>
  </rdf:RDF>
 </metadata>
 <defs>
  <style type="text/css">*{stroke-linecap:butt;stroke-linejoin:round;}</style>
 </defs>
 <g id="figure_1">
  <g id="patch_1">
   <path d="M 0 288 
L 432 288 
L 432 0 
L 0 0 
z
" style="fill:none;"/>
  </g>
  <g id="axes_1">
   <g id="line2d_1">
    <path clip-path="url(#pdf85d1c04b)" d="M 289.036364 227.825455 
L 289.036364 226.629862 
L 289.036364 225.43427 
L 289.036364 224.238678 
L 289.036364 223.043085 
L 289.036364 221.847493 
L 289.036364 220.651901 
L 289.036364 219.456309 
L 289.036364 218.260716 
L 289.036364 217.065124 
L 289.036364 215.869532 
L 289.036364 214.673939 
L 289.036364 213.478347 
L 289.036364 212.282755 
L 289.036364 211.087163 
L 289.036364 209.89157 
L 289.036364 208.695978 
L 289.036364 207.500386 
L 289.036364 206.304793 
L 289.036364 205.109201 
L 289.036364 203.913609 
L 289.036364 202.718017 
L 289.036364 201.522424 
L 289.036363 200.326832 
L 289.036363 199.13124 
L 289.036363 197.935647 
L 289.036363 196.740055 
L 289.036363 195.544463 
L 289.036363 194.348871 
L 289.036363 193.153278 
L 289.036363 191.957686 
L 289.036363 190.762094 
L 289.036363 189.566501 
L 289.036363 188.370909 
L 289.036363 187.175317 
L 289.036363 185.979725 
L 289.036363 184.784132 
L 289.036363 183.58854 
L 289.036363 182.392948 
L 289.036363 181.197355 
L 289.036363 180.001763 
L 289.036363 178.806171 
L 289.036363 177.610579 
L 289.036363 176.414986 
L 289.036363 175.219394 
L 289.036363 174.023802 
L 289.036363 172.828209 
L 289.036363 171.632617 
L 289.036363 170.437025 
L 289.036363 169.241433 
L 289.036363 168.04584 
L 289.036363 166.850248 
L 289.036363 165.654656 
L 289.036363 164.459063 
L 289.036363 163.263471 
L 289.036363 162.067879 
L 289.036363 160.872287 
L 289.036363 159.676694 
L 289.036363 158.481102 
L 289.036363 157.28551 
L 289.036363 156.089917 
L 289.036363 154.894325 
L 289.036363 153.698733 
L 289.036363 152.50314 
L 289.036363 151.307548 
L 289.036363 150.111956 
L 289.036363 148.916364 
L 289.036363 147.720771 
L 289.036363 146.525179 
L 289.036363 145.329587 
L 289.036363 144.133994 
L 289.036363 142.938402 
L 289.036363 141.74281 
L 289.036363 140.547218 
L 289.036363 139.351625 
L 289.036363 138.156033 
L 289.036363 136.960441 
L 289.036363 135.764848 
L 289.036363 134.569256 
L 289.036363 133.373664 
L 289.036363 132.178072 
L 289.036363 130.982479 
L 289.036363 129.786887 
L 289.036363 128.591295 
L 289.036363 127.395702 
L 289.036363 126.20011 
L 289.036363 125.004518 
L 289.036363 123.808926 
L 289.036363 122.613333 
L 289.036363 121.417741 
L 289.036363 120.222149 
L 289.036363 119.026556 
L 289.036363 117.830964 
L 289.036363 116.635372 
L 289.036363 115.43978 
L 289.036363 114.244187 
L 289.036363 113.048595 
L 289.036363 111.853003 
L 289.036363 110.65741 
L 289.036363 109.461818 
" style="fill:none;stroke:#ff0000;stroke-linecap:square;stroke-width:0.028;"/>
   </g>
   <g id="line2d_2">
    <path clip-path="url(#pdf85d1c04b)" d="M 153.763636 227.825455 
L 153.763636 226.629862 
L 153.763636 225.43427 
L 153.763636 224.238678 
L 153.763636 223.043085 
L 153.763636 221.847493 
L 153.763636 220.651901 
L 153.763636 219.456309 
L 153.763636 218.260716 
L 153.763636 217.065124 
L 153.763636 215.869532 
L 153.763636 214.673939 
L 153.763636 213.478347 
L 153.763636 212.282755 
L 153.763636 211.087163 
L 153.763636 209.89157 
L 153.763636 208.695978 
L 153.763636 207.500386 
L 153.763636 206.304793 
L 153.763636 205.109201 
L 153.763636 203.913609 
L 153.763636 202.718017 
L 153.763636 201.522424 
L 153.763637 200.326832 
L 153.763637 199.13124 
L 153.763637 197.935647 
L 153.763637 196.740055 
L 153.763637 195.544463 
L 153.763637 194.348871 
L 153.763637 193.153278 
L 153.763637 191.957686 
L 153.763637 190.762094 
L 153.763637 189.566501 
L 153.763637 188.370909 
L 153.763637 187.175317 
L 153.763637 185.979725 
L 153.763637 184.784132 
L 153.763637 183.58854 
L 153.763637 182.392948 
L 153.763637 181.197355 
L 153.763637 180.001763 
L 153.763637 178.806171 
L 153.763637 177.610579 
L 153.763637 176.414986 
L 153.763637 175.219394 
L 153.763637 174.023802 
L 153.763637 172.828209 
L 153.763637 171.632617 
L 153.763637 170.437025 
L 153.763637 169.241433 
L 153.763637 168.04584 
L 153.763637 166.850248 
L 153.763637 165.654656 
L 153.763637 164.459063 
L 153.763637 163.263471 
L 153.763637 162.067879 
L 153.763637 160.872287 
L 153.763637 159.676694 
L 153.763637 158.481102 
L 153.763637 157.28551 
L 153.763637 156.089917 
L 153.763637 154.894325 
L 153.763637 153.698733 
L 153.763637 152.50314 
L 153.763637 151.307548 
L 153.763637 150.111956 
L 153.763637 148.916364 
L 153.763637 147.720771 
L 153.763637 146.525179 
L 153.763637 145.329587 
L 153.763637 144.133994 
L 153.763637 142.938402 
L 153.763637 141.74281 
L 153.763637 140.547218 
L 153.763637 139.351625 
L 153.763637 138.156033 
L 153.763637 136.960441 
L 153.763637 135.764848 
L 153.763637 134.569256 
L 153.763637 133.373664 
L 153.763637 132.178072 
L 153.763637 130.982479 
L 153.763637 129.786887 
L 153.763637 128.591295 
L 153.763637 127.395702 
L 153.763637 126.20011 
L 153.763637 125.004518 
L 153.763637 123.808926 
L 153.763637 122.613333 
L 153.763637 121.417741 
L 153.763637 120.222149 
L 153.763637 119.026556 
L 153.763637 117.830964 
L 153.763637 116.635372 
L 153.763637 115.43978 
L 153.763637 114.244187 
L 153.763637 113.048595 
L 153.763637 111.853003 
L 153.763637 110.65741 
L 153.763637 109.461818 
" style="fill:none;stroke:#ff0000;stroke-linecap:square;stroke-width:0.028;"/>
   </g>
   <g id="line2d_3">
    <path clip-path="url(#pdf85d1c04b)" d="M 153.763637 109.461818 
L 289.036363 109.461818 
" style="fill:none;stroke:#ff0000;stroke-linecap:square;stroke-width:0.028;"/>
   </g>
   <g id="line2d_4">
    <path clip-path="url(#pdf85d1c04b)" d="M 153.763636 227.825455 
L 69.218182 227.825455 
" style="fill:none;stroke:#ff0000;stroke-linecap:square;stroke-width:0.028;"/>
   </g>
   <g id="line2d_5">
    <path clip-path="url(#pdf85d1c04b)" d="M 289.036364 227.825455 
L 373.581818 227.825455 
" style="fill:none;stroke:#ff0000;stroke-linecap:square;stroke-width:0.028;"/>
   </g>
   <g id="line2d_6">
    <path clip-path="url(#pdf85d1c04b)" d="M 69.218182 227.825455 
L 69.218182 58.734545 
" style="fill:none;stroke:#ff0000;stroke-linecap:square;stroke-width:0.028;"/>
   </g>
   <g id="line2d_7">
    <path clip-path="url(#pdf85d1c04b)" d="M 373.581818 227.825455 
L 373.581818 58.734545 
" style="fill:none;stroke:#ff0000;stroke-linecap:square;stroke-width:0.028;"/>
   </g>
   <g id="line2d_8">
    <path clip-path="url(#pdf85d1c04b)" d="M 69.218182 58.734545 
L 373.581818 58.734545 
" style="fill:none;stroke:#ff0000;stroke-linecap:square;stroke-width:0.028;"/>
   </g>
  </g>
 </g>
 <defs>
  <clipPath id="pdf85d1c04b">
   <rect height="217.44" width="334.8" x="54" y="34.56"/>
  </clipPath>
 </defs>
</svg>
