<?xml version="1.0" encoding="utf-8" standalone="no"?>
<!DOCTYPE svg PUBLIC "-//W3C//DTD SVG 1.1//EN"
  "http://www.w3.org/Graphics/SVG/1.1/DTD/svg11.dtd">
<!-- Created with matplotlib (https://matplotlib.org/) -->
<svg height="288pt" version="1.1" viewBox="0 0 432 288" width="432pt" xmlns="http://www.w3.org/2000/svg" xmlns:xlink="http://www.w3.org/1999/xlink">
 <metadata>
  <rdf:RDF xmlns:cc="http://creativecommons.org/ns#" xmlns:dc="http://purl.org/dc/elements/1.1/" xmlns:rdf="http://www.w3.org/1999/02/22-rdf-syntax-ns#">
   <cc:Work>
    <dc:type rdf:resource="http://purl.org/dc/dcmitype/StillImage"/>
    <dc:date>2024-07-11T17:17:54.154509</dc:date>
    <dc:format>image/svg+xml</dc:format>
    <dc:creator>
     <cc:Agent>
      <dc:title>Matplotlib v3.3.4, https://matplotlib.org/</dc:title>
     </cc:Agent>
    </dc:creator>
   </cc:Work>
  </rdf:RDF>
 </metadata>
 <defs>
  <style type="text/css">*{stroke-linecap:butt;stroke-linejoin:round;}</style>
 </defs>
 <g id="figure_1">
  <g id="patch_1">
   <path d="M 0 288 
L 432 288 
L 432 0 
L 0 0 
z
" style="fill:none;"/>
  </g>
  <g id="axes_1">
   <g id="line2d_1">
    <path clip-path="url(#p7daf47f262)" d="M 255.218182 171.349091 
L 255.627486 171.038237 
L 256.041743 170.727383 
L 256.461015 170.416529 
L 256.88536 170.105675 
L 257.314842 169.794821 
L 257.749522 169.483967 
L 258.189463 169.173113 
L 258.634728 168.862259 
L 259.085382 168.551405 
L 259.541491 168.240551 
L 260.00312 167.929697 
L 260.470336 167.618843 
L 260.943207 167.307989 
L 261.421801 166.997135 
L 261.906188 166.686281 
L 262.396437 166.375427 
L 262.89262 166.064573 
L 263.394808 165.753719 
L 263.903074 165.442865 
L 264.417491 165.132011 
L 264.938135 164.821157 
L 265.46508 164.510303 
L 265.998403 164.199449 
L 266.53818 163.888595 
L 267.084491 163.577741 
L 267.637413 163.266887 
L 268.197028 162.956033 
L 268.763415 162.645179 
L 269.336658 162.334325 
L 269.916839 162.023471 
L 270.504041 161.712617 
L 271.098351 161.401763 
L 271.699853 161.090909 
L 272.308636 160.780055 
L 272.924787 160.469201 
L 273.548395 160.158347 
L 274.17955 159.847493 
L 274.818345 159.536639 
L 275.46487 159.225785 
L 276.119221 158.914931 
L 276.781492 158.604077 
L 277.451778 158.293223 
L 278.130176 157.982369 
L 278.816785 157.671515 
L 279.511705 157.360661 
L 280.215034 157.049807 
L 280.926877 156.738953 
L 281.647335 156.428099 
L 282.376512 156.117245 
L 283.114515 155.806391 
L 283.86145 155.495537 
L 284.617425 155.184683 
L 285.38255 154.873829 
L 286.156935 154.562975 
L 286.940693 154.252121 
L 287.733936 153.941267 
L 288.53678 153.630413 
L 289.349341 153.319559 
L 290.171737 153.008705 
L 291.004086 152.697851 
L 291.846509 152.386997 
L 292.699128 152.076143 
L 293.562066 151.765289 
L 294.435448 151.454435 
L 295.319401 151.143581 
L 296.214053 150.832727 
L 297.119532 150.521873 
L 298.035971 150.211019 
L 298.963501 149.900165 
L 299.902258 149.589311 
L 300.852376 149.278457 
L 301.813993 148.967603 
L 302.78725 148.656749 
L 303.772285 148.345895 
L 304.769242 148.035041 
L 305.778266 147.724187 
L 306.799502 147.413333 
L 307.833098 147.102479 
L 308.879203 146.791625 
L 309.93797 146.480771 
L 311.009551 146.169917 
L 312.094102 145.859063 
L 313.191779 145.548209 
L 314.302741 145.237355 
L 315.427149 144.926501 
L 316.565166 144.615647 
L 317.716956 144.304793 
L 318.882687 143.993939 
L 320.062527 143.683085 
L 321.256646 143.372231 
L 322.465218 143.061377 
L 323.688417 142.750523 
L 324.926421 142.439669 
L 326.179408 142.128815 
L 327.44756 141.817961 
L 328.731061 141.507107 
L 330.030096 141.196253 
L 331.344854 140.885399 
L 332.675524 140.574545 
" style="fill:none;stroke:#ff0000;stroke-linecap:square;stroke-width:0.028;"/>
   </g>
   <g id="line2d_2">
    <path clip-path="url(#p7daf47f262)" d="M 187.581818 171.349091 
L 187.172514 171.038237 
L 186.758257 170.727383 
L 186.338985 170.416529 
L 185.91464 170.105675 
L 185.485158 169.794821 
L 185.050478 169.483967 
L 184.610537 169.173113 
L 184.165272 168.862259 
L 183.714618 168.551405 
L 183.258509 168.240551 
L 182.79688 167.929697 
L 182.329664 167.618843 
L 181.856793 167.307989 
L 181.378199 166.997135 
L 180.893812 166.686281 
L 180.403563 166.375427 
L 179.90738 166.064573 
L 179.405192 165.753719 
L 178.896926 165.442865 
L 178.382509 165.132011 
L 177.861865 164.821157 
L 177.33492 164.510303 
L 176.801597 164.199449 
L 176.26182 163.888595 
L 175.715509 163.577741 
L 175.162587 163.266887 
L 174.602972 162.956033 
L 174.036585 162.645179 
L 173.463342 162.334325 
L 172.883161 162.023471 
L 172.295959 161.712617 
L 171.701649 161.401763 
L 171.100147 161.090909 
L 170.491364 160.780055 
L 169.875213 160.469201 
L 169.251605 160.158347 
L 168.62045 159.847493 
L 167.981655 159.536639 
L 167.33513 159.225785 
L 166.680779 158.914931 
L 166.018508 158.604077 
L 165.348222 158.293223 
L 164.669824 157.982369 
L 163.983215 157.671515 
L 163.288295 157.360661 
L 162.584966 157.049807 
L 161.873123 156.738953 
L 161.152665 156.428099 
L 160.423488 156.117245 
L 159.685485 155.806391 
L 158.93855 155.495537 
L 158.182575 155.184683 
L 157.41745 154.873829 
L 156.643065 154.562975 
L 155.859307 154.252121 
L 155.066064 153.941267 
L 154.26322 153.630413 
L 153.450659 153.319559 
L 152.628263 153.008705 
L 151.795914 152.697851 
L 150.953491 152.386997 
L 150.100872 152.076143 
L 149.237934 151.765289 
L 148.364552 151.454435 
L 147.480599 151.143581 
L 146.585947 150.832727 
L 145.680468 150.521873 
L 144.764029 150.211019 
L 143.836499 149.900165 
L 142.897742 149.589311 
L 141.947624 149.278457 
L 140.986007 148.967603 
L 140.01275 148.656749 
L 139.027715 148.345895 
L 138.030758 148.035041 
L 137.021734 147.724187 
L 136.000498 147.413333 
L 134.966902 147.102479 
L 133.920797 146.791625 
L 132.86203 146.480771 
L 131.790449 146.169917 
L 130.705898 145.859063 
L 129.608221 145.548209 
L 128.497259 145.237355 
L 127.372851 144.926501 
L 126.234834 144.615647 
L 125.083044 144.304793 
L 123.917313 143.993939 
L 122.737473 143.683085 
L 121.543354 143.372231 
L 120.334782 143.061377 
L 119.111583 142.750523 
L 117.873579 142.439669 
L 116.620592 142.128815 
L 115.35244 141.817961 
L 114.068939 141.507107 
L 112.769904 141.196253 
L 111.455146 140.885399 
L 110.124476 140.574545 
" style="fill:none;stroke:#ff0000;stroke-linecap:square;stroke-width:0.028;"/>
   </g>
   <g id="line2d_3">
    <path clip-path="url(#p7daf47f262)" d="M 110.124476 140.574545 
L 332.675524 140.574545 
" style="fill:none;stroke:#ff0000;stroke-linecap:square;stroke-width:0.028;"/>
   </g>
   <g id="line2d_4">
    <path clip-path="url(#p7daf47f262)" d="M 187.581818 171.349091 
L 69.218182 171.349091 
" style="fill:none;stroke:#ff0000;stroke-linecap:square;stroke-width:0.028;"/>
   </g>
   <g id="line2d_5">
    <path clip-path="url(#p7daf47f262)" d="M 255.218182 171.349091 
L 373.581818 171.349091 
" style="fill:none;stroke:#ff0000;stroke-linecap:square;stroke-width:0.028;"/>
   </g>
   <g id="line2d_6">
    <path clip-path="url(#p7daf47f262)" d="M 69.218182 171.349091 
L 69.218182 115.210909 
" style="fill:none;stroke:#ff0000;stroke-linecap:square;stroke-width:0.028;"/>
   </g>
   <g id="line2d_7">
    <path clip-path="url(#p7daf47f262)" d="M 373.581818 171.349091 
L 373.581818 115.210909 
" style="fill:none;stroke:#ff0000;stroke-linecap:square;stroke-width:0.028;"/>
   </g>
   <g id="line2d_8">
    <path clip-path="url(#p7daf47f262)" d="M 69.218182 115.210909 
L 373.581818 115.210909 
" style="fill:none;stroke:#ff0000;stroke-linecap:square;stroke-width:0.028;"/>
   </g>
  </g>
 </g>
 <defs>
  <clipPath id="p7daf47f262">
   <rect height="217.44" width="334.8" x="54" y="34.56"/>
  </clipPath>
 </defs>
</svg>
