<?xml version="1.0" encoding="utf-8" standalone="no"?>
<!DOCTYPE svg PUBLIC "-//W3C//DTD SVG 1.1//EN"
  "http://www.w3.org/Graphics/SVG/1.1/DTD/svg11.dtd">
<!-- Created with matplotlib (https://matplotlib.org/) -->
<svg height="288pt" version="1.1" viewBox="0 0 432 288" width="432pt" xmlns="http://www.w3.org/2000/svg" xmlns:xlink="http://www.w3.org/1999/xlink">
 <metadata>
  <rdf:RDF xmlns:cc="http://creativecommons.org/ns#" xmlns:dc="http://purl.org/dc/elements/1.1/" xmlns:rdf="http://www.w3.org/1999/02/22-rdf-syntax-ns#">
   <cc:Work>
    <dc:type rdf:resource="http://purl.org/dc/dcmitype/StillImage"/>
    <dc:date>2024-07-11T17:17:54.175716</dc:date>
    <dc:format>image/svg+xml</dc:format>
    <dc:creator>
     <cc:Agent>
      <dc:title>Matplotlib v3.3.4, https://matplotlib.org/</dc:title>
     </cc:Agent>
    </dc:creator>
   </cc:Work>
  </rdf:RDF>
 </metadata>
 <defs>
  <style type="text/css">*{stroke-linecap:butt;stroke-linejoin:round;}</style>
 </defs>
 <g id="figure_1">
  <g id="patch_1">
   <path d="M 0 288 
L 432 288 
L 432 0 
L 0 0 
z
" style="fill:none;"/>
  </g>
  <g id="axes_1">
   <g id="line2d_1">
    <path clip-path="url(#pae1cab988b)" d="M 183.354545 174.857727 
L 69.218182 174.857727 
" style="fill:none;stroke:#ff0000;stroke-linecap:square;stroke-width:0.028;"/>
   </g>
   <g id="line2d_2">
    <path clip-path="url(#pae1cab988b)" d="M 259.445455 174.857727 
L 373.581818 174.857727 
" style="fill:none;stroke:#ff0000;stroke-linecap:square;stroke-width:0.028;"/>
   </g>
   <g id="line2d_3">
    <path clip-path="url(#pae1cab988b)" d="M 69.218182 174.857727 
L 69.218182 111.702273 
" style="fill:none;stroke:#ff0000;stroke-linecap:square;stroke-width:0.028;"/>
   </g>
   <g id="line2d_4">
    <path clip-path="url(#pae1cab988b)" d="M 373.581818 174.857727 
L 373.581818 111.702273 
" style="fill:none;stroke:#ff0000;stroke-linecap:square;stroke-width:0.028;"/>
   </g>
   <g id="line2d_5">
    <path clip-path="url(#pae1cab988b)" d="M 69.218182 111.702273 
L 373.581818 111.702273 
" style="fill:none;stroke:#ff0000;stroke-linecap:square;stroke-width:0.028;"/>
   </g>
   <g id="line2d_6">
    <path clip-path="url(#pae1cab988b)" d="M 259.445455 174.857727 
L 260.154927 174.508017 
L 260.864399 174.158306 
L 261.573872 173.808595 
L 262.283344 173.458884 
L 262.992816 173.109174 
L 263.702289 172.759463 
L 264.411761 172.409752 
L 265.121233 172.060041 
L 265.830706 171.710331 
L 266.540178 171.36062 
L 267.24965 171.010909 
L 267.959123 170.661198 
L 268.668595 170.311488 
L 269.378067 169.961777 
L 270.08754 169.612066 
L 270.797012 169.262355 
L 271.506484 168.912645 
L 272.215957 168.562934 
L 272.925429 168.213223 
L 273.634901 167.863512 
L 274.344374 167.513802 
L 275.053846 167.164091 
L 275.763318 166.81438 
L 276.472791 166.464669 
L 277.182263 166.114959 
L 277.891736 165.765248 
L 278.601208 165.415537 
L 279.31068 165.065826 
L 280.020153 164.716116 
L 280.729625 164.366405 
L 281.439097 164.016694 
L 282.14857 163.666983 
L 282.858042 163.317273 
L 283.567514 162.967562 
L 284.276987 162.617851 
L 284.986459 162.26814 
L 285.695931 161.91843 
L 286.405404 161.568719 
L 287.114876 161.219008 
L 287.824348 160.869298 
L 288.533821 160.519587 
L 289.243293 160.169876 
L 289.952765 159.820165 
L 290.662238 159.470455 
L 291.37171 159.120744 
L 292.081182 158.771033 
L 292.790655 158.421322 
L 293.500127 158.071612 
L 294.209599 157.721901 
L 294.919072 157.37219 
L 295.628544 157.022479 
L 296.338017 156.672769 
L 297.047489 156.323058 
L 297.756961 155.973347 
L 298.466434 155.623636 
L 299.175906 155.273926 
L 299.885378 154.924215 
L 300.594851 154.574504 
L 301.304323 154.224793 
L 302.013795 153.875083 
L 302.723268 153.525372 
L 303.43274 153.175661 
L 304.142212 152.82595 
L 304.851685 152.47624 
L 305.561157 152.126529 
L 306.270629 151.776818 
L 306.980102 151.427107 
L 307.689574 151.077397 
L 308.399046 150.727686 
L 309.108519 150.377975 
L 309.817991 150.028264 
L 310.527463 149.678554 
L 311.236936 149.328843 
L 311.946408 148.979132 
L 312.65588 148.629421 
L 313.365353 148.279711 
L 314.074825 147.93 
L 314.784298 147.580289 
L 315.49377 147.230579 
L 316.203242 146.880868 
L 316.912715 146.531157 
L 317.622187 146.181446 
L 318.331659 145.831736 
L 319.041132 145.482025 
L 319.750604 145.132314 
L 320.460076 144.782603 
L 321.169549 144.432893 
L 321.879021 144.083182 
L 322.588493 143.733471 
L 323.297966 143.38376 
L 324.007438 143.03405 
L 324.71691 142.684339 
L 325.426383 142.334628 
L 326.135855 141.984917 
L 326.845327 141.635207 
L 327.5548 141.285496 
L 328.264272 140.935785 
L 328.973744 140.586074 
L 329.683217 140.236364 
" style="fill:none;stroke:#ff0000;stroke-dasharray:0.1036,0.0448;stroke-dashoffset:0;stroke-width:0.028;"/>
   </g>
   <g id="line2d_7">
    <path clip-path="url(#pae1cab988b)" d="M 183.354545 174.857727 
L 182.645073 174.508017 
L 181.935601 174.158306 
L 181.226128 173.808595 
L 180.516656 173.458884 
L 179.807184 173.109174 
L 179.097711 172.759463 
L 178.388239 172.409752 
L 177.678767 172.060041 
L 176.969294 171.710331 
L 176.259822 171.36062 
L 175.55035 171.010909 
L 174.840877 170.661198 
L 174.131405 170.311488 
L 173.421933 169.961777 
L 172.71246 169.612066 
L 172.002988 169.262355 
L 171.293516 168.912645 
L 170.584043 168.562934 
L 169.874571 168.213223 
L 169.165099 167.863512 
L 168.455626 167.513802 
L 167.746154 167.164091 
L 167.036682 166.81438 
L 166.327209 166.464669 
L 165.617737 166.114959 
L 164.908264 165.765248 
L 164.198792 165.415537 
L 163.48932 165.065826 
L 162.779847 164.716116 
L 162.070375 164.366405 
L 161.360903 164.016694 
L 160.65143 163.666983 
L 159.941958 163.317273 
L 159.232486 162.967562 
L 158.523013 162.617851 
L 157.813541 162.26814 
L 157.104069 161.91843 
L 156.394596 161.568719 
L 155.685124 161.219008 
L 154.975652 160.869298 
L 154.266179 160.519587 
L 153.556707 160.169876 
L 152.847235 159.820165 
L 152.137762 159.470455 
L 151.42829 159.120744 
L 150.718818 158.771033 
L 150.009345 158.421322 
L 149.299873 158.071612 
L 148.590401 157.721901 
L 147.880928 157.37219 
L 147.171456 157.022479 
L 146.461983 156.672769 
L 145.752511 156.323058 
L 145.043039 155.973347 
L 144.333566 155.623636 
L 143.624094 155.273926 
L 142.914622 154.924215 
L 142.205149 154.574504 
L 141.495677 154.224793 
L 140.786205 153.875083 
L 140.076732 153.525372 
L 139.36726 153.175661 
L 138.657788 152.82595 
L 137.948315 152.47624 
L 137.238843 152.126529 
L 136.529371 151.776818 
L 135.819898 151.427107 
L 135.110426 151.077397 
L 134.400954 150.727686 
L 133.691481 150.377975 
L 132.982009 150.028264 
L 132.272537 149.678554 
L 131.563064 149.328843 
L 130.853592 148.979132 
L 130.14412 148.629421 
L 129.434647 148.279711 
L 128.725175 147.93 
L 128.015702 147.580289 
L 127.30623 147.230579 
L 126.596758 146.880868 
L 125.887285 146.531157 
L 125.177813 146.181446 
L 124.468341 145.831736 
L 123.758868 145.482025 
L 123.049396 145.132314 
L 122.339924 144.782603 
L 121.630451 144.432893 
L 120.920979 144.083182 
L 120.211507 143.733471 
L 119.502034 143.38376 
L 118.792562 143.03405 
L 118.08309 142.684339 
L 117.373617 142.334628 
L 116.664145 141.984917 
L 115.954673 141.635207 
L 115.2452 141.285496 
L 114.535728 140.935785 
L 113.826256 140.586074 
L 113.116783 140.236364 
" style="fill:none;stroke:#ff0000;stroke-dasharray:0.1036,0.0448;stroke-dashoffset:0;stroke-width:0.028;"/>
   </g>
   <g id="line2d_8">
    <path clip-path="url(#pae1cab988b)" d="M 113.116783 140.236364 
L 329.683217 140.236364 
" style="fill:none;stroke:#ff0000;stroke-dasharray:0.1036,0.0448;stroke-dashoffset:0;stroke-width:0.028;"/>
   </g>
  </g>
 </g>
 <defs>
  <clipPath id="pae1cab988b">
   <rect height="217.44" width="334.8" x="54" y="34.56"/>
  </clipPath>
 </defs>
</svg>
