<?xml version="1.0" encoding="utf-8" standalone="no"?>
<!DOCTYPE svg PUBLIC "-//W3C//DTD SVG 1.1//EN"
  "http://www.w3.org/Graphics/SVG/1.1/DTD/svg11.dtd">
<!-- Created with matplotlib (https://matplotlib.org/) -->
<svg height="288pt" version="1.1" viewBox="0 0 432 288" width="432pt" xmlns="http://www.w3.org/2000/svg" xmlns:xlink="http://www.w3.org/1999/xlink">
 <metadata>
  <rdf:RDF xmlns:cc="http://creativecommons.org/ns#" xmlns:dc="http://purl.org/dc/elements/1.1/" xmlns:rdf="http://www.w3.org/1999/02/22-rdf-syntax-ns#">
   <cc:Work>
    <dc:type rdf:resource="http://purl.org/dc/dcmitype/StillImage"/>
    <dc:date>2024-07-11T17:17:54.362720</dc:date>
    <dc:format>image/svg+xml</dc:format>
    <dc:creator>
     <cc:Agent>
      <dc:title>Matplotlib v3.3.4, https://matplotlib.org/</dc:title>
     </cc:Agent>
    </dc:creator>
   </cc:Work>
  </rdf:RDF>
 </metadata>
 <defs>
  <style type="text/css">*{stroke-linecap:butt;stroke-linejoin:round;}</style>
 </defs>
 <g id="figure_1">
  <g id="patch_1">
   <path d="M 0 288 
L 432 288 
L 432 0 
L 0 0 
z
" style="fill:none;"/>
  </g>
  <g id="axes_1">
   <g id="line2d_1">
    <path clip-path="url(#p10f73ae151)" d="M 153.763636 227.825455 
L 69.218182 227.825455 
" style="fill:none;stroke:#ff0000;stroke-linecap:square;stroke-width:0.028;"/>
   </g>
   <g id="line2d_2">
    <path clip-path="url(#p10f73ae151)" d="M 289.036364 227.825455 
L 373.581818 227.825455 
" style="fill:none;stroke:#ff0000;stroke-linecap:square;stroke-width:0.028;"/>
   </g>
   <g id="line2d_3">
    <path clip-path="url(#p10f73ae151)" d="M 69.218182 227.825455 
L 69.218182 58.734545 
" style="fill:none;stroke:#ff0000;stroke-linecap:square;stroke-width:0.028;"/>
   </g>
   <g id="line2d_4">
    <path clip-path="url(#p10f73ae151)" d="M 373.581818 227.825455 
L 373.581818 58.734545 
" style="fill:none;stroke:#ff0000;stroke-linecap:square;stroke-width:0.028;"/>
   </g>
   <g id="line2d_5">
    <path clip-path="url(#p10f73ae151)" d="M 69.218182 58.734545 
L 373.581818 58.734545 
" style="fill:none;stroke:#ff0000;stroke-linecap:square;stroke-width:0.028;"/>
   </g>
   <g id="line2d_6">
    <path clip-path="url(#p10f73ae151)" d="M 289.036364 227.825455 
L 289.036364 226.629862 
L 289.036364 225.43427 
L 289.036364 224.238678 
L 289.036364 223.043085 
L 289.036364 221.847493 
L 289.036364 220.651901 
L 289.036364 219.456309 
L 289.036364 218.260716 
L 289.036364 217.065124 
L 289.036364 215.869532 
L 289.036364 214.673939 
L 289.036364 213.478347 
L 289.036364 212.282755 
L 289.036364 211.087163 
L 289.036364 209.89157 
L 289.036364 208.695978 
L 289.036364 207.500386 
L 289.036364 206.304793 
L 289.036364 205.109201 
L 289.036364 203.913609 
L 289.036364 202.718017 
L 289.036364 201.522424 
L 289.036364 200.326832 
L 289.036364 199.13124 
L 289.036364 197.935647 
L 289.036364 196.740055 
L 289.036364 195.544463 
L 289.036364 194.348871 
L 289.036364 193.153278 
L 289.036364 191.957686 
L 289.036364 190.762094 
L 289.036364 189.566501 
L 289.036364 188.370909 
L 289.036364 187.175317 
L 289.036364 185.979725 
L 289.036364 184.784132 
L 289.036364 183.58854 
L 289.036364 182.392948 
L 289.036364 181.197355 
L 289.036364 180.001763 
L 289.036364 178.806171 
L 289.036364 177.610579 
L 289.036364 176.414986 
L 289.036364 175.219394 
L 289.036364 174.023802 
L 289.036364 172.828209 
L 289.036364 171.632617 
L 289.036364 170.437025 
L 289.036364 169.241433 
L 289.036364 168.04584 
L 289.036364 166.850248 
L 289.036364 165.654656 
L 289.036364 164.459063 
L 289.036364 163.263471 
L 289.036364 162.067879 
L 289.036364 160.872287 
L 289.036364 159.676694 
L 289.036364 158.481102 
L 289.036364 157.28551 
L 289.036364 156.089917 
L 289.036364 154.894325 
L 289.036364 153.698733 
L 289.036364 152.50314 
L 289.036364 151.307548 
L 289.036364 150.111956 
L 289.036364 148.916364 
L 289.036364 147.720771 
L 289.036364 146.525179 
L 289.036364 145.329587 
L 289.036364 144.133994 
L 289.036364 142.938402 
L 289.036364 141.74281 
L 289.036364 140.547218 
L 289.036364 139.351625 
L 289.036364 138.156033 
L 289.036364 136.960441 
L 289.036364 135.764848 
L 289.036364 134.569256 
L 289.036364 133.373664 
L 289.036364 132.178072 
L 289.036364 130.982479 
L 289.036364 129.786887 
L 289.036364 128.591295 
L 289.036364 127.395702 
L 289.036364 126.20011 
L 289.036364 125.004518 
L 289.036364 123.808926 
L 289.036364 122.613333 
L 289.036364 121.417741 
L 289.036364 120.222149 
L 289.036364 119.026556 
L 289.036364 117.830964 
L 289.036364 116.635372 
L 289.036364 115.43978 
L 289.036364 114.244187 
L 289.036364 113.048595 
L 289.036364 111.853003 
L 289.036364 110.65741 
L 289.036364 109.461818 
" style="fill:none;stroke:#ff0000;stroke-dasharray:0.1036,0.0448;stroke-dashoffset:0;stroke-width:0.028;"/>
   </g>
   <g id="line2d_7">
    <path clip-path="url(#p10f73ae151)" d="M 153.763636 227.825455 
L 153.763636 226.629862 
L 153.763636 225.43427 
L 153.763636 224.238678 
L 153.763636 223.043085 
L 153.763636 221.847493 
L 153.763636 220.651901 
L 153.763636 219.456309 
L 153.763636 218.260716 
L 153.763636 217.065124 
L 153.763636 215.869532 
L 153.763636 214.673939 
L 153.763636 213.478347 
L 153.763636 212.282755 
L 153.763636 211.087163 
L 153.763636 209.89157 
L 153.763636 208.695978 
L 153.763636 207.500386 
L 153.763636 206.304793 
L 153.763636 205.109201 
L 153.763636 203.913609 
L 153.763636 202.718017 
L 153.763636 201.522424 
L 153.763636 200.326832 
L 153.763636 199.13124 
L 153.763636 197.935647 
L 153.763636 196.740055 
L 153.763636 195.544463 
L 153.763636 194.348871 
L 153.763636 193.153278 
L 153.763636 191.957686 
L 153.763636 190.762094 
L 153.763636 189.566501 
L 153.763636 188.370909 
L 153.763636 187.175317 
L 153.763636 185.979725 
L 153.763636 184.784132 
L 153.763636 183.58854 
L 153.763636 182.392948 
L 153.763636 181.197355 
L 153.763636 180.001763 
L 153.763636 178.806171 
L 153.763636 177.610579 
L 153.763636 176.414986 
L 153.763636 175.219394 
L 153.763636 174.023802 
L 153.763636 172.828209 
L 153.763636 171.632617 
L 153.763636 170.437025 
L 153.763636 169.241433 
L 153.763636 168.04584 
L 153.763636 166.850248 
L 153.763636 165.654656 
L 153.763636 164.459063 
L 153.763636 163.263471 
L 153.763636 162.067879 
L 153.763636 160.872287 
L 153.763636 159.676694 
L 153.763636 158.481102 
L 153.763636 157.28551 
L 153.763636 156.089917 
L 153.763636 154.894325 
L 153.763636 153.698733 
L 153.763636 152.50314 
L 153.763636 151.307548 
L 153.763636 150.111956 
L 153.763636 148.916364 
L 153.763636 147.720771 
L 153.763636 146.525179 
L 153.763636 145.329587 
L 153.763636 144.133994 
L 153.763636 142.938402 
L 153.763636 141.74281 
L 153.763636 140.547218 
L 153.763636 139.351625 
L 153.763636 138.156033 
L 153.763636 136.960441 
L 153.763636 135.764848 
L 153.763636 134.569256 
L 153.763636 133.373664 
L 153.763636 132.178072 
L 153.763636 130.982479 
L 153.763636 129.786887 
L 153.763636 128.591295 
L 153.763636 127.395702 
L 153.763636 126.20011 
L 153.763636 125.004518 
L 153.763636 123.808926 
L 153.763636 122.613333 
L 153.763636 121.417741 
L 153.763636 120.222149 
L 153.763636 119.026556 
L 153.763636 117.830964 
L 153.763636 116.635372 
L 153.763636 115.43978 
L 153.763636 114.244187 
L 153.763636 113.048595 
L 153.763636 111.853003 
L 153.763636 110.65741 
L 153.763636 109.461818 
" style="fill:none;stroke:#ff0000;stroke-dasharray:0.1036,0.0448;stroke-dashoffset:0;stroke-width:0.028;"/>
   </g>
   <g id="line2d_8">
    <path clip-path="url(#p10f73ae151)" d="M 153.763636 109.461818 
L 289.036364 109.461818 
" style="fill:none;stroke:#ff0000;stroke-dasharray:0.1036,0.0448;stroke-dashoffset:0;stroke-width:0.028;"/>
   </g>
  </g>
 </g>
 <defs>
  <clipPath id="p10f73ae151">
   <rect height="217.44" width="334.8" x="54" y="34.56"/>
  </clipPath>
 </defs>
</svg>
