<?xml version="1.0" encoding="utf-8" standalone="no"?>
<!DOCTYPE svg PUBLIC "-//W3C//DTD SVG 1.1//EN"
  "http://www.w3.org/Graphics/SVG/1.1/DTD/svg11.dtd">
<!-- Created with matplotlib (https://matplotlib.org/) -->
<svg height="288pt" version="1.1" viewBox="0 0 432 288" width="432pt" xmlns="http://www.w3.org/2000/svg" xmlns:xlink="http://www.w3.org/1999/xlink">
 <metadata>
  <rdf:RDF xmlns:cc="http://creativecommons.org/ns#" xmlns:dc="http://purl.org/dc/elements/1.1/" xmlns:rdf="http://www.w3.org/1999/02/22-rdf-syntax-ns#">
   <cc:Work>
    <dc:type rdf:resource="http://purl.org/dc/dcmitype/StillImage"/>
    <dc:date>2024-07-11T17:17:54.130609</dc:date>
    <dc:format>image/svg+xml</dc:format>
    <dc:creator>
     <cc:Agent>
      <dc:title>Matplotlib v3.3.4, https://matplotlib.org/</dc:title>
     </cc:Agent>
    </dc:creator>
   </cc:Work>
  </rdf:RDF>
 </metadata>
 <defs>
  <style type="text/css">*{stroke-linecap:butt;stroke-linejoin:round;}</style>
 </defs>
 <g id="figure_1">
  <g id="patch_1">
   <path d="M 0 288 
L 432 288 
L 432 0 
L 0 0 
z
" style="fill:none;"/>
  </g>
  <g id="axes_1">
   <g id="line2d_1">
    <path clip-path="url(#p76c7e7cac1)" d="M 192.412987 164.295584 
L 69.218182 164.295584 
" style="fill:none;stroke:#ff0000;stroke-linecap:square;stroke-width:0.028;"/>
   </g>
   <g id="line2d_2">
    <path clip-path="url(#p76c7e7cac1)" d="M 250.387013 164.295584 
L 373.581818 164.295584 
" style="fill:none;stroke:#ff0000;stroke-linecap:square;stroke-width:0.028;"/>
   </g>
   <g id="line2d_3">
    <path clip-path="url(#p76c7e7cac1)" d="M 69.218182 164.295584 
L 69.218182 122.264416 
" style="fill:none;stroke:#ff0000;stroke-linecap:square;stroke-width:0.028;"/>
   </g>
   <g id="line2d_4">
    <path clip-path="url(#p76c7e7cac1)" d="M 373.581818 164.295584 
L 373.581818 122.264416 
" style="fill:none;stroke:#ff0000;stroke-linecap:square;stroke-width:0.028;"/>
   </g>
   <g id="line2d_5">
    <path clip-path="url(#p76c7e7cac1)" d="M 69.218182 122.264416 
L 373.581818 122.264416 
" style="fill:none;stroke:#ff0000;stroke-linecap:square;stroke-width:0.028;"/>
   </g>
   <g id="line2d_6">
    <path clip-path="url(#p76c7e7cac1)" d="M 250.387013 164.295584 
L 251.265407 164.090626 
L 252.143802 163.885667 
L 253.022196 163.680708 
L 253.90059 163.47575 
L 254.778985 163.270791 
L 255.657379 163.065832 
L 256.535773 162.860874 
L 257.414168 162.655915 
L 258.292562 162.450956 
L 259.170956 162.245998 
L 260.049351 162.041039 
L 260.927745 161.83608 
L 261.806139 161.631122 
L 262.684534 161.426163 
L 263.562928 161.221204 
L 264.441322 161.016246 
L 265.319717 160.811287 
L 266.198111 160.606328 
L 267.076505 160.40137 
L 267.9549 160.196411 
L 268.833294 159.991452 
L 269.711688 159.786494 
L 270.590083 159.581535 
L 271.468477 159.376576 
L 272.346871 159.171617 
L 273.225266 158.966659 
L 274.10366 158.7617 
L 274.982054 158.556741 
L 275.860449 158.351783 
L 276.738843 158.146824 
L 277.617237 157.941865 
L 278.495632 157.736907 
L 279.374026 157.531948 
L 280.25242 157.326989 
L 281.130815 157.122031 
L 282.009209 156.917072 
L 282.887603 156.712113 
L 283.765998 156.507155 
L 284.644392 156.302196 
L 285.522786 156.097237 
L 286.401181 155.892279 
L 287.279575 155.68732 
L 288.157969 155.482361 
L 289.036364 155.277403 
L 289.914758 155.072444 
L 290.793152 154.867485 
L 291.671547 154.662527 
L 292.549941 154.457568 
L 293.428335 154.252609 
L 294.30673 154.047651 
L 295.185124 153.842692 
L 296.063518 153.637733 
L 296.941913 153.432774 
L 297.820307 153.227816 
L 298.698701 153.022857 
L 299.577096 152.817898 
L 300.45549 152.61294 
L 301.333884 152.407981 
L 302.212279 152.203022 
L 303.090673 151.998064 
L 303.969067 151.793105 
L 304.847462 151.588146 
L 305.725856 151.383188 
L 306.60425 151.178229 
L 307.482645 150.97327 
L 308.361039 150.768312 
L 309.239433 150.563353 
L 310.117828 150.358394 
L 310.996222 150.153436 
L 311.874616 149.948477 
L 312.753011 149.743518 
L 313.631405 149.53856 
L 314.509799 149.333601 
L 315.388194 149.128642 
L 316.266588 148.923684 
L 317.144982 148.718725 
L 318.023377 148.513766 
L 318.901771 148.308808 
L 319.780165 148.103849 
L 320.65856 147.89889 
L 321.536954 147.693932 
L 322.415348 147.488973 
L 323.293743 147.284014 
L 324.172137 147.079055 
L 325.050531 146.874097 
L 325.928926 146.669138 
L 326.80732 146.464179 
L 327.685714 146.259221 
L 328.564109 146.054262 
L 329.442503 145.849303 
L 330.320897 145.644345 
L 331.199292 145.439386 
L 332.077686 145.234427 
L 332.95608 145.029469 
L 333.834475 144.82451 
L 334.712869 144.619551 
L 335.591263 144.414593 
L 336.469658 144.209634 
L 337.348052 144.004675 
" style="fill:none;stroke:#ff0000;stroke-dasharray:0.1036,0.0448;stroke-dashoffset:0;stroke-width:0.028;"/>
   </g>
   <g id="line2d_7">
    <path clip-path="url(#p76c7e7cac1)" d="M 192.412987 164.295584 
L 191.534593 164.090626 
L 190.656198 163.885667 
L 189.777804 163.680708 
L 188.89941 163.47575 
L 188.021015 163.270791 
L 187.142621 163.065832 
L 186.264227 162.860874 
L 185.385832 162.655915 
L 184.507438 162.450956 
L 183.629044 162.245998 
L 182.750649 162.041039 
L 181.872255 161.83608 
L 180.993861 161.631122 
L 180.115466 161.426163 
L 179.237072 161.221204 
L 178.358678 161.016246 
L 177.480283 160.811287 
L 176.601889 160.606328 
L 175.723495 160.40137 
L 174.8451 160.196411 
L 173.966706 159.991452 
L 173.088312 159.786494 
L 172.209917 159.581535 
L 171.331523 159.376576 
L 170.453129 159.171617 
L 169.574734 158.966659 
L 168.69634 158.7617 
L 167.817946 158.556741 
L 166.939551 158.351783 
L 166.061157 158.146824 
L 165.182763 157.941865 
L 164.304368 157.736907 
L 163.425974 157.531948 
L 162.54758 157.326989 
L 161.669185 157.122031 
L 160.790791 156.917072 
L 159.912397 156.712113 
L 159.034002 156.507155 
L 158.155608 156.302196 
L 157.277214 156.097237 
L 156.398819 155.892279 
L 155.520425 155.68732 
L 154.642031 155.482361 
L 153.763636 155.277403 
L 152.885242 155.072444 
L 152.006848 154.867485 
L 151.128453 154.662527 
L 150.250059 154.457568 
L 149.371665 154.252609 
L 148.49327 154.047651 
L 147.614876 153.842692 
L 146.736482 153.637733 
L 145.858087 153.432774 
L 144.979693 153.227816 
L 144.101299 153.022857 
L 143.222904 152.817898 
L 142.34451 152.61294 
L 141.466116 152.407981 
L 140.587721 152.203022 
L 139.709327 151.998064 
L 138.830933 151.793105 
L 137.952538 151.588146 
L 137.074144 151.383188 
L 136.19575 151.178229 
L 135.317355 150.97327 
L 134.438961 150.768312 
L 133.560567 150.563353 
L 132.682172 150.358394 
L 131.803778 150.153436 
L 130.925384 149.948477 
L 130.046989 149.743518 
L 129.168595 149.53856 
L 128.290201 149.333601 
L 127.411806 149.128642 
L 126.533412 148.923684 
L 125.655018 148.718725 
L 124.776623 148.513766 
L 123.898229 148.308808 
L 123.019835 148.103849 
L 122.14144 147.89889 
L 121.263046 147.693932 
L 120.384652 147.488973 
L 119.506257 147.284014 
L 118.627863 147.079055 
L 117.749469 146.874097 
L 116.871074 146.669138 
L 115.99268 146.464179 
L 115.114286 146.259221 
L 114.235891 146.054262 
L 113.357497 145.849303 
L 112.479103 145.644345 
L 111.600708 145.439386 
L 110.722314 145.234427 
L 109.84392 145.029469 
L 108.965525 144.82451 
L 108.087131 144.619551 
L 107.208737 144.414593 
L 106.330342 144.209634 
L 105.451948 144.004675 
" style="fill:none;stroke:#ff0000;stroke-dasharray:0.1036,0.0448;stroke-dashoffset:0;stroke-width:0.028;"/>
   </g>
   <g id="line2d_8">
    <path clip-path="url(#p76c7e7cac1)" d="M 105.451948 144.004675 
L 337.348052 144.004675 
" style="fill:none;stroke:#ff0000;stroke-dasharray:0.1036,0.0448;stroke-dashoffset:0;stroke-width:0.028;"/>
   </g>
  </g>
 </g>
 <defs>
  <clipPath id="p76c7e7cac1">
   <rect height="217.44" width="334.8" x="54" y="34.56"/>
  </clipPath>
 </defs>
</svg>
