<?xml version="1.0" encoding="utf-8" standalone="no"?>
<!DOCTYPE svg PUBLIC "-//W3C//DTD SVG 1.1//EN"
  "http://www.w3.org/Graphics/SVG/1.1/DTD/svg11.dtd">
<!-- Created with matplotlib (https://matplotlib.org/) -->
<svg height="288pt" version="1.1" viewBox="0 0 432 288" width="432pt" xmlns="http://www.w3.org/2000/svg" xmlns:xlink="http://www.w3.org/1999/xlink">
 <metadata>
  <rdf:RDF xmlns:cc="http://creativecommons.org/ns#" xmlns:dc="http://purl.org/dc/elements/1.1/" xmlns:rdf="http://www.w3.org/1999/02/22-rdf-syntax-ns#">
   <cc:Work>
    <dc:type rdf:resource="http://purl.org/dc/dcmitype/StillImage"/>
    <dc:date>2024-07-11T17:16:31.844793</dc:date>
    <dc:format>image/svg+xml</dc:format>
    <dc:creator>
     <cc:Agent>
      <dc:title>Matplotlib v3.3.4, https://matplotlib.org/</dc:title>
     </cc:Agent>
    </dc:creator>
   </cc:Work>
  </rdf:RDF>
 </metadata>
 <defs>
  <style type="text/css">*{stroke-linecap:butt;stroke-linejoin:round;}</style>
 </defs>
 <g id="figure_1">
  <g id="patch_1">
   <path d="M 0 288 
L 432 288 
L 432 0 
L 0 0 
z
" style="fill:none;"/>
  </g>
  <g id="axes_1">
   <g id="line2d_1">
    <path clip-path="url(#p28b4958e05)" d="M 159.627273 242.116364 
L 113.297727 242.116364 
" style="fill:none;stroke:#ff0000;stroke-linecap:square;stroke-width:0.028;"/>
   </g>
   <g id="line2d_2">
    <path clip-path="url(#p28b4958e05)" d="M 283.172727 242.116364 
L 329.502273 242.116364 
" style="fill:none;stroke:#ff0000;stroke-linecap:square;stroke-width:0.028;"/>
   </g>
   <g id="line2d_3">
    <path clip-path="url(#p28b4958e05)" d="M 113.297727 242.116364 
L 113.297727 44.443636 
" style="fill:none;stroke:#ff0000;stroke-linecap:square;stroke-width:0.028;"/>
   </g>
   <g id="line2d_4">
    <path clip-path="url(#p28b4958e05)" d="M 329.502273 242.116364 
L 329.502273 44.443636 
" style="fill:none;stroke:#ff0000;stroke-linecap:square;stroke-width:0.028;"/>
   </g>
   <g id="line2d_5">
    <path clip-path="url(#p28b4958e05)" d="M 113.297727 44.443636 
L 329.502273 44.443636 
" style="fill:none;stroke:#ff0000;stroke-linecap:square;stroke-width:0.028;"/>
   </g>
   <g id="line2d_6">
    <path clip-path="url(#p28b4958e05)" d="M 283.172727 242.116364 
L 282.816175 240.587645 
L 282.459622 239.058926 
L 282.10307 237.530207 
L 281.746517 236.001488 
L 281.389965 234.472769 
L 281.033412 232.94405 
L 280.67686 231.415331 
L 280.320307 229.886612 
L 279.963754 228.357893 
L 279.607202 226.829174 
L 279.250649 225.300455 
L 278.894097 223.771736 
L 278.537544 222.243017 
L 278.180992 220.714298 
L 277.824439 219.185579 
L 277.467887 217.65686 
L 277.111334 216.12814 
L 276.754782 214.599421 
L 276.398229 213.070702 
L 276.041677 211.541983 
L 275.685124 210.013264 
L 275.328571 208.484545 
L 274.972019 206.955826 
L 274.615466 205.427107 
L 274.258914 203.898388 
L 273.902361 202.369669 
L 273.545809 200.84095 
L 273.189256 199.312231 
L 272.832704 197.783512 
L 272.476151 196.254793 
L 272.119599 194.726074 
L 271.763046 193.197355 
L 271.406494 191.668636 
L 271.049941 190.139917 
L 270.693388 188.611198 
L 270.336836 187.082479 
L 269.980283 185.55376 
L 269.623731 184.025041 
L 269.267178 182.496322 
L 268.910626 180.967603 
L 268.554073 179.438884 
L 268.197521 177.910165 
L 267.840968 176.381446 
L 267.484416 174.852727 
L 267.127863 173.324008 
L 266.771311 171.795289 
L 266.414758 170.26657 
L 266.058205 168.737851 
L 265.701653 167.209132 
L 265.3451 165.680413 
L 264.988548 164.151694 
L 264.631995 162.622975 
L 264.275443 161.094256 
L 263.91889 159.565537 
L 263.562338 158.036818 
L 263.205785 156.508099 
L 262.849233 154.97938 
L 262.49268 153.450661 
L 262.136128 151.921942 
L 261.779575 150.393223 
L 261.423022 148.864504 
L 261.06647 147.335785 
L 260.709917 145.807066 
L 260.353365 144.278347 
L 259.996812 142.749628 
L 259.64026 141.220909 
L 259.283707 139.69219 
L 258.927155 138.163471 
L 258.570602 136.634752 
L 258.21405 135.106033 
L 257.857497 133.577314 
L 257.500945 132.048595 
L 257.144392 130.519876 
L 256.787839 128.991157 
L 256.431287 127.462438 
L 256.074734 125.933719 
L 255.718182 124.405 
L 255.361629 122.876281 
L 255.005077 121.347562 
L 254.648524 119.818843 
L 254.291972 118.290124 
L 253.935419 116.761405 
L 253.578867 115.232686 
L 253.222314 113.703967 
L 252.865762 112.175248 
L 252.509209 110.646529 
L 252.152656 109.11781 
L 251.796104 107.589091 
L 251.439551 106.060372 
L 251.082999 104.531653 
L 250.726446 103.002934 
L 250.369894 101.474215 
L 250.013341 99.945496 
L 249.656789 98.416777 
L 249.300236 96.888058 
L 248.943684 95.359339 
L 248.587131 93.83062 
L 248.230579 92.301901 
L 247.874026 90.773182 
" style="fill:none;stroke:#ff0000;stroke-dasharray:0.1036,0.0448;stroke-dashoffset:0;stroke-width:0.028;"/>
   </g>
   <g id="line2d_7">
    <path clip-path="url(#p28b4958e05)" d="M 159.627273 242.116364 
L 159.983825 240.587645 
L 160.340378 239.058926 
L 160.69693 237.530207 
L 161.053483 236.001488 
L 161.410035 234.472769 
L 161.766588 232.94405 
L 162.12314 231.415331 
L 162.479693 229.886612 
L 162.836246 228.357893 
L 163.192798 226.829174 
L 163.549351 225.300455 
L 163.905903 223.771736 
L 164.262456 222.243017 
L 164.619008 220.714298 
L 164.975561 219.185579 
L 165.332113 217.65686 
L 165.688666 216.12814 
L 166.045218 214.599421 
L 166.401771 213.070702 
L 166.758323 211.541983 
L 167.114876 210.013264 
L 167.471429 208.484545 
L 167.827981 206.955826 
L 168.184534 205.427107 
L 168.541086 203.898388 
L 168.897639 202.369669 
L 169.254191 200.84095 
L 169.610744 199.312231 
L 169.967296 197.783512 
L 170.323849 196.254793 
L 170.680401 194.726074 
L 171.036954 193.197355 
L 171.393506 191.668636 
L 171.750059 190.139917 
L 172.106612 188.611198 
L 172.463164 187.082479 
L 172.819717 185.55376 
L 173.176269 184.025041 
L 173.532822 182.496322 
L 173.889374 180.967603 
L 174.245927 179.438884 
L 174.602479 177.910165 
L 174.959032 176.381446 
L 175.315584 174.852727 
L 175.672137 173.324008 
L 176.028689 171.795289 
L 176.385242 170.26657 
L 176.741795 168.737851 
L 177.098347 167.209132 
L 177.4549 165.680413 
L 177.811452 164.151694 
L 178.168005 162.622975 
L 178.524557 161.094256 
L 178.88111 159.565537 
L 179.237662 158.036818 
L 179.594215 156.508099 
L 179.950767 154.97938 
L 180.30732 153.450661 
L 180.663872 151.921942 
L 181.020425 150.393223 
L 181.376978 148.864504 
L 181.73353 147.335785 
L 182.090083 145.807066 
L 182.446635 144.278347 
L 182.803188 142.749628 
L 183.15974 141.220909 
L 183.516293 139.69219 
L 183.872845 138.163471 
L 184.229398 136.634752 
L 184.58595 135.106033 
L 184.942503 133.577314 
L 185.299055 132.048595 
L 185.655608 130.519876 
L 186.012161 128.991157 
L 186.368713 127.462438 
L 186.725266 125.933719 
L 187.081818 124.405 
L 187.438371 122.876281 
L 187.794923 121.347562 
L 188.151476 119.818843 
L 188.508028 118.290124 
L 188.864581 116.761405 
L 189.221133 115.232686 
L 189.577686 113.703967 
L 189.934238 112.175248 
L 190.290791 110.646529 
L 190.647344 109.11781 
L 191.003896 107.589091 
L 191.360449 106.060372 
L 191.717001 104.531653 
L 192.073554 103.002934 
L 192.430106 101.474215 
L 192.786659 99.945496 
L 193.143211 98.416777 
L 193.499764 96.888058 
L 193.856316 95.359339 
L 194.212869 93.83062 
L 194.569421 92.301901 
L 194.925974 90.773182 
" style="fill:none;stroke:#ff0000;stroke-dasharray:0.1036,0.0448;stroke-dashoffset:0;stroke-width:0.028;"/>
   </g>
   <g id="line2d_8">
    <path clip-path="url(#p28b4958e05)" d="M 194.925974 90.773182 
L 247.874026 90.773182 
" style="fill:none;stroke:#ff0000;stroke-dasharray:0.1036,0.0448;stroke-dashoffset:0;stroke-width:0.028;"/>
   </g>
  </g>
 </g>
 <defs>
  <clipPath id="p28b4958e05">
   <rect height="217.44" width="334.8" x="54" y="34.56"/>
  </clipPath>
 </defs>
</svg>
