<?xml version="1.0" encoding="utf-8" standalone="no"?>
<!DOCTYPE svg PUBLIC "-//W3C//DTD SVG 1.1//EN"
  "http://www.w3.org/Graphics/SVG/1.1/DTD/svg11.dtd">
<!-- Created with matplotlib (https://matplotlib.org/) -->
<svg height="288pt" version="1.1" viewBox="0 0 432 288" width="432pt" xmlns="http://www.w3.org/2000/svg" xmlns:xlink="http://www.w3.org/1999/xlink">
 <metadata>
  <rdf:RDF xmlns:cc="http://creativecommons.org/ns#" xmlns:dc="http://purl.org/dc/elements/1.1/" xmlns:rdf="http://www.w3.org/1999/02/22-rdf-syntax-ns#">
   <cc:Work>
    <dc:type rdf:resource="http://purl.org/dc/dcmitype/StillImage"/>
    <dc:date>2024-07-11T17:16:31.758279</dc:date>
    <dc:format>image/svg+xml</dc:format>
    <dc:creator>
     <cc:Agent>
      <dc:title>Matplotlib v3.3.4, https://matplotlib.org/</dc:title>
     </cc:Agent>
    </dc:creator>
   </cc:Work>
  </rdf:RDF>
 </metadata>
 <defs>
  <style type="text/css">*{stroke-linecap:butt;stroke-linejoin:round;}</style>
 </defs>
 <g id="figure_1">
  <g id="patch_1">
   <path d="M 0 288 
L 432 288 
L 432 0 
L 0 0 
z
" style="fill:none;"/>
  </g>
  <g id="axes_1">
   <g id="line2d_1">
    <path clip-path="url(#p235c741459)" d="M 170.714685 242.116364 
L 158.043357 242.116364 
" style="fill:none;stroke:#ff0000;stroke-linecap:square;stroke-width:0.028;"/>
   </g>
   <g id="line2d_2">
    <path clip-path="url(#p235c741459)" d="M 272.085315 242.116364 
L 284.756643 242.116364 
" style="fill:none;stroke:#ff0000;stroke-linecap:square;stroke-width:0.028;"/>
   </g>
   <g id="line2d_3">
    <path clip-path="url(#p235c741459)" d="M 158.043357 242.116364 
L 158.043357 44.443636 
" style="fill:none;stroke:#ff0000;stroke-linecap:square;stroke-width:0.028;"/>
   </g>
   <g id="line2d_4">
    <path clip-path="url(#p235c741459)" d="M 284.756643 242.116364 
L 284.756643 44.443636 
" style="fill:none;stroke:#ff0000;stroke-linecap:square;stroke-width:0.028;"/>
   </g>
   <g id="line2d_5">
    <path clip-path="url(#p235c741459)" d="M 158.043357 44.443636 
L 284.756643 44.443636 
" style="fill:none;stroke:#ff0000;stroke-linecap:square;stroke-width:0.028;"/>
   </g>
   <g id="line2d_6">
    <path clip-path="url(#p235c741459)" d="M 272.085315 242.116364 
L 271.630228 240.503649 
L 271.175141 238.890935 
L 270.720054 237.27822 
L 270.264967 235.665505 
L 269.80988 234.052791 
L 269.354793 232.440076 
L 268.899706 230.827362 
L 268.444619 229.214647 
L 267.989532 227.601933 
L 267.534445 225.989218 
L 267.079358 224.376503 
L 266.624271 222.763789 
L 266.169184 221.151074 
L 265.714097 219.53836 
L 265.25901 217.925645 
L 264.803923 216.312931 
L 264.348836 214.700216 
L 263.893749 213.087502 
L 263.438662 211.474787 
L 262.983575 209.862072 
L 262.528488 208.249358 
L 262.073401 206.636643 
L 261.618314 205.023929 
L 261.163227 203.411214 
L 260.70814 201.7985 
L 260.253053 200.185785 
L 259.797966 198.573071 
L 259.342879 196.960356 
L 258.887792 195.347641 
L 258.432705 193.734927 
L 257.977618 192.122212 
L 257.522531 190.509498 
L 257.067444 188.896783 
L 256.612357 187.284069 
L 256.15727 185.671354 
L 255.702183 184.05864 
L 255.247096 182.445925 
L 254.792009 180.83321 
L 254.336922 179.220496 
L 253.881835 177.607781 
L 253.426748 175.995067 
L 252.971661 174.382352 
L 252.516574 172.769638 
L 252.061487 171.156923 
L 251.6064 169.544209 
L 251.151313 167.931494 
L 250.696226 166.318779 
L 250.241139 164.706065 
L 249.786052 163.09335 
L 249.330965 161.480636 
L 248.875878 159.867921 
L 248.420791 158.255207 
L 247.965704 156.642492 
L 247.510617 155.029777 
L 247.05553 153.417063 
L 246.600443 151.804348 
L 246.145356 150.191634 
L 245.690269 148.578919 
L 245.235182 146.966205 
L 244.780095 145.35349 
L 244.325008 143.740776 
L 243.869921 142.128061 
L 243.414834 140.515346 
L 242.959747 138.902632 
L 242.50466 137.289917 
L 242.049573 135.677203 
L 241.594486 134.064488 
L 241.139399 132.451774 
L 240.684312 130.839059 
L 240.229225 129.226345 
L 239.774138 127.61363 
L 239.319051 126.000915 
L 238.863964 124.388201 
L 238.408877 122.775486 
L 237.95379 121.162772 
L 237.498703 119.550057 
L 237.043616 117.937343 
L 236.588529 116.324628 
L 236.133442 114.711914 
L 235.678355 113.099199 
L 235.223268 111.486484 
L 234.768181 109.87377 
L 234.313094 108.261055 
L 233.858007 106.648341 
L 233.40292 105.035626 
L 232.947833 103.422912 
L 232.492746 101.810197 
L 232.037659 100.197483 
L 231.582572 98.584768 
L 231.127485 96.972053 
L 230.672398 95.359339 
L 230.217311 93.746624 
L 229.762224 92.13391 
L 229.307137 90.521195 
L 228.85205 88.908481 
L 228.396963 87.295766 
L 227.941876 85.683051 
L 227.486789 84.070337 
L 227.031702 82.457622 
" style="fill:none;stroke:#ff0000;stroke-dasharray:0.1036,0.0448;stroke-dashoffset:0;stroke-width:0.028;"/>
   </g>
   <g id="line2d_7">
    <path clip-path="url(#p235c741459)" d="M 170.714685 242.116364 
L 171.169772 240.503649 
L 171.624859 238.890935 
L 172.079946 237.27822 
L 172.535033 235.665505 
L 172.99012 234.052791 
L 173.445207 232.440076 
L 173.900294 230.827362 
L 174.355381 229.214647 
L 174.810468 227.601933 
L 175.265555 225.989218 
L 175.720642 224.376503 
L 176.175729 222.763789 
L 176.630816 221.151074 
L 177.085903 219.53836 
L 177.54099 217.925645 
L 177.996077 216.312931 
L 178.451164 214.700216 
L 178.906251 213.087502 
L 179.361338 211.474787 
L 179.816425 209.862072 
L 180.271512 208.249358 
L 180.726599 206.636643 
L 181.181686 205.023929 
L 181.636773 203.411214 
L 182.09186 201.7985 
L 182.546947 200.185785 
L 183.002034 198.573071 
L 183.457121 196.960356 
L 183.912208 195.347641 
L 184.367295 193.734927 
L 184.822382 192.122212 
L 185.277469 190.509498 
L 185.732556 188.896783 
L 186.187643 187.284069 
L 186.64273 185.671354 
L 187.097817 184.05864 
L 187.552904 182.445925 
L 188.007991 180.83321 
L 188.463078 179.220496 
L 188.918165 177.607781 
L 189.373252 175.995067 
L 189.828339 174.382352 
L 190.283426 172.769638 
L 190.738513 171.156923 
L 191.1936 169.544209 
L 191.648687 167.931494 
L 192.103774 166.318779 
L 192.558861 164.706065 
L 193.013948 163.09335 
L 193.469035 161.480636 
L 193.924122 159.867921 
L 194.379209 158.255207 
L 194.834296 156.642492 
L 195.289383 155.029777 
L 195.74447 153.417063 
L 196.199557 151.804348 
L 196.654644 150.191634 
L 197.109731 148.578919 
L 197.564818 146.966205 
L 198.019905 145.35349 
L 198.474992 143.740776 
L 198.930079 142.128061 
L 199.385166 140.515346 
L 199.840253 138.902632 
L 200.29534 137.289917 
L 200.750427 135.677203 
L 201.205514 134.064488 
L 201.660601 132.451774 
L 202.115688 130.839059 
L 202.570775 129.226345 
L 203.025862 127.61363 
L 203.480949 126.000915 
L 203.936036 124.388201 
L 204.391123 122.775486 
L 204.84621 121.162772 
L 205.301297 119.550057 
L 205.756384 117.937343 
L 206.211471 116.324628 
L 206.666558 114.711914 
L 207.121645 113.099199 
L 207.576732 111.486484 
L 208.031819 109.87377 
L 208.486906 108.261055 
L 208.941993 106.648341 
L 209.39708 105.035626 
L 209.852167 103.422912 
L 210.307254 101.810197 
L 210.762341 100.197483 
L 211.217428 98.584768 
L 211.672515 96.972053 
L 212.127602 95.359339 
L 212.582689 93.746624 
L 213.037776 92.13391 
L 213.492863 90.521195 
L 213.94795 88.908481 
L 214.403037 87.295766 
L 214.858124 85.683051 
L 215.313211 84.070337 
L 215.768298 82.457622 
" style="fill:none;stroke:#ff0000;stroke-dasharray:0.1036,0.0448;stroke-dashoffset:0;stroke-width:0.028;"/>
   </g>
   <g id="line2d_8">
    <path clip-path="url(#p235c741459)" d="M 215.768298 82.457622 
L 227.031702 82.457622 
" style="fill:none;stroke:#ff0000;stroke-dasharray:0.1036,0.0448;stroke-dashoffset:0;stroke-width:0.028;"/>
   </g>
  </g>
 </g>
 <defs>
  <clipPath id="p235c741459">
   <rect height="217.44" width="334.8" x="54" y="34.56"/>
  </clipPath>
 </defs>
</svg>
