<?xml version="1.0" encoding="utf-8" standalone="no"?>
<!DOCTYPE svg PUBLIC "-//W3C//DTD SVG 1.1//EN"
  "http://www.w3.org/Graphics/SVG/1.1/DTD/svg11.dtd">
<!-- Created with matplotlib (https://matplotlib.org/) -->
<svg height="288pt" version="1.1" viewBox="0 0 432 288" width="432pt" xmlns="http://www.w3.org/2000/svg" xmlns:xlink="http://www.w3.org/1999/xlink">
 <metadata>
  <rdf:RDF xmlns:cc="http://creativecommons.org/ns#" xmlns:dc="http://purl.org/dc/elements/1.1/" xmlns:rdf="http://www.w3.org/1999/02/22-rdf-syntax-ns#">
   <cc:Work>
    <dc:type rdf:resource="http://purl.org/dc/dcmitype/StillImage"/>
    <dc:date>2024-07-11T17:17:54.219016</dc:date>
    <dc:format>image/svg+xml</dc:format>
    <dc:creator>
     <cc:Agent>
      <dc:title>Matplotlib v3.3.4, https://matplotlib.org/</dc:title>
     </cc:Agent>
    </dc:creator>
   </cc:Work>
  </rdf:RDF>
 </metadata>
 <defs>
  <style type="text/css">*{stroke-linecap:butt;stroke-linejoin:round;}</style>
 </defs>
 <g id="figure_1">
  <g id="patch_1">
   <path d="M 0 288 
L 432 288 
L 432 0 
L 0 0 
z
" style="fill:none;"/>
  </g>
  <g id="axes_1">
   <g id="line2d_1">
    <path clip-path="url(#p3e2761782d)" d="M 174.574825 187.061538 
L 69.218182 187.061538 
" style="fill:none;stroke:#ff0000;stroke-linecap:square;stroke-width:0.028;"/>
   </g>
   <g id="line2d_2">
    <path clip-path="url(#p3e2761782d)" d="M 268.225175 187.061538 
L 373.581818 187.061538 
" style="fill:none;stroke:#ff0000;stroke-linecap:square;stroke-width:0.028;"/>
   </g>
   <g id="line2d_3">
    <path clip-path="url(#p3e2761782d)" d="M 69.218182 187.061538 
L 69.218182 99.498462 
" style="fill:none;stroke:#ff0000;stroke-linecap:square;stroke-width:0.028;"/>
   </g>
   <g id="line2d_4">
    <path clip-path="url(#p3e2761782d)" d="M 373.581818 187.061538 
L 373.581818 99.498462 
" style="fill:none;stroke:#ff0000;stroke-linecap:square;stroke-width:0.028;"/>
   </g>
   <g id="line2d_5">
    <path clip-path="url(#p3e2761782d)" d="M 69.218182 99.498462 
L 373.581818 99.498462 
" style="fill:none;stroke:#ff0000;stroke-linecap:square;stroke-width:0.028;"/>
   </g>
   <g id="line2d_6">
    <path clip-path="url(#p3e2761782d)" d="M 268.225175 187.061538 
L 268.757279 186.531799 
L 269.289383 186.00206 
L 269.821488 185.47232 
L 270.353592 184.942581 
L 270.885696 184.412842 
L 271.4178 183.883102 
L 271.949905 183.353363 
L 272.482009 182.823624 
L 273.014113 182.293884 
L 273.546217 181.764145 
L 274.078322 181.234406 
L 274.610426 180.704666 
L 275.14253 180.174927 
L 275.674634 179.645188 
L 276.206739 179.115448 
L 276.738843 178.585709 
L 277.270947 178.055969 
L 277.803051 177.52623 
L 278.335156 176.996491 
L 278.86726 176.466751 
L 279.399364 175.937012 
L 279.931469 175.407273 
L 280.463573 174.877533 
L 280.995677 174.347794 
L 281.527781 173.818055 
L 282.059886 173.288315 
L 282.59199 172.758576 
L 283.124094 172.228837 
L 283.656198 171.699097 
L 284.188303 171.169358 
L 284.720407 170.639619 
L 285.252511 170.109879 
L 285.784615 169.58014 
L 286.31672 169.050401 
L 286.848824 168.520661 
L 287.380928 167.990922 
L 287.913032 167.461182 
L 288.445137 166.931443 
L 288.977241 166.401704 
L 289.509345 165.871964 
L 290.041449 165.342225 
L 290.573554 164.812486 
L 291.105658 164.282746 
L 291.637762 163.753007 
L 292.169866 163.223268 
L 292.701971 162.693528 
L 293.234075 162.163789 
L 293.766179 161.63405 
L 294.298284 161.10431 
L 294.830388 160.574571 
L 295.362492 160.044832 
L 295.894596 159.515092 
L 296.426701 158.985353 
L 296.958805 158.455613 
L 297.490909 157.925874 
L 298.023013 157.396135 
L 298.555118 156.866395 
L 299.087222 156.336656 
L 299.619326 155.806917 
L 300.15143 155.277177 
L 300.683535 154.747438 
L 301.215639 154.217699 
L 301.747743 153.687959 
L 302.279847 153.15822 
L 302.811952 152.628481 
L 303.344056 152.098741 
L 303.87616 151.569002 
L 304.408264 151.039263 
L 304.940369 150.509523 
L 305.472473 149.979784 
L 306.004577 149.450045 
L 306.536682 148.920305 
L 307.068786 148.390566 
L 307.60089 147.860826 
L 308.132994 147.331087 
L 308.665099 146.801348 
L 309.197203 146.271608 
L 309.729307 145.741869 
L 310.261411 145.21213 
L 310.793516 144.68239 
L 311.32562 144.152651 
L 311.857724 143.622912 
L 312.389828 143.093172 
L 312.921933 142.563433 
L 313.454037 142.033694 
L 313.986141 141.503954 
L 314.518245 140.974215 
L 315.05035 140.444476 
L 315.582454 139.914736 
L 316.114558 139.384997 
L 316.646662 138.855257 
L 317.178767 138.325518 
L 317.710871 137.795779 
L 318.242975 137.266039 
L 318.775079 136.7363 
L 319.307184 136.206561 
L 319.839288 135.676821 
L 320.371392 135.147082 
L 320.903497 134.617343 
" style="fill:none;stroke:#ff0000;stroke-dasharray:0.1036,0.0448;stroke-dashoffset:0;stroke-width:0.028;"/>
   </g>
   <g id="line2d_7">
    <path clip-path="url(#p3e2761782d)" d="M 174.574825 187.061538 
L 174.042721 186.531799 
L 173.510617 186.00206 
L 172.978512 185.47232 
L 172.446408 184.942581 
L 171.914304 184.412842 
L 171.3822 183.883102 
L 170.850095 183.353363 
L 170.317991 182.823624 
L 169.785887 182.293884 
L 169.253783 181.764145 
L 168.721678 181.234406 
L 168.189574 180.704666 
L 167.65747 180.174927 
L 167.125366 179.645188 
L 166.593261 179.115448 
L 166.061157 178.585709 
L 165.529053 178.055969 
L 164.996949 177.52623 
L 164.464844 176.996491 
L 163.93274 176.466751 
L 163.400636 175.937012 
L 162.868531 175.407273 
L 162.336427 174.877533 
L 161.804323 174.347794 
L 161.272219 173.818055 
L 160.740114 173.288315 
L 160.20801 172.758576 
L 159.675906 172.228837 
L 159.143802 171.699097 
L 158.611697 171.169358 
L 158.079593 170.639619 
L 157.547489 170.109879 
L 157.015385 169.58014 
L 156.48328 169.050401 
L 155.951176 168.520661 
L 155.419072 167.990922 
L 154.886968 167.461182 
L 154.354863 166.931443 
L 153.822759 166.401704 
L 153.290655 165.871964 
L 152.758551 165.342225 
L 152.226446 164.812486 
L 151.694342 164.282746 
L 151.162238 163.753007 
L 150.630134 163.223268 
L 150.098029 162.693528 
L 149.565925 162.163789 
L 149.033821 161.63405 
L 148.501716 161.10431 
L 147.969612 160.574571 
L 147.437508 160.044832 
L 146.905404 159.515092 
L 146.373299 158.985353 
L 145.841195 158.455613 
L 145.309091 157.925874 
L 144.776987 157.396135 
L 144.244882 156.866395 
L 143.712778 156.336656 
L 143.180674 155.806917 
L 142.64857 155.277177 
L 142.116465 154.747438 
L 141.584361 154.217699 
L 141.052257 153.687959 
L 140.520153 153.15822 
L 139.988048 152.628481 
L 139.455944 152.098741 
L 138.92384 151.569002 
L 138.391736 151.039263 
L 137.859631 150.509523 
L 137.327527 149.979784 
L 136.795423 149.450045 
L 136.263318 148.920305 
L 135.731214 148.390566 
L 135.19911 147.860826 
L 134.667006 147.331087 
L 134.134901 146.801348 
L 133.602797 146.271608 
L 133.070693 145.741869 
L 132.538589 145.21213 
L 132.006484 144.68239 
L 131.47438 144.152651 
L 130.942276 143.622912 
L 130.410172 143.093172 
L 129.878067 142.563433 
L 129.345963 142.033694 
L 128.813859 141.503954 
L 128.281755 140.974215 
L 127.74965 140.444476 
L 127.217546 139.914736 
L 126.685442 139.384997 
L 126.153338 138.855257 
L 125.621233 138.325518 
L 125.089129 137.795779 
L 124.557025 137.266039 
L 124.024921 136.7363 
L 123.492816 136.206561 
L 122.960712 135.676821 
L 122.428608 135.147082 
L 121.896503 134.617343 
" style="fill:none;stroke:#ff0000;stroke-dasharray:0.1036,0.0448;stroke-dashoffset:0;stroke-width:0.028;"/>
   </g>
   <g id="line2d_8">
    <path clip-path="url(#p3e2761782d)" d="M 121.896503 134.617343 
L 320.903497 134.617343 
" style="fill:none;stroke:#ff0000;stroke-dasharray:0.1036,0.0448;stroke-dashoffset:0;stroke-width:0.028;"/>
   </g>
  </g>
 </g>
 <defs>
  <clipPath id="p3e2761782d">
   <rect height="217.44" width="334.8" x="54" y="34.56"/>
  </clipPath>
 </defs>
</svg>
