<?xml version="1.0" encoding="utf-8" standalone="no"?>
<!DOCTYPE svg PUBLIC "-//W3C//DTD SVG 1.1//EN"
  "http://www.w3.org/Graphics/SVG/1.1/DTD/svg11.dtd">
<!-- Created with matplotlib (https://matplotlib.org/) -->
<svg height="288pt" version="1.1" viewBox="0 0 432 288" width="432pt" xmlns="http://www.w3.org/2000/svg" xmlns:xlink="http://www.w3.org/1999/xlink">
 <metadata>
  <rdf:RDF xmlns:cc="http://creativecommons.org/ns#" xmlns:dc="http://purl.org/dc/elements/1.1/" xmlns:rdf="http://www.w3.org/1999/02/22-rdf-syntax-ns#">
   <cc:Work>
    <dc:type rdf:resource="http://purl.org/dc/dcmitype/StillImage"/>
    <dc:date>2024-07-11T17:17:54.303383</dc:date>
    <dc:format>image/svg+xml</dc:format>
    <dc:creator>
     <cc:Agent>
      <dc:title>Matplotlib v3.3.4, https://matplotlib.org/</dc:title>
     </cc:Agent>
    </dc:creator>
   </cc:Work>
  </rdf:RDF>
 </metadata>
 <defs>
  <style type="text/css">*{stroke-linecap:butt;stroke-linejoin:round;}</style>
 </defs>
 <g id="figure_1">
  <g id="patch_1">
   <path d="M 0 288 
L 432 288 
L 432 0 
L 0 0 
z
" style="fill:none;"/>
  </g>
  <g id="axes_1">
   <g id="line2d_1">
    <path clip-path="url(#pdd2a5ba093)" d="M 160.527273 212.979273 
L 69.218182 212.979273 
" style="fill:none;stroke:#ff0000;stroke-linecap:square;stroke-width:0.028;"/>
   </g>
   <g id="line2d_2">
    <path clip-path="url(#pdd2a5ba093)" d="M 282.272727 212.979273 
L 373.581818 212.979273 
" style="fill:none;stroke:#ff0000;stroke-linecap:square;stroke-width:0.028;"/>
   </g>
   <g id="line2d_3">
    <path clip-path="url(#pdd2a5ba093)" d="M 69.218182 212.979273 
L 69.218182 73.580727 
" style="fill:none;stroke:#ff0000;stroke-linecap:square;stroke-width:0.028;"/>
   </g>
   <g id="line2d_4">
    <path clip-path="url(#pdd2a5ba093)" d="M 373.581818 212.979273 
L 373.581818 73.580727 
" style="fill:none;stroke:#ff0000;stroke-linecap:square;stroke-width:0.028;"/>
   </g>
   <g id="line2d_5">
    <path clip-path="url(#pdd2a5ba093)" d="M 69.218182 73.580727 
L 373.581818 73.580727 
" style="fill:none;stroke:#ff0000;stroke-linecap:square;stroke-width:0.028;"/>
   </g>
   <g id="line2d_6">
    <path clip-path="url(#pdd2a5ba093)" d="M 282.272727 212.979273 
L 282.440421 212.032364 
L 282.608114 211.085455 
L 282.775808 210.138545 
L 282.943501 209.191636 
L 283.111195 208.244727 
L 283.278888 207.297818 
L 283.446582 206.350909 
L 283.614275 205.404 
L 283.781968 204.457091 
L 283.949662 203.510182 
L 284.117355 202.563273 
L 284.285049 201.616364 
L 284.452742 200.669455 
L 284.620436 199.722545 
L 284.788129 198.775636 
L 284.955823 197.828727 
L 285.123516 196.881818 
L 285.29121 195.934909 
L 285.458903 194.988 
L 285.626597 194.041091 
L 285.79429 193.094182 
L 285.961983 192.147273 
L 286.129677 191.200364 
L 286.29737 190.253455 
L 286.465064 189.306545 
L 286.632757 188.359636 
L 286.800451 187.412727 
L 286.968144 186.465818 
L 287.135838 185.518909 
L 287.303531 184.572 
L 287.471225 183.625091 
L 287.638918 182.678182 
L 287.806612 181.731273 
L 287.974305 180.784364 
L 288.141998 179.837455 
L 288.309692 178.890545 
L 288.477385 177.943636 
L 288.645079 176.996727 
L 288.812772 176.049818 
L 288.980466 175.102909 
L 289.148159 174.156 
L 289.315853 173.209091 
L 289.483546 172.262182 
L 289.65124 171.315273 
L 289.818933 170.368364 
L 289.986627 169.421455 
L 290.15432 168.474545 
L 290.322014 167.527636 
L 290.489707 166.580727 
L 290.6574 165.633818 
L 290.825094 164.686909 
L 290.992787 163.74 
L 291.160481 162.793091 
L 291.328174 161.846182 
L 291.495868 160.899273 
L 291.663561 159.952364 
L 291.831255 159.005455 
L 291.998948 158.058545 
L 292.166642 157.111636 
L 292.334335 156.164727 
L 292.502029 155.217818 
L 292.669722 154.270909 
L 292.837415 153.324 
L 293.005109 152.377091 
L 293.172802 151.430182 
L 293.340496 150.483273 
L 293.508189 149.536364 
L 293.675883 148.589455 
L 293.843576 147.642545 
L 294.01127 146.695636 
L 294.178963 145.748727 
L 294.346657 144.801818 
L 294.51435 143.854909 
L 294.682044 142.908 
L 294.849737 141.961091 
L 295.017431 141.014182 
L 295.185124 140.067273 
L 295.352817 139.120364 
L 295.520511 138.173455 
L 295.688204 137.226545 
L 295.855898 136.279636 
L 296.023591 135.332727 
L 296.191285 134.385818 
L 296.358978 133.438909 
L 296.526672 132.492 
L 296.694365 131.545091 
L 296.862059 130.598182 
L 297.029752 129.651273 
L 297.197446 128.704364 
L 297.365139 127.757455 
L 297.532832 126.810545 
L 297.700526 125.863636 
L 297.868219 124.916727 
L 298.035913 123.969818 
L 298.203606 123.022909 
L 298.3713 122.076 
L 298.538993 121.129091 
L 298.706687 120.182182 
L 298.87438 119.235273 
" style="fill:none;stroke:#ff0000;stroke-dasharray:0.1036,0.0448;stroke-dashoffset:0;stroke-width:0.028;"/>
   </g>
   <g id="line2d_7">
    <path clip-path="url(#pdd2a5ba093)" d="M 160.527273 212.979273 
L 160.359579 212.032364 
L 160.191886 211.085455 
L 160.024192 210.138545 
L 159.856499 209.191636 
L 159.688805 208.244727 
L 159.521112 207.297818 
L 159.353418 206.350909 
L 159.185725 205.404 
L 159.018032 204.457091 
L 158.850338 203.510182 
L 158.682645 202.563273 
L 158.514951 201.616364 
L 158.347258 200.669455 
L 158.179564 199.722545 
L 158.011871 198.775636 
L 157.844177 197.828727 
L 157.676484 196.881818 
L 157.50879 195.934909 
L 157.341097 194.988 
L 157.173403 194.041091 
L 157.00571 193.094182 
L 156.838017 192.147273 
L 156.670323 191.200364 
L 156.50263 190.253455 
L 156.334936 189.306545 
L 156.167243 188.359636 
L 155.999549 187.412727 
L 155.831856 186.465818 
L 155.664162 185.518909 
L 155.496469 184.572 
L 155.328775 183.625091 
L 155.161082 182.678182 
L 154.993388 181.731273 
L 154.825695 180.784364 
L 154.658002 179.837455 
L 154.490308 178.890545 
L 154.322615 177.943636 
L 154.154921 176.996727 
L 153.987228 176.049818 
L 153.819534 175.102909 
L 153.651841 174.156 
L 153.484147 173.209091 
L 153.316454 172.262182 
L 153.14876 171.315273 
L 152.981067 170.368364 
L 152.813373 169.421455 
L 152.64568 168.474545 
L 152.477986 167.527636 
L 152.310293 166.580727 
L 152.1426 165.633818 
L 151.974906 164.686909 
L 151.807213 163.74 
L 151.639519 162.793091 
L 151.471826 161.846182 
L 151.304132 160.899273 
L 151.136439 159.952364 
L 150.968745 159.005455 
L 150.801052 158.058545 
L 150.633358 157.111636 
L 150.465665 156.164727 
L 150.297971 155.217818 
L 150.130278 154.270909 
L 149.962585 153.324 
L 149.794891 152.377091 
L 149.627198 151.430182 
L 149.459504 150.483273 
L 149.291811 149.536364 
L 149.124117 148.589455 
L 148.956424 147.642545 
L 148.78873 146.695636 
L 148.621037 145.748727 
L 148.453343 144.801818 
L 148.28565 143.854909 
L 148.117956 142.908 
L 147.950263 141.961091 
L 147.782569 141.014182 
L 147.614876 140.067273 
L 147.447183 139.120364 
L 147.279489 138.173455 
L 147.111796 137.226545 
L 146.944102 136.279636 
L 146.776409 135.332727 
L 146.608715 134.385818 
L 146.441022 133.438909 
L 146.273328 132.492 
L 146.105635 131.545091 
L 145.937941 130.598182 
L 145.770248 129.651273 
L 145.602554 128.704364 
L 145.434861 127.757455 
L 145.267168 126.810545 
L 145.099474 125.863636 
L 144.931781 124.916727 
L 144.764087 123.969818 
L 144.596394 123.022909 
L 144.4287 122.076 
L 144.261007 121.129091 
L 144.093313 120.182182 
L 143.92562 119.235273 
" style="fill:none;stroke:#ff0000;stroke-dasharray:0.1036,0.0448;stroke-dashoffset:0;stroke-width:0.028;"/>
   </g>
   <g id="line2d_8">
    <path clip-path="url(#pdd2a5ba093)" d="M 143.92562 119.235273 
L 298.87438 119.235273 
" style="fill:none;stroke:#ff0000;stroke-dasharray:0.1036,0.0448;stroke-dashoffset:0;stroke-width:0.028;"/>
   </g>
  </g>
 </g>
 <defs>
  <clipPath id="pdd2a5ba093">
   <rect height="217.44" width="334.8" x="54" y="34.56"/>
  </clipPath>
 </defs>
</svg>
