<?xml version="1.0" encoding="utf-8" standalone="no"?>
<!DOCTYPE svg PUBLIC "-//W3C//DTD SVG 1.1//EN"
  "http://www.w3.org/Graphics/SVG/1.1/DTD/svg11.dtd">
<!-- Created with matplotlib (https://matplotlib.org/) -->
<svg height="288pt" version="1.1" viewBox="0 0 432 288" width="432pt" xmlns="http://www.w3.org/2000/svg" xmlns:xlink="http://www.w3.org/1999/xlink">
 <metadata>
  <rdf:RDF xmlns:cc="http://creativecommons.org/ns#" xmlns:dc="http://purl.org/dc/elements/1.1/" xmlns:rdf="http://www.w3.org/1999/02/22-rdf-syntax-ns#">
   <cc:Work>
    <dc:type rdf:resource="http://purl.org/dc/dcmitype/StillImage"/>
    <dc:date>2024-07-11T17:16:31.802344</dc:date>
    <dc:format>image/svg+xml</dc:format>
    <dc:creator>
     <cc:Agent>
      <dc:title>Matplotlib v3.3.4, https://matplotlib.org/</dc:title>
     </cc:Agent>
    </dc:creator>
   </cc:Work>
  </rdf:RDF>
 </metadata>
 <defs>
  <style type="text/css">*{stroke-linecap:butt;stroke-linejoin:round;}</style>
 </defs>
 <g id="figure_1">
  <g id="patch_1">
   <path d="M 0 288 
L 432 288 
L 432 0 
L 0 0 
z
" style="fill:none;"/>
  </g>
  <g id="axes_1">
   <g id="line2d_1">
    <path clip-path="url(#pb9886f54fc)" d="M 165.717542 242.116364 
L 137.876312 242.116364 
" style="fill:none;stroke:#ff0000;stroke-linecap:square;stroke-width:0.028;"/>
   </g>
   <g id="line2d_2">
    <path clip-path="url(#pb9886f54fc)" d="M 277.082458 242.116364 
L 304.923688 242.116364 
" style="fill:none;stroke:#ff0000;stroke-linecap:square;stroke-width:0.028;"/>
   </g>
   <g id="line2d_3">
    <path clip-path="url(#pb9886f54fc)" d="M 137.876312 242.116364 
L 137.876312 44.443636 
" style="fill:none;stroke:#ff0000;stroke-linecap:square;stroke-width:0.028;"/>
   </g>
   <g id="line2d_4">
    <path clip-path="url(#pb9886f54fc)" d="M 304.923688 242.116364 
L 304.923688 44.443636 
" style="fill:none;stroke:#ff0000;stroke-linecap:square;stroke-width:0.028;"/>
   </g>
   <g id="line2d_5">
    <path clip-path="url(#pb9886f54fc)" d="M 137.876312 44.443636 
L 304.923688 44.443636 
" style="fill:none;stroke:#ff0000;stroke-linecap:square;stroke-width:0.028;"/>
   </g>
   <g id="line2d_6">
    <path clip-path="url(#pb9886f54fc)" d="M 277.082458 242.116364 
L 276.660622 240.541506 
L 276.238785 238.966649 
L 275.816948 237.391791 
L 275.395111 235.816934 
L 274.973274 234.242077 
L 274.551438 232.667219 
L 274.129601 231.092362 
L 273.707764 229.517504 
L 273.285927 227.942647 
L 272.86409 226.36779 
L 272.442254 224.792932 
L 272.020417 223.218075 
L 271.59858 221.643217 
L 271.176743 220.06836 
L 270.754906 218.493503 
L 270.333069 216.918645 
L 269.911233 215.343788 
L 269.489396 213.76893 
L 269.067559 212.194073 
L 268.645722 210.619215 
L 268.223885 209.044358 
L 267.802049 207.469501 
L 267.380212 205.894643 
L 266.958375 204.319786 
L 266.536538 202.744928 
L 266.114701 201.170071 
L 265.692865 199.595214 
L 265.271028 198.020356 
L 264.849191 196.445499 
L 264.427354 194.870641 
L 264.005517 193.295784 
L 263.583681 191.720927 
L 263.161844 190.146069 
L 262.740007 188.571212 
L 262.31817 186.996354 
L 261.896333 185.421497 
L 261.474497 183.84664 
L 261.05266 182.271782 
L 260.630823 180.696925 
L 260.208986 179.122067 
L 259.787149 177.54721 
L 259.365313 175.972352 
L 258.943476 174.397495 
L 258.521639 172.822638 
L 258.099802 171.24778 
L 257.677965 169.672923 
L 257.256129 168.098065 
L 256.834292 166.523208 
L 256.412455 164.948351 
L 255.990618 163.373493 
L 255.568781 161.798636 
L 255.146944 160.223778 
L 254.725108 158.648921 
L 254.303271 157.074064 
L 253.881434 155.499206 
L 253.459597 153.924349 
L 253.03776 152.349491 
L 252.615924 150.774634 
L 252.194087 149.199777 
L 251.77225 147.624919 
L 251.350413 146.050062 
L 250.928576 144.475204 
L 250.50674 142.900347 
L 250.084903 141.325489 
L 249.663066 139.750632 
L 249.241229 138.175775 
L 248.819392 136.600917 
L 248.397556 135.02606 
L 247.975719 133.451202 
L 247.553882 131.876345 
L 247.132045 130.301488 
L 246.710208 128.72663 
L 246.288372 127.151773 
L 245.866535 125.576915 
L 245.444698 124.002058 
L 245.022861 122.427201 
L 244.601024 120.852343 
L 244.179188 119.277486 
L 243.757351 117.702628 
L 243.335514 116.127771 
L 242.913677 114.552914 
L 242.49184 112.978056 
L 242.070003 111.403199 
L 241.648167 109.828341 
L 241.22633 108.253484 
L 240.804493 106.678626 
L 240.382656 105.103769 
L 239.960819 103.528912 
L 239.538983 101.954054 
L 239.117146 100.379197 
L 238.695309 98.804339 
L 238.273472 97.229482 
L 237.851635 95.654625 
L 237.429799 94.079767 
L 237.007962 92.50491 
L 236.586125 90.930052 
L 236.164288 89.355195 
L 235.742451 87.780338 
L 235.320615 86.20548 
" style="fill:none;stroke:#ff0000;stroke-dasharray:0.1036,0.0448;stroke-dashoffset:0;stroke-width:0.028;"/>
   </g>
   <g id="line2d_7">
    <path clip-path="url(#pb9886f54fc)" d="M 165.717542 242.116364 
L 166.139378 240.541506 
L 166.561215 238.966649 
L 166.983052 237.391791 
L 167.404889 235.816934 
L 167.826726 234.242077 
L 168.248562 232.667219 
L 168.670399 231.092362 
L 169.092236 229.517504 
L 169.514073 227.942647 
L 169.93591 226.36779 
L 170.357746 224.792932 
L 170.779583 223.218075 
L 171.20142 221.643217 
L 171.623257 220.06836 
L 172.045094 218.493503 
L 172.466931 216.918645 
L 172.888767 215.343788 
L 173.310604 213.76893 
L 173.732441 212.194073 
L 174.154278 210.619215 
L 174.576115 209.044358 
L 174.997951 207.469501 
L 175.419788 205.894643 
L 175.841625 204.319786 
L 176.263462 202.744928 
L 176.685299 201.170071 
L 177.107135 199.595214 
L 177.528972 198.020356 
L 177.950809 196.445499 
L 178.372646 194.870641 
L 178.794483 193.295784 
L 179.216319 191.720927 
L 179.638156 190.146069 
L 180.059993 188.571212 
L 180.48183 186.996354 
L 180.903667 185.421497 
L 181.325503 183.84664 
L 181.74734 182.271782 
L 182.169177 180.696925 
L 182.591014 179.122067 
L 183.012851 177.54721 
L 183.434687 175.972352 
L 183.856524 174.397495 
L 184.278361 172.822638 
L 184.700198 171.24778 
L 185.122035 169.672923 
L 185.543871 168.098065 
L 185.965708 166.523208 
L 186.387545 164.948351 
L 186.809382 163.373493 
L 187.231219 161.798636 
L 187.653056 160.223778 
L 188.074892 158.648921 
L 188.496729 157.074064 
L 188.918566 155.499206 
L 189.340403 153.924349 
L 189.76224 152.349491 
L 190.184076 150.774634 
L 190.605913 149.199777 
L 191.02775 147.624919 
L 191.449587 146.050062 
L 191.871424 144.475204 
L 192.29326 142.900347 
L 192.715097 141.325489 
L 193.136934 139.750632 
L 193.558771 138.175775 
L 193.980608 136.600917 
L 194.402444 135.02606 
L 194.824281 133.451202 
L 195.246118 131.876345 
L 195.667955 130.301488 
L 196.089792 128.72663 
L 196.511628 127.151773 
L 196.933465 125.576915 
L 197.355302 124.002058 
L 197.777139 122.427201 
L 198.198976 120.852343 
L 198.620812 119.277486 
L 199.042649 117.702628 
L 199.464486 116.127771 
L 199.886323 114.552914 
L 200.30816 112.978056 
L 200.729997 111.403199 
L 201.151833 109.828341 
L 201.57367 108.253484 
L 201.995507 106.678626 
L 202.417344 105.103769 
L 202.839181 103.528912 
L 203.261017 101.954054 
L 203.682854 100.379197 
L 204.104691 98.804339 
L 204.526528 97.229482 
L 204.948365 95.654625 
L 205.370201 94.079767 
L 205.792038 92.50491 
L 206.213875 90.930052 
L 206.635712 89.355195 
L 207.057549 87.780338 
L 207.479385 86.20548 
" style="fill:none;stroke:#ff0000;stroke-dasharray:0.1036,0.0448;stroke-dashoffset:0;stroke-width:0.028;"/>
   </g>
   <g id="line2d_8">
    <path clip-path="url(#pb9886f54fc)" d="M 207.479385 86.20548 
L 235.320615 86.20548 
" style="fill:none;stroke:#ff0000;stroke-dasharray:0.1036,0.0448;stroke-dashoffset:0;stroke-width:0.028;"/>
   </g>
  </g>
 </g>
 <defs>
  <clipPath id="pb9886f54fc">
   <rect height="217.44" width="334.8" x="54" y="34.56"/>
  </clipPath>
 </defs>
</svg>
