<?xml version="1.0" encoding="utf-8" standalone="no"?>
<!DOCTYPE svg PUBLIC "-//W3C//DTD SVG 1.1//EN"
  "http://www.w3.org/Graphics/SVG/1.1/DTD/svg11.dtd">
<!-- Created with matplotlib (https://matplotlib.org/) -->
<svg height="288pt" version="1.1" viewBox="0 0 432 288" width="432pt" xmlns="http://www.w3.org/2000/svg" xmlns:xlink="http://www.w3.org/1999/xlink">
 <metadata>
  <rdf:RDF xmlns:cc="http://creativecommons.org/ns#" xmlns:dc="http://purl.org/dc/elements/1.1/" xmlns:rdf="http://www.w3.org/1999/02/22-rdf-syntax-ns#">
   <cc:Work>
    <dc:type rdf:resource="http://purl.org/dc/dcmitype/StillImage"/>
    <dc:date>2024-07-11T17:16:31.886479</dc:date>
    <dc:format>image/svg+xml</dc:format>
    <dc:creator>
     <cc:Agent>
      <dc:title>Matplotlib v3.3.4, https://matplotlib.org/</dc:title>
     </cc:Agent>
    </dc:creator>
   </cc:Work>
  </rdf:RDF>
 </metadata>
 <defs>
  <style type="text/css">*{stroke-linecap:butt;stroke-linejoin:round;}</style>
 </defs>
 <g id="figure_1">
  <g id="patch_1">
   <path d="M 0 288 
L 432 288 
L 432 0 
L 0 0 
z
" style="fill:none;"/>
  </g>
  <g id="axes_1">
   <g id="line2d_1">
    <path clip-path="url(#pa80d832086)" d="M 152.041148 242.116364 
L 82.682297 242.116364 
" style="fill:none;stroke:#ff0000;stroke-linecap:square;stroke-width:0.028;"/>
   </g>
   <g id="line2d_2">
    <path clip-path="url(#pa80d832086)" d="M 290.758852 242.116364 
L 360.117703 242.116364 
" style="fill:none;stroke:#ff0000;stroke-linecap:square;stroke-width:0.028;"/>
   </g>
   <g id="line2d_3">
    <path clip-path="url(#pa80d832086)" d="M 82.682297 242.116364 
L 82.682297 44.443636 
" style="fill:none;stroke:#ff0000;stroke-linecap:square;stroke-width:0.028;"/>
   </g>
   <g id="line2d_4">
    <path clip-path="url(#pa80d832086)" d="M 360.117703 242.116364 
L 360.117703 44.443636 
" style="fill:none;stroke:#ff0000;stroke-linecap:square;stroke-width:0.028;"/>
   </g>
   <g id="line2d_5">
    <path clip-path="url(#pa80d832086)" d="M 82.682297 44.443636 
L 360.117703 44.443636 
" style="fill:none;stroke:#ff0000;stroke-linecap:square;stroke-width:0.028;"/>
   </g>
   <g id="line2d_6">
    <path clip-path="url(#pa80d832086)" d="M 290.758852 242.116364 
L 290.52532 240.645115 
L 290.291789 239.173867 
L 290.058257 237.702619 
L 289.824726 236.23137 
L 289.591194 234.760122 
L 289.357663 233.288873 
L 289.124131 231.817625 
L 288.8906 230.346377 
L 288.657068 228.875128 
L 288.423537 227.40388 
L 288.190005 225.932632 
L 287.956474 224.461383 
L 287.722942 222.990135 
L 287.489411 221.518886 
L 287.255879 220.047638 
L 287.022348 218.57639 
L 286.788816 217.105141 
L 286.555285 215.633893 
L 286.321753 214.162645 
L 286.088222 212.691396 
L 285.85469 211.220148 
L 285.621159 209.7489 
L 285.387627 208.277651 
L 285.154096 206.806403 
L 284.920564 205.335154 
L 284.687033 203.863906 
L 284.453502 202.392658 
L 284.21997 200.921409 
L 283.986439 199.450161 
L 283.752907 197.978913 
L 283.519376 196.507664 
L 283.285844 195.036416 
L 283.052313 193.565167 
L 282.818781 192.093919 
L 282.58525 190.622671 
L 282.351718 189.151422 
L 282.118187 187.680174 
L 281.884655 186.208926 
L 281.651124 184.737677 
L 281.417592 183.266429 
L 281.184061 181.795181 
L 280.950529 180.323932 
L 280.716998 178.852684 
L 280.483466 177.381435 
L 280.249935 175.910187 
L 280.016403 174.438939 
L 279.782872 172.96769 
L 279.54934 171.496442 
L 279.315809 170.025194 
L 279.082277 168.553945 
L 278.848746 167.082697 
L 278.615214 165.611448 
L 278.381683 164.1402 
L 278.148151 162.668952 
L 277.91462 161.197703 
L 277.681088 159.726455 
L 277.447557 158.255207 
L 277.214025 156.783958 
L 276.980494 155.31271 
L 276.746962 153.841462 
L 276.513431 152.370213 
L 276.279899 150.898965 
L 276.046368 149.427716 
L 275.812836 147.956468 
L 275.579305 146.48522 
L 275.345774 145.013971 
L 275.112242 143.542723 
L 274.878711 142.071475 
L 274.645179 140.600226 
L 274.411648 139.128978 
L 274.178116 137.657729 
L 273.944585 136.186481 
L 273.711053 134.715233 
L 273.477522 133.243984 
L 273.24399 131.772736 
L 273.010459 130.301488 
L 272.776927 128.830239 
L 272.543396 127.358991 
L 272.309864 125.887742 
L 272.076333 124.416494 
L 271.842801 122.945246 
L 271.60927 121.473997 
L 271.375738 120.002749 
L 271.142207 118.531501 
L 270.908675 117.060252 
L 270.675144 115.589004 
L 270.441612 114.117756 
L 270.208081 112.646507 
L 269.974549 111.175259 
L 269.741018 109.70401 
L 269.507486 108.232762 
L 269.273955 106.761514 
L 269.040423 105.290265 
L 268.806892 103.819017 
L 268.57336 102.347769 
L 268.339829 100.87652 
L 268.106297 99.405272 
L 267.872766 97.934023 
L 267.639234 96.462775 
" style="fill:none;stroke:#ff0000;stroke-dasharray:0.1036,0.0448;stroke-dashoffset:0;stroke-width:0.028;"/>
   </g>
   <g id="line2d_7">
    <path clip-path="url(#pa80d832086)" d="M 152.041148 242.116364 
L 152.27468 240.645115 
L 152.508211 239.173867 
L 152.741743 237.702619 
L 152.975274 236.23137 
L 153.208806 234.760122 
L 153.442337 233.288873 
L 153.675869 231.817625 
L 153.9094 230.346377 
L 154.142932 228.875128 
L 154.376463 227.40388 
L 154.609995 225.932632 
L 154.843526 224.461383 
L 155.077058 222.990135 
L 155.310589 221.518886 
L 155.544121 220.047638 
L 155.777652 218.57639 
L 156.011184 217.105141 
L 156.244715 215.633893 
L 156.478247 214.162645 
L 156.711778 212.691396 
L 156.94531 211.220148 
L 157.178841 209.7489 
L 157.412373 208.277651 
L 157.645904 206.806403 
L 157.879436 205.335154 
L 158.112967 203.863906 
L 158.346498 202.392658 
L 158.58003 200.921409 
L 158.813561 199.450161 
L 159.047093 197.978913 
L 159.280624 196.507664 
L 159.514156 195.036416 
L 159.747687 193.565167 
L 159.981219 192.093919 
L 160.21475 190.622671 
L 160.448282 189.151422 
L 160.681813 187.680174 
L 160.915345 186.208926 
L 161.148876 184.737677 
L 161.382408 183.266429 
L 161.615939 181.795181 
L 161.849471 180.323932 
L 162.083002 178.852684 
L 162.316534 177.381435 
L 162.550065 175.910187 
L 162.783597 174.438939 
L 163.017128 172.96769 
L 163.25066 171.496442 
L 163.484191 170.025194 
L 163.717723 168.553945 
L 163.951254 167.082697 
L 164.184786 165.611448 
L 164.418317 164.1402 
L 164.651849 162.668952 
L 164.88538 161.197703 
L 165.118912 159.726455 
L 165.352443 158.255207 
L 165.585975 156.783958 
L 165.819506 155.31271 
L 166.053038 153.841462 
L 166.286569 152.370213 
L 166.520101 150.898965 
L 166.753632 149.427716 
L 166.987164 147.956468 
L 167.220695 146.48522 
L 167.454226 145.013971 
L 167.687758 143.542723 
L 167.921289 142.071475 
L 168.154821 140.600226 
L 168.388352 139.128978 
L 168.621884 137.657729 
L 168.855415 136.186481 
L 169.088947 134.715233 
L 169.322478 133.243984 
L 169.55601 131.772736 
L 169.789541 130.301488 
L 170.023073 128.830239 
L 170.256604 127.358991 
L 170.490136 125.887742 
L 170.723667 124.416494 
L 170.957199 122.945246 
L 171.19073 121.473997 
L 171.424262 120.002749 
L 171.657793 118.531501 
L 171.891325 117.060252 
L 172.124856 115.589004 
L 172.358388 114.117756 
L 172.591919 112.646507 
L 172.825451 111.175259 
L 173.058982 109.70401 
L 173.292514 108.232762 
L 173.526045 106.761514 
L 173.759577 105.290265 
L 173.993108 103.819017 
L 174.22664 102.347769 
L 174.460171 100.87652 
L 174.693703 99.405272 
L 174.927234 97.934023 
L 175.160766 96.462775 
" style="fill:none;stroke:#ff0000;stroke-dasharray:0.1036,0.0448;stroke-dashoffset:0;stroke-width:0.028;"/>
   </g>
   <g id="line2d_8">
    <path clip-path="url(#pa80d832086)" d="M 175.160766 96.462775 
L 267.639234 96.462775 
" style="fill:none;stroke:#ff0000;stroke-dasharray:0.1036,0.0448;stroke-dashoffset:0;stroke-width:0.028;"/>
   </g>
  </g>
 </g>
 <defs>
  <clipPath id="pa80d832086">
   <rect height="217.44" width="334.8" x="54" y="34.56"/>
  </clipPath>
 </defs>
</svg>
