<?xml version="1.0" encoding="utf-8" standalone="no"?>
<!DOCTYPE svg PUBLIC "-//W3C//DTD SVG 1.1//EN"
  "http://www.w3.org/Graphics/SVG/1.1/DTD/svg11.dtd">
<!-- Created with matplotlib (https://matplotlib.org/) -->
<svg height="288pt" version="1.1" viewBox="0 0 432 288" width="432pt" xmlns="http://www.w3.org/2000/svg" xmlns:xlink="http://www.w3.org/1999/xlink">
 <metadata>
  <rdf:RDF xmlns:cc="http://creativecommons.org/ns#" xmlns:dc="http://purl.org/dc/elements/1.1/" xmlns:rdf="http://www.w3.org/1999/02/22-rdf-syntax-ns#">
   <cc:Work>
    <dc:type rdf:resource="http://purl.org/dc/dcmitype/StillImage"/>
    <dc:date>2024-07-11T17:16:31.715672</dc:date>
    <dc:format>image/svg+xml</dc:format>
    <dc:creator>
     <cc:Agent>
      <dc:title>Matplotlib v3.3.4, https://matplotlib.org/</dc:title>
     </cc:Agent>
    </dc:creator>
   </cc:Work>
  </rdf:RDF>
 </metadata>
 <defs>
  <style type="text/css">*{stroke-linecap:butt;stroke-linejoin:round;}</style>
 </defs>
 <g id="figure_1">
  <g id="patch_1">
   <path d="M 0 288 
L 432 288 
L 432 0 
L 0 0 
z
" style="fill:none;"/>
  </g>
  <g id="axes_1">
   <g id="line2d_1">
    <path clip-path="url(#p64ad834493)" d="M 174.88877 242.116364 
L 163.260963 242.116364 
" style="fill:none;stroke:#ff0000;stroke-linecap:square;stroke-width:0.028;"/>
   </g>
   <g id="line2d_2">
    <path clip-path="url(#p64ad834493)" d="M 267.91123 242.116364 
L 279.539037 242.116364 
" style="fill:none;stroke:#ff0000;stroke-linecap:square;stroke-width:0.028;"/>
   </g>
   <g id="line2d_3">
    <path clip-path="url(#p64ad834493)" d="M 163.260963 242.116364 
L 163.260963 44.443636 
" style="fill:none;stroke:#ff0000;stroke-linecap:square;stroke-width:0.028;"/>
   </g>
   <g id="line2d_4">
    <path clip-path="url(#p64ad834493)" d="M 279.539037 242.116364 
L 279.539037 44.443636 
" style="fill:none;stroke:#ff0000;stroke-linecap:square;stroke-width:0.028;"/>
   </g>
   <g id="line2d_5">
    <path clip-path="url(#p64ad834493)" d="M 163.260963 44.443636 
L 279.539037 44.443636 
" style="fill:none;stroke:#ff0000;stroke-linecap:square;stroke-width:0.028;"/>
   </g>
   <g id="line2d_6">
    <path clip-path="url(#p64ad834493)" d="M 267.91123 242.116364 
L 267.44142 240.472027 
L 266.971609 238.827691 
L 266.501799 237.183354 
L 266.031988 235.539018 
L 265.562178 233.894682 
L 265.092368 232.250345 
L 264.622557 230.606009 
L 264.152747 228.961672 
L 263.682936 227.317336 
L 263.213126 225.673 
L 262.743316 224.028663 
L 262.273505 222.384327 
L 261.803695 220.73999 
L 261.333884 219.095654 
L 260.864074 217.451317 
L 260.394263 215.806981 
L 259.924453 214.162645 
L 259.454643 212.518308 
L 258.984832 210.873972 
L 258.515022 209.229635 
L 258.045211 207.585299 
L 257.575401 205.940963 
L 257.105591 204.296626 
L 256.63578 202.65229 
L 256.16597 201.007953 
L 255.696159 199.363617 
L 255.226349 197.719281 
L 254.756539 196.074944 
L 254.286728 194.430608 
L 253.816918 192.786271 
L 253.347107 191.141935 
L 252.877297 189.497598 
L 252.407487 187.853262 
L 251.937676 186.208926 
L 251.467866 184.564589 
L 250.998055 182.920253 
L 250.528245 181.275916 
L 250.058435 179.63158 
L 249.588624 177.987244 
L 249.118814 176.342907 
L 248.649003 174.698571 
L 248.179193 173.054234 
L 247.709383 171.409898 
L 247.239572 169.765561 
L 246.769762 168.121225 
L 246.299951 166.476889 
L 245.830141 164.832552 
L 245.360331 163.188216 
L 244.89052 161.543879 
L 244.42071 159.899543 
L 243.950899 158.255207 
L 243.481089 156.61087 
L 243.011279 154.966534 
L 242.541468 153.322197 
L 242.071658 151.677861 
L 241.601847 150.033525 
L 241.132037 148.389188 
L 240.662227 146.744852 
L 240.192416 145.100515 
L 239.722606 143.456179 
L 239.252795 141.811842 
L 238.782985 140.167506 
L 238.313175 138.52317 
L 237.843364 136.878833 
L 237.373554 135.234497 
L 236.903743 133.59016 
L 236.433933 131.945824 
L 235.964123 130.301488 
L 235.494312 128.657151 
L 235.024502 127.012815 
L 234.554691 125.368478 
L 234.084881 123.724142 
L 233.61507 122.079806 
L 233.14526 120.435469 
L 232.67545 118.791133 
L 232.205639 117.146796 
L 231.735829 115.50246 
L 231.266018 113.858123 
L 230.796208 112.213787 
L 230.326398 110.569451 
L 229.856587 108.925114 
L 229.386777 107.280778 
L 228.916966 105.636441 
L 228.447156 103.992105 
L 227.977346 102.347769 
L 227.507535 100.703432 
L 227.037725 99.059096 
L 226.567914 97.414759 
L 226.098104 95.770423 
L 225.628294 94.126087 
L 225.158483 92.48175 
L 224.688673 90.837414 
L 224.218862 89.193077 
L 223.749052 87.548741 
L 223.279242 85.904404 
L 222.809431 84.260068 
L 222.339621 82.615732 
L 221.86981 80.971395 
L 221.4 79.327059 
" style="fill:none;stroke:#ff0000;stroke-dasharray:0.1036,0.0448;stroke-dashoffset:0;stroke-width:0.028;"/>
   </g>
   <g id="line2d_7">
    <path clip-path="url(#p64ad834493)" d="M 174.88877 242.116364 
L 175.35858 240.472027 
L 175.828391 238.827691 
L 176.298201 237.183354 
L 176.768012 235.539018 
L 177.237822 233.894682 
L 177.707632 232.250345 
L 178.177443 230.606009 
L 178.647253 228.961672 
L 179.117064 227.317336 
L 179.586874 225.673 
L 180.056684 224.028663 
L 180.526495 222.384327 
L 180.996305 220.73999 
L 181.466116 219.095654 
L 181.935926 217.451317 
L 182.405737 215.806981 
L 182.875547 214.162645 
L 183.345357 212.518308 
L 183.815168 210.873972 
L 184.284978 209.229635 
L 184.754789 207.585299 
L 185.224599 205.940963 
L 185.694409 204.296626 
L 186.16422 202.65229 
L 186.63403 201.007953 
L 187.103841 199.363617 
L 187.573651 197.719281 
L 188.043461 196.074944 
L 188.513272 194.430608 
L 188.983082 192.786271 
L 189.452893 191.141935 
L 189.922703 189.497598 
L 190.392513 187.853262 
L 190.862324 186.208926 
L 191.332134 184.564589 
L 191.801945 182.920253 
L 192.271755 181.275916 
L 192.741565 179.63158 
L 193.211376 177.987244 
L 193.681186 176.342907 
L 194.150997 174.698571 
L 194.620807 173.054234 
L 195.090617 171.409898 
L 195.560428 169.765561 
L 196.030238 168.121225 
L 196.500049 166.476889 
L 196.969859 164.832552 
L 197.439669 163.188216 
L 197.90948 161.543879 
L 198.37929 159.899543 
L 198.849101 158.255207 
L 199.318911 156.61087 
L 199.788721 154.966534 
L 200.258532 153.322197 
L 200.728342 151.677861 
L 201.198153 150.033525 
L 201.667963 148.389188 
L 202.137773 146.744852 
L 202.607584 145.100515 
L 203.077394 143.456179 
L 203.547205 141.811842 
L 204.017015 140.167506 
L 204.486825 138.52317 
L 204.956636 136.878833 
L 205.426446 135.234497 
L 205.896257 133.59016 
L 206.366067 131.945824 
L 206.835877 130.301488 
L 207.305688 128.657151 
L 207.775498 127.012815 
L 208.245309 125.368478 
L 208.715119 123.724142 
L 209.18493 122.079806 
L 209.65474 120.435469 
L 210.12455 118.791133 
L 210.594361 117.146796 
L 211.064171 115.50246 
L 211.533982 113.858123 
L 212.003792 112.213787 
L 212.473602 110.569451 
L 212.943413 108.925114 
L 213.413223 107.280778 
L 213.883034 105.636441 
L 214.352844 103.992105 
L 214.822654 102.347769 
L 215.292465 100.703432 
L 215.762275 99.059096 
L 216.232086 97.414759 
L 216.701896 95.770423 
L 217.171706 94.126087 
L 217.641517 92.48175 
L 218.111327 90.837414 
L 218.581138 89.193077 
L 219.050948 87.548741 
L 219.520758 85.904404 
L 219.990569 84.260068 
L 220.460379 82.615732 
L 220.93019 80.971395 
L 221.4 79.327059 
" style="fill:none;stroke:#ff0000;stroke-dasharray:0.1036,0.0448;stroke-dashoffset:0;stroke-width:0.028;"/>
   </g>
   <g id="line2d_8">
    <path clip-path="url(#p64ad834493)" d="M 221.4 79.327059 
L 221.4 79.327059 
" style="fill:none;stroke:#ff0000;stroke-dasharray:0.1036,0.0448;stroke-dashoffset:0;stroke-width:0.028;"/>
   </g>
  </g>
 </g>
 <defs>
  <clipPath id="p64ad834493">
   <rect height="217.44" width="334.8" x="54" y="34.56"/>
  </clipPath>
 </defs>
</svg>
