<?xml version="1.0" encoding="utf-8" standalone="no"?>
<!DOCTYPE svg PUBLIC "-//W3C//DTD SVG 1.1//EN"
  "http://www.w3.org/Graphics/SVG/1.1/DTD/svg11.dtd">
<!-- Created with matplotlib (https://matplotlib.org/) -->
<svg height="288pt" version="1.1" viewBox="0 0 432 288" width="432pt" xmlns="http://www.w3.org/2000/svg" xmlns:xlink="http://www.w3.org/1999/xlink">
 <metadata>
  <rdf:RDF xmlns:cc="http://creativecommons.org/ns#" xmlns:dc="http://purl.org/dc/elements/1.1/" xmlns:rdf="http://www.w3.org/1999/02/22-rdf-syntax-ns#">
   <cc:Work>
    <dc:type rdf:resource="http://purl.org/dc/dcmitype/StillImage"/>
    <dc:date>2024-07-11T17:17:54.260373</dc:date>
    <dc:format>image/svg+xml</dc:format>
    <dc:creator>
     <cc:Agent>
      <dc:title>Matplotlib v3.3.4, https://matplotlib.org/</dc:title>
     </cc:Agent>
    </dc:creator>
   </cc:Work>
  </rdf:RDF>
 </metadata>
 <defs>
  <style type="text/css">*{stroke-linecap:butt;stroke-linejoin:round;}</style>
 </defs>
 <g id="figure_1">
  <g id="patch_1">
   <path d="M 0 288 
L 432 288 
L 432 0 
L 0 0 
z
" style="fill:none;"/>
  </g>
  <g id="axes_1">
   <g id="line2d_1">
    <path clip-path="url(#p341c722779)" d="M 170.672727 196.036364 
L 69.218182 196.036364 
" style="fill:none;stroke:#ff0000;stroke-linecap:square;stroke-width:0.028;"/>
   </g>
   <g id="line2d_2">
    <path clip-path="url(#p341c722779)" d="M 272.127273 196.036364 
L 373.581818 196.036364 
" style="fill:none;stroke:#ff0000;stroke-linecap:square;stroke-width:0.028;"/>
   </g>
   <g id="line2d_3">
    <path clip-path="url(#p341c722779)" d="M 69.218182 196.036364 
L 69.218182 90.523636 
" style="fill:none;stroke:#ff0000;stroke-linecap:square;stroke-width:0.028;"/>
   </g>
   <g id="line2d_4">
    <path clip-path="url(#p341c722779)" d="M 373.581818 196.036364 
L 373.581818 90.523636 
" style="fill:none;stroke:#ff0000;stroke-linecap:square;stroke-width:0.028;"/>
   </g>
   <g id="line2d_5">
    <path clip-path="url(#p341c722779)" d="M 69.218182 90.523636 
L 373.581818 90.523636 
" style="fill:none;stroke:#ff0000;stroke-linecap:square;stroke-width:0.028;"/>
   </g>
   <g id="line2d_6">
    <path clip-path="url(#p341c722779)" d="M 272.127273 196.036364 
L 272.450892 195.354876 
L 272.774511 194.673388 
L 273.09813 193.991901 
L 273.421749 193.310413 
L 273.745368 192.628926 
L 274.068987 191.947438 
L 274.392605 191.26595 
L 274.716224 190.584463 
L 275.039843 189.902975 
L 275.363462 189.221488 
L 275.687081 188.54 
L 276.0107 187.858512 
L 276.334319 187.177025 
L 276.657938 186.495537 
L 276.981557 185.81405 
L 277.305176 185.132562 
L 277.628795 184.451074 
L 277.952414 183.769587 
L 278.276033 183.088099 
L 278.599652 182.406612 
L 278.923271 181.725124 
L 279.24689 181.043636 
L 279.570509 180.362149 
L 279.894128 179.680661 
L 280.217747 178.999174 
L 280.541366 178.317686 
L 280.864985 177.636198 
L 281.188604 176.954711 
L 281.512223 176.273223 
L 281.835842 175.591736 
L 282.159461 174.910248 
L 282.48308 174.22876 
L 282.806699 173.547273 
L 283.130318 172.865785 
L 283.453936 172.184298 
L 283.777555 171.50281 
L 284.101174 170.821322 
L 284.424793 170.139835 
L 284.748412 169.458347 
L 285.072031 168.77686 
L 285.39565 168.095372 
L 285.719269 167.413884 
L 286.042888 166.732397 
L 286.366507 166.050909 
L 286.690126 165.369421 
L 287.013745 164.687934 
L 287.337364 164.006446 
L 287.660983 163.324959 
L 287.984602 162.643471 
L 288.308221 161.961983 
L 288.63184 161.280496 
L 288.955459 160.599008 
L 289.279078 159.917521 
L 289.602697 159.236033 
L 289.926316 158.554545 
L 290.249935 157.873058 
L 290.573554 157.19157 
L 290.897173 156.510083 
L 291.220792 155.828595 
L 291.544411 155.147107 
L 291.86803 154.46562 
L 292.191649 153.784132 
L 292.515268 153.102645 
L 292.838886 152.421157 
L 293.162505 151.739669 
L 293.486124 151.058182 
L 293.809743 150.376694 
L 294.133362 149.695207 
L 294.456981 149.013719 
L 294.7806 148.332231 
L 295.104219 147.650744 
L 295.427838 146.969256 
L 295.751457 146.287769 
L 296.075076 145.606281 
L 296.398695 144.924793 
L 296.722314 144.243306 
L 297.045933 143.561818 
L 297.369552 142.880331 
L 297.693171 142.198843 
L 298.01679 141.517355 
L 298.340409 140.835868 
L 298.664028 140.15438 
L 298.987647 139.472893 
L 299.311266 138.791405 
L 299.634885 138.109917 
L 299.958504 137.42843 
L 300.282123 136.746942 
L 300.605742 136.065455 
L 300.929361 135.383967 
L 301.25298 134.702479 
L 301.576599 134.020992 
L 301.900217 133.339504 
L 302.223836 132.658017 
L 302.547455 131.976529 
L 302.871074 131.295041 
L 303.194693 130.613554 
L 303.518312 129.932066 
L 303.841931 129.250579 
L 304.16555 128.569091 
" style="fill:none;stroke:#ff0000;stroke-dasharray:0.1036,0.0448;stroke-dashoffset:0;stroke-width:0.028;"/>
   </g>
   <g id="line2d_7">
    <path clip-path="url(#p341c722779)" d="M 170.672727 196.036364 
L 170.349108 195.354876 
L 170.025489 194.673388 
L 169.70187 193.991901 
L 169.378251 193.310413 
L 169.054632 192.628926 
L 168.731013 191.947438 
L 168.407395 191.26595 
L 168.083776 190.584463 
L 167.760157 189.902975 
L 167.436538 189.221488 
L 167.112919 188.54 
L 166.7893 187.858512 
L 166.465681 187.177025 
L 166.142062 186.495537 
L 165.818443 185.81405 
L 165.494824 185.132562 
L 165.171205 184.451074 
L 164.847586 183.769587 
L 164.523967 183.088099 
L 164.200348 182.406612 
L 163.876729 181.725124 
L 163.55311 181.043636 
L 163.229491 180.362149 
L 162.905872 179.680661 
L 162.582253 178.999174 
L 162.258634 178.317686 
L 161.935015 177.636198 
L 161.611396 176.954711 
L 161.287777 176.273223 
L 160.964158 175.591736 
L 160.640539 174.910248 
L 160.31692 174.22876 
L 159.993301 173.547273 
L 159.669682 172.865785 
L 159.346064 172.184298 
L 159.022445 171.50281 
L 158.698826 170.821322 
L 158.375207 170.139835 
L 158.051588 169.458347 
L 157.727969 168.77686 
L 157.40435 168.095372 
L 157.080731 167.413884 
L 156.757112 166.732397 
L 156.433493 166.050909 
L 156.109874 165.369421 
L 155.786255 164.687934 
L 155.462636 164.006446 
L 155.139017 163.324959 
L 154.815398 162.643471 
L 154.491779 161.961983 
L 154.16816 161.280496 
L 153.844541 160.599008 
L 153.520922 159.917521 
L 153.197303 159.236033 
L 152.873684 158.554545 
L 152.550065 157.873058 
L 152.226446 157.19157 
L 151.902827 156.510083 
L 151.579208 155.828595 
L 151.255589 155.147107 
L 150.93197 154.46562 
L 150.608351 153.784132 
L 150.284732 153.102645 
L 149.961114 152.421157 
L 149.637495 151.739669 
L 149.313876 151.058182 
L 148.990257 150.376694 
L 148.666638 149.695207 
L 148.343019 149.013719 
L 148.0194 148.332231 
L 147.695781 147.650744 
L 147.372162 146.969256 
L 147.048543 146.287769 
L 146.724924 145.606281 
L 146.401305 144.924793 
L 146.077686 144.243306 
L 145.754067 143.561818 
L 145.430448 142.880331 
L 145.106829 142.198843 
L 144.78321 141.517355 
L 144.459591 140.835868 
L 144.135972 140.15438 
L 143.812353 139.472893 
L 143.488734 138.791405 
L 143.165115 138.109917 
L 142.841496 137.42843 
L 142.517877 136.746942 
L 142.194258 136.065455 
L 141.870639 135.383967 
L 141.54702 134.702479 
L 141.223401 134.020992 
L 140.899783 133.339504 
L 140.576164 132.658017 
L 140.252545 131.976529 
L 139.928926 131.295041 
L 139.605307 130.613554 
L 139.281688 129.932066 
L 138.958069 129.250579 
L 138.63445 128.569091 
" style="fill:none;stroke:#ff0000;stroke-dasharray:0.1036,0.0448;stroke-dashoffset:0;stroke-width:0.028;"/>
   </g>
   <g id="line2d_8">
    <path clip-path="url(#p341c722779)" d="M 138.63445 128.569091 
L 304.16555 128.569091 
" style="fill:none;stroke:#ff0000;stroke-dasharray:0.1036,0.0448;stroke-dashoffset:0;stroke-width:0.028;"/>
   </g>
  </g>
 </g>
 <defs>
  <clipPath id="p341c722779">
   <rect height="217.44" width="334.8" x="54" y="34.56"/>
  </clipPath>
 </defs>
</svg>
